<svg xmlns="http://www.w3.org/2000/svg" xmlns:xlink="http://www.w3.org/1999/xlink" zoomAndPan="magnify" preserveAspectRatio="xMidYMid meet" version="1.0" viewBox="67.47 68.83 238.17 237.31"><defs><clipPath id="6d9818b378"><path d="M 90.097656 90.097656 L 284.902344 90.097656 L 284.902344 284.902344 L 90.097656 284.902344 Z M 90.097656 90.097656 " clip-rule="nonzero"/></clipPath><clipPath id="a3fadbab23"><path d="M 187.5 90.097656 C 133.707031 90.097656 90.097656 133.707031 90.097656 187.5 C 90.097656 241.292969 133.707031 284.902344 187.5 284.902344 C 241.292969 284.902344 284.902344 241.292969 284.902344 187.5 C 284.902344 133.707031 241.292969 90.097656 187.5 90.097656 Z M 187.5 90.097656 " clip-rule="nonzero"/></clipPath><clipPath id="63a2b85e50"><path d="M 0.0976562 0.0976562 L 194.902344 0.0976562 L 194.902344 194.902344 L 0.0976562 194.902344 Z M 0.0976562 0.0976562 " clip-rule="nonzero"/></clipPath><clipPath id="459932eae6"><path d="M 97.5 0.0976562 C 43.707031 0.0976562 0.0976562 43.707031 0.0976562 97.5 C 0.0976562 151.292969 43.707031 194.902344 97.5 194.902344 C 151.292969 194.902344 194.902344 151.292969 194.902344 97.5 C 194.902344 43.707031 151.292969 0.0976562 97.5 0.0976562 Z M 97.5 0.0976562 " clip-rule="nonzero"/></clipPath><clipPath id="3f495f7ed3"><rect x="0" width="195" y="0" height="195"/></clipPath><clipPath id="1bd5b474c1"><path d="M 67.46875 93 L 117 93 L 117 184 L 67.46875 184 Z M 67.46875 93 " clip-rule="nonzero"/></clipPath><clipPath id="6fd46bc587"><path d="M 131 68.820312 L 179 68.820312 L 179 86 L 131 86 Z M 131 68.820312 " clip-rule="nonzero"/></clipPath><clipPath id="cdd7707005"><path d="M 184 296 L 225 296 L 225 305.820312 L 184 305.820312 Z M 184 296 " clip-rule="nonzero"/></clipPath><clipPath id="3135092a50"><path d="M 139.71875 139.71875 L 234.96875 139.71875 L 234.96875 234.96875 L 139.71875 234.96875 Z M 139.71875 139.71875 " clip-rule="nonzero"/></clipPath></defs><g clip-path="url(#6d9818b378)"><g clip-path="url(#a3fadbab23)"><g transform="matrix(1, 0, 0, 1, 90, 90)"><g clip-path="url(#3f495f7ed3)"><g clip-path="url(#63a2b85e50)"><g clip-path="url(#459932eae6)"><path fill="#0e2944" d="M 0.0976562 0.0976562 L 194.902344 0.0976562 L 194.902344 194.902344 L 0.0976562 194.902344 Z M 0.0976562 0.0976562 " fill-opacity="1" fill-rule="nonzero"/></g></g></g></g></g></g><path fill="#3daf36" d="M 187.023438 297.132812 C 172.1875 297.132812 157.796875 294.226562 144.246094 288.496094 C 131.160156 282.960938 119.40625 275.039062 109.316406 264.945312 C 99.226562 254.855469 91.300781 243.101562 85.765625 230.015625 C 80.035156 216.464844 77.128906 202.074219 77.128906 187.238281 C 77.128906 172.40625 80.035156 158.011719 85.765625 144.464844 C 91.300781 131.375 99.222656 119.625 109.316406 109.53125 C 119.40625 99.441406 131.160156 91.519531 144.246094 85.980469 C 157.796875 80.25 172.191406 77.34375 187.023438 77.34375 C 201.859375 77.34375 216.25 80.25 229.800781 85.980469 C 242.886719 91.515625 254.640625 99.441406 264.730469 109.53125 C 274.820312 119.625 282.746094 131.375 288.28125 144.464844 C 294.011719 158.011719 296.917969 172.40625 296.917969 187.238281 C 296.917969 202.074219 294.011719 216.464844 288.28125 230.015625 C 282.746094 243.101562 274.824219 254.855469 264.730469 264.945312 C 254.640625 275.039062 242.886719 282.960938 229.800781 288.496094 C 216.25 294.230469 201.859375 297.132812 187.023438 297.132812 Z M 187.023438 82.261719 C 129.136719 82.261719 82.046875 129.355469 82.046875 187.238281 C 82.046875 245.125 129.136719 292.21875 187.023438 292.21875 C 244.910156 292.21875 292 245.125 292 187.238281 C 292 129.355469 244.910156 82.261719 187.023438 82.261719 Z M 187.023438 82.261719 " fill-opacity="1" fill-rule="nonzero"/><g clip-path="url(#1bd5b474c1)"><path fill="#0e2944" d="M 72.386719 183.929688 L 67.472656 183.851562 C 67.761719 165.9375 72.296875 148.089844 80.589844 132.242188 C 88.574219 116.984375 100.109375 103.476562 113.949219 93.179688 L 116.882812 97.125 C 103.632812 106.980469 92.589844 119.914062 84.945312 134.523438 C 77.007812 149.691406 72.667969 166.777344 72.386719 183.929688 Z M 72.386719 183.929688 " fill-opacity="1" fill-rule="nonzero"/></g><path fill="#0e2944" d="M 117.824219 283.261719 C 112.625 279.804688 107.683594 275.882812 103.128906 271.597656 C 96.765625 265.605469 91.125 258.871094 86.363281 251.582031 C 77.203125 237.5625 71.261719 221.320312 69.175781 204.617188 L 74.054688 204.007812 C 76.046875 219.976562 81.726562 235.496094 90.476562 248.890625 C 98.363281 260.960938 108.480469 271.148438 120.546875 279.164062 Z M 117.824219 283.261719 " fill-opacity="1" fill-rule="nonzero"/><g clip-path="url(#6fd46bc587)"><path fill="#0e2944" d="M 133.582031 85.777344 L 131.15625 81.5 C 138.449219 77.371094 146.25 74.191406 154.347656 72.054688 C 162.117188 70.003906 170.136719 68.917969 178.179688 68.832031 L 178.230469 73.75 C 170.59375 73.832031 162.980469 74.859375 155.601562 76.808594 C 147.914062 78.835938 140.503906 81.855469 133.582031 85.777344 Z M 133.582031 85.777344 " fill-opacity="1" fill-rule="nonzero"/></g><path fill="#0e2944" d="M 233.601562 297.839844 L 231.640625 293.464844 C 242.378906 288.652344 278.628906 269.582031 294.140625 226.382812 C 307.527344 189.097656 297.492188 156.175781 292.554688 143.753906 L 297.007812 141.984375 C 300.789062 151.496094 303.460938 162.15625 304.742188 172.808594 C 307.023438 191.820312 304.976562 210.390625 298.648438 228.003906 C 294.730469 238.921875 289.234375 249.179688 282.316406 258.492188 C 276.640625 266.128906 269.96875 273.195312 262.480469 279.492188 C 253.613281 286.949219 243.359375 293.464844 233.601562 297.839844 Z M 233.601562 297.839844 " fill-opacity="1" fill-rule="nonzero"/><g clip-path="url(#cdd7707005)"><path fill="#0e2944" d="M 194.113281 306.144531 C 190.800781 306.144531 187.492188 305.953125 184.203125 305.566406 L 184.761719 300.808594 C 190.96875 301.539062 197.257812 301.539062 203.460938 300.808594 C 209.984375 300.042969 216.414062 298.46875 222.5625 296.136719 L 224.261719 300.613281 C 217.746094 303.089844 210.9375 304.757812 204.019531 305.566406 C 200.730469 305.953125 197.421875 306.144531 194.113281 306.144531 Z M 194.113281 306.144531 " fill-opacity="1" fill-rule="nonzero"/></g><path fill="#0e2944" d="M 270.53125 110.484375 C 265.417969 104.242188 259.523438 98.664062 253.011719 93.90625 C 246.1875 88.921875 238.722656 84.859375 230.824219 81.839844 L 232.535156 77.363281 C 240.832031 80.539062 248.671875 84.800781 255.839844 90.039062 C 262.679688 95.035156 268.871094 100.890625 274.238281 107.449219 Z M 270.53125 110.484375 " fill-opacity="1" fill-rule="nonzero"/><g clip-path="url(#3135092a50)"><path fill="#3daf36" d="M 227.730469 179.953125 L 195.035156 179.953125 L 195.035156 147.257812 C 195.035156 143.136719 191.71875 139.71875 187.496094 139.71875 C 183.371094 139.71875 179.953125 143.035156 179.953125 147.257812 L 179.953125 179.953125 L 147.257812 179.953125 C 143.136719 179.953125 139.71875 183.269531 139.71875 187.496094 C 139.71875 189.605469 140.523438 191.414062 141.929688 192.832031 C 143.339844 194.230469 145.148438 195.035156 147.257812 195.035156 L 179.953125 195.035156 L 179.953125 227.730469 C 179.953125 229.84375 180.757812 231.648438 182.167969 233.058594 C 183.574219 234.464844 185.382812 235.273438 187.496094 235.273438 C 191.617188 235.273438 195.035156 231.953125 195.035156 227.730469 L 195.035156 195.035156 L 227.730469 195.035156 C 231.851562 195.035156 235.273438 191.71875 235.273438 187.496094 C 235.273438 183.371094 231.953125 179.953125 227.730469 179.953125 " fill-opacity="1" fill-rule="nonzero"/></g></svg>