<svg xmlns="http://www.w3.org/2000/svg" xmlns:xlink="http://www.w3.org/1999/xlink" width="880.436" height="230.996" zoomAndPan="magnify" viewBox="330.401 311.054 782.436 217.996" preserveAspectRatio="xMidYMid meet" version="1.0">
  <defs>
    <g />
    <clipPath id="2a7feee029">
      <rect x="0" width="784" y="0" height="287" />
    </clipPath>
    <clipPath id="74233d2865">
      <rect x="0" width="831" y="0" height="83" />
    </clipPath>
  </defs>
  <g transform="matrix(1, 0, 0, 1, 328, 243)">
    <g clip-path="url(#2a7feee029)">
      <g fill="#0e2944" fill-opacity="1">
        <g transform="translate(0.77606, 214.085516)">
          <g>
            <path d="M 102.390625 -23.453125 L 51.390625 -23.453125 L 43.640625 0 L 1.625 0 L 54.046875 -143.78125 L 100.140625 -143.78125 L 152.359375 0 L 110.140625 0 Z M 92.390625 -54.046875 L 76.890625 -100.546875 L 61.59375 -54.046875 Z M 92.390625 -54.046875 " />
          </g>
        </g>
      </g>
      <g fill="#0e2944" fill-opacity="1">
        <g transform="translate(154.748512, 214.085516)">
          <g>
            <path d="M 51.390625 -30.59375 L 96.0625 -30.59375 L 96.0625 0 L 11.421875 0 L 11.421875 -143.78125 L 51.390625 -143.78125 Z M 51.390625 -30.59375 " />
          </g>
        </g>
      </g>
      <g fill="#0e2944" fill-opacity="1">
        <g transform="translate(254.881568, 214.085516)">
          <g>
            <path d="M 96.46875 0 L 51.390625 -63.015625 L 51.390625 0 L 11.421875 0 L 11.421875 -143.78125 L 51.390625 -143.78125 L 51.390625 -81.78125 L 96.0625 -143.78125 L 142.15625 -143.78125 L 89.328125 -74.03125 L 144.8125 0 Z M 96.46875 0 " />
          </g>
        </g>
      </g>
      <g fill="#0e2944" fill-opacity="1">
        <g transform="translate(402.939846, 214.085516)">
          <g>
            <path d="M 51.390625 -143.78125 L 51.390625 0 L 11.421875 0 L 11.421875 -143.78125 Z M 51.390625 -143.78125 " />
          </g>
        </g>
      </g>
      <g fill="#0e2944" fill-opacity="1">
        <g transform="translate(465.752447, 214.085516)">
          <g>
            <path d="M 80.359375 1.421875 C 66.898438 1.421875 54.523438 -1.738281 43.234375 -8.0625 C 31.953125 -14.382812 23.015625 -23.148438 16.421875 -34.359375 C 9.828125 -45.578125 6.53125 -58.257812 6.53125 -72.40625 C 6.53125 -86.539062 9.828125 -99.21875 16.421875 -110.4375 C 23.015625 -121.65625 31.953125 -130.390625 43.234375 -136.640625 C 54.523438 -142.898438 66.898438 -146.03125 80.359375 -146.03125 C 93.953125 -146.03125 106.359375 -142.898438 117.578125 -136.640625 C 128.796875 -130.390625 137.664062 -121.65625 144.1875 -110.4375 C 150.71875 -99.21875 153.984375 -86.539062 153.984375 -72.40625 C 153.984375 -58.257812 150.71875 -45.578125 144.1875 -34.359375 C 137.664062 -23.148438 128.757812 -14.382812 117.46875 -8.0625 C 106.1875 -1.738281 93.816406 1.421875 80.359375 1.421875 Z M 80.359375 -35.6875 C 90.554688 -35.6875 98.609375 -39.015625 104.515625 -45.671875 C 110.429688 -52.335938 113.390625 -61.25 113.390625 -72.40625 C 113.390625 -83.820312 110.429688 -92.828125 104.515625 -99.421875 C 98.609375 -106.015625 90.554688 -109.3125 80.359375 -109.3125 C 70.023438 -109.3125 61.929688 -106.015625 56.078125 -99.421875 C 50.234375 -92.828125 47.3125 -83.820312 47.3125 -72.40625 C 47.3125 -61.113281 50.234375 -52.171875 56.078125 -45.578125 C 61.929688 -38.984375 70.023438 -35.6875 80.359375 -35.6875 Z M 80.359375 -35.6875 " />
          </g>
        </g>
      </g>
      <g fill="#0e2944" fill-opacity="1">
        <g transform="translate(626.250861, 214.085516)">
          <g>
            <path d="M 144.609375 0 L 104.625 0 L 51.390625 -80.359375 L 51.390625 0 L 11.421875 0 L 11.421875 -143.78125 L 51.390625 -143.78125 L 104.625 -62.40625 L 104.625 -143.78125 L 144.609375 -143.78125 Z M 144.609375 0 " />
          </g>
        </g>
      </g>
    </g>
  </g>
  <g transform="matrix(1, 0, 0, 1, 320, 467)">
    <g clip-path="url(#74233d2865)">
      <g fill="#3daf36" fill-opacity="1">
        <g transform="translate(2.882554, 61.644219)">
          <g>
            <path d="M 29.21875 -40.234375 L 29.21875 -35.96875 L 18.25 -35.96875 L 18.25 0 L 12.984375 0 L 12.984375 -35.96875 L 1.96875 -35.96875 L 1.96875 -40.234375 Z M 29.21875 -40.234375 " />
          </g>
        </g>
      </g>
      <g fill="#3daf36" fill-opacity="1">
        <g transform="translate(67.660701, 61.644219)">
          <g>
            <path d="M 9.703125 -35.96875 L 9.703125 -22.515625 L 24.359375 -22.515625 L 24.359375 -18.1875 L 9.703125 -18.1875 L 9.703125 -4.328125 L 26.09375 -4.328125 L 26.09375 0 L 4.453125 0 L 4.453125 -40.296875 L 26.09375 -40.296875 L 26.09375 -35.96875 Z M 9.703125 -35.96875 " />
          </g>
        </g>
      </g>
      <g fill="#3daf36" fill-opacity="1">
        <g transform="translate(130.823076, 61.644219)">
          <g>
            <path d="M 2.484375 -20.15625 C 2.484375 -24.070312 3.367188 -27.597656 5.140625 -30.734375 C 6.910156 -33.878906 9.320312 -36.335938 12.375 -38.109375 C 15.4375 -39.878906 18.835938 -40.765625 22.578125 -40.765625 C 26.960938 -40.765625 30.789062 -39.703125 34.0625 -37.578125 C 37.332031 -35.460938 39.71875 -32.460938 41.21875 -28.578125 L 34.921875 -28.578125 C 33.804688 -31.003906 32.203125 -32.867188 30.109375 -34.171875 C 28.015625 -35.484375 25.503906 -36.140625 22.578125 -36.140625 C 19.765625 -36.140625 17.238281 -35.484375 15 -34.171875 C 12.769531 -32.867188 11.019531 -31.015625 9.75 -28.609375 C 8.488281 -26.203125 7.859375 -23.382812 7.859375 -20.15625 C 7.859375 -16.957031 8.488281 -14.15625 9.75 -11.75 C 11.019531 -9.34375 12.769531 -7.484375 15 -6.171875 C 17.238281 -4.867188 19.765625 -4.21875 22.578125 -4.21875 C 25.503906 -4.21875 28.015625 -4.859375 30.109375 -6.140625 C 32.203125 -7.429688 33.804688 -9.289062 34.921875 -11.71875 L 41.21875 -11.71875 C 39.71875 -7.875 37.332031 -4.898438 34.0625 -2.796875 C 30.789062 -0.703125 26.960938 0.34375 22.578125 0.34375 C 18.835938 0.34375 15.4375 -0.53125 12.375 -2.28125 C 9.320312 -4.03125 6.910156 -6.460938 5.140625 -9.578125 C 3.367188 -12.703125 2.484375 -16.226562 2.484375 -20.15625 Z M 2.484375 -20.15625 " />
          </g>
        </g>
      </g>
      <g fill="#3daf36" fill-opacity="1">
        <g transform="translate(208.931566, 61.644219)">
          <g>
            <path d="M 35.453125 -40.234375 L 35.453125 0 L 30.1875 0 L 30.1875 -18.25 L 9.703125 -18.25 L 9.703125 0 L 4.453125 0 L 4.453125 -40.234375 L 9.703125 -40.234375 L 9.703125 -22.578125 L 30.1875 -22.578125 L 30.1875 -40.234375 Z M 35.453125 -40.234375 " />
          </g>
        </g>
      </g>
      <g fill="#3daf36" fill-opacity="1">
        <g transform="translate(282.423507, 61.644219)">
          <g>
            <path d="M 36.078125 0 L 30.828125 0 L 9.703125 -32.046875 L 9.703125 0 L 4.453125 0 L 4.453125 -40.296875 L 9.703125 -40.296875 L 30.828125 -8.3125 L 30.828125 -40.296875 L 36.078125 -40.296875 Z M 36.078125 0 " />
          </g>
        </g>
      </g>
      <g fill="#3daf36" fill-opacity="1">
        <g transform="translate(356.550215, 61.644219)">
          <g>
            <path d="M 22.6875 0.40625 C 18.957031 0.40625 15.550781 -0.46875 12.46875 -2.21875 C 9.394531 -3.96875 6.960938 -6.410156 5.171875 -9.546875 C 3.378906 -12.691406 2.484375 -16.226562 2.484375 -20.15625 C 2.484375 -24.070312 3.378906 -27.597656 5.171875 -30.734375 C 6.960938 -33.878906 9.394531 -36.328125 12.46875 -38.078125 C 15.550781 -39.828125 18.957031 -40.703125 22.6875 -40.703125 C 26.457031 -40.703125 29.878906 -39.828125 32.953125 -38.078125 C 36.035156 -36.328125 38.460938 -33.890625 40.234375 -30.765625 C 42.003906 -27.648438 42.890625 -24.113281 42.890625 -20.15625 C 42.890625 -16.1875 42.003906 -12.640625 40.234375 -9.515625 C 38.460938 -6.398438 36.035156 -3.96875 32.953125 -2.21875 C 29.878906 -0.46875 26.457031 0.40625 22.6875 0.40625 Z M 22.6875 -4.15625 C 25.5 -4.15625 28.03125 -4.804688 30.28125 -6.109375 C 32.53125 -7.421875 34.300781 -9.289062 35.59375 -11.71875 C 36.882812 -14.144531 37.53125 -16.957031 37.53125 -20.15625 C 37.53125 -23.382812 36.882812 -26.203125 35.59375 -28.609375 C 34.300781 -31.015625 32.539062 -32.867188 30.3125 -34.171875 C 28.082031 -35.484375 25.539062 -36.140625 22.6875 -36.140625 C 19.84375 -36.140625 17.300781 -35.484375 15.0625 -34.171875 C 12.832031 -32.867188 11.070312 -31.015625 9.78125 -28.609375 C 8.5 -26.203125 7.859375 -23.382812 7.859375 -20.15625 C 7.859375 -16.957031 8.5 -14.144531 9.78125 -11.71875 C 11.070312 -9.289062 12.84375 -7.421875 15.09375 -6.109375 C 17.34375 -4.804688 19.875 -4.15625 22.6875 -4.15625 Z M 22.6875 -4.15625 " />
          </g>
        </g>
      </g>
      <g fill="#3daf36" fill-opacity="1">
        <g transform="translate(435.466611, 61.644219)">
          <g>
            <path d="M 9.703125 -4.265625 L 23.78125 -4.265625 L 23.78125 0 L 4.453125 0 L 4.453125 -40.234375 L 9.703125 -40.234375 Z M 9.703125 -4.265625 " />
          </g>
        </g>
      </g>
      <g fill="#3daf36" fill-opacity="1">
        <g transform="translate(493.954725, 61.644219)">
          <g>
            <path d="M 22.6875 0.40625 C 18.957031 0.40625 15.550781 -0.46875 12.46875 -2.21875 C 9.394531 -3.96875 6.960938 -6.410156 5.171875 -9.546875 C 3.378906 -12.691406 2.484375 -16.226562 2.484375 -20.15625 C 2.484375 -24.070312 3.378906 -27.597656 5.171875 -30.734375 C 6.960938 -33.878906 9.394531 -36.328125 12.46875 -38.078125 C 15.550781 -39.828125 18.957031 -40.703125 22.6875 -40.703125 C 26.457031 -40.703125 29.878906 -39.828125 32.953125 -38.078125 C 36.035156 -36.328125 38.460938 -33.890625 40.234375 -30.765625 C 42.003906 -27.648438 42.890625 -24.113281 42.890625 -20.15625 C 42.890625 -16.1875 42.003906 -12.640625 40.234375 -9.515625 C 38.460938 -6.398438 36.035156 -3.96875 32.953125 -2.21875 C 29.878906 -0.46875 26.457031 0.40625 22.6875 0.40625 Z M 22.6875 -4.15625 C 25.5 -4.15625 28.03125 -4.804688 30.28125 -6.109375 C 32.53125 -7.421875 34.300781 -9.289062 35.59375 -11.71875 C 36.882812 -14.144531 37.53125 -16.957031 37.53125 -20.15625 C 37.53125 -23.382812 36.882812 -26.203125 35.59375 -28.609375 C 34.300781 -31.015625 32.539062 -32.867188 30.3125 -34.171875 C 28.082031 -35.484375 25.539062 -36.140625 22.6875 -36.140625 C 19.84375 -36.140625 17.300781 -35.484375 15.0625 -34.171875 C 12.832031 -32.867188 11.070312 -31.015625 9.78125 -28.609375 C 8.5 -26.203125 7.859375 -23.382812 7.859375 -20.15625 C 7.859375 -16.957031 8.5 -14.144531 9.78125 -11.71875 C 11.070312 -9.289062 12.84375 -7.421875 15.09375 -6.109375 C 17.34375 -4.804688 19.875 -4.15625 22.6875 -4.15625 Z M 22.6875 -4.15625 " />
          </g>
        </g>
      </g>
      <g fill="#3daf36" fill-opacity="1">
        <g transform="translate(572.871121, 61.644219)">
          <g>
            <path d="M 34.921875 -28.578125 C 33.804688 -30.921875 32.191406 -32.738281 30.078125 -34.03125 C 27.960938 -35.320312 25.5 -35.96875 22.6875 -35.96875 C 19.875 -35.96875 17.34375 -35.320312 15.09375 -34.03125 C 12.84375 -32.738281 11.070312 -30.890625 9.78125 -28.484375 C 8.5 -26.085938 7.859375 -23.3125 7.859375 -20.15625 C 7.859375 -17 8.5 -14.222656 9.78125 -11.828125 C 11.070312 -9.441406 12.84375 -7.601562 15.09375 -6.3125 C 17.34375 -5.03125 19.875 -4.390625 22.6875 -4.390625 C 26.613281 -4.390625 29.847656 -5.5625 32.390625 -7.90625 C 34.929688 -10.257812 36.410156 -13.4375 36.828125 -17.4375 L 20.78125 -17.4375 L 20.78125 -21.703125 L 42.4375 -21.703125 L 42.4375 -17.671875 C 42.125 -14.359375 41.082031 -11.328125 39.3125 -8.578125 C 37.539062 -5.828125 35.210938 -3.648438 32.328125 -2.046875 C 29.441406 -0.453125 26.226562 0.34375 22.6875 0.34375 C 18.957031 0.34375 15.550781 -0.53125 12.46875 -2.28125 C 9.394531 -4.03125 6.960938 -6.460938 5.171875 -9.578125 C 3.378906 -12.703125 2.484375 -16.226562 2.484375 -20.15625 C 2.484375 -24.070312 3.378906 -27.597656 5.171875 -30.734375 C 6.960938 -33.878906 9.394531 -36.328125 12.46875 -38.078125 C 15.550781 -39.828125 18.957031 -40.703125 22.6875 -40.703125 C 26.957031 -40.703125 30.738281 -39.644531 34.03125 -37.53125 C 37.320312 -35.414062 39.71875 -32.429688 41.21875 -28.578125 Z M 34.921875 -28.578125 " />
          </g>
        </g>
      </g>
      <g fill="#3daf36" fill-opacity="1">
        <g transform="translate(651.325851, 61.644219)">
          <g>
            <path d="M 9.703125 -40.234375 L 9.703125 0 L 4.453125 0 L 4.453125 -40.234375 Z M 9.703125 -40.234375 " />
          </g>
        </g>
      </g>
      <g fill="#3daf36" fill-opacity="1">
        <g transform="translate(699.080443, 61.644219)">
          <g>
            <path d="M 9.703125 -35.96875 L 9.703125 -22.515625 L 24.359375 -22.515625 L 24.359375 -18.1875 L 9.703125 -18.1875 L 9.703125 -4.328125 L 26.09375 -4.328125 L 26.09375 0 L 4.453125 0 L 4.453125 -40.296875 L 26.09375 -40.296875 L 26.09375 -35.96875 Z M 9.703125 -35.96875 " />
          </g>
        </g>
      </g>
      <g fill="#3daf36" fill-opacity="1">
        <g transform="translate(762.242856, 61.644219)">
          <g>
            <path d="M 17.203125 0.40625 C 14.546875 0.40625 12.164062 -0.0625 10.0625 -1 C 7.96875 -1.945312 6.320312 -3.257812 5.125 -4.9375 C 3.9375 -6.613281 3.328125 -8.546875 3.296875 -10.734375 L 8.890625 -10.734375 C 9.085938 -8.847656 9.867188 -7.257812 11.234375 -5.96875 C 12.597656 -4.6875 14.585938 -4.046875 17.203125 -4.046875 C 19.703125 -4.046875 21.671875 -4.671875 23.109375 -5.921875 C 24.554688 -7.171875 25.28125 -8.773438 25.28125 -10.734375 C 25.28125 -12.273438 24.859375 -13.523438 24.015625 -14.484375 C 23.171875 -15.453125 22.113281 -16.1875 20.84375 -16.6875 C 19.570312 -17.1875 17.859375 -17.722656 15.703125 -18.296875 C 13.046875 -18.992188 10.914062 -19.6875 9.3125 -20.375 C 7.71875 -21.070312 6.351562 -22.160156 5.21875 -23.640625 C 4.082031 -25.117188 3.515625 -27.113281 3.515625 -29.625 C 3.515625 -31.8125 4.070312 -33.75 5.1875 -35.4375 C 6.3125 -37.132812 7.882812 -38.445312 9.90625 -39.375 C 11.925781 -40.300781 14.242188 -40.765625 16.859375 -40.765625 C 20.628906 -40.765625 23.71875 -39.820312 26.125 -37.9375 C 28.53125 -36.050781 29.882812 -33.546875 30.1875 -30.421875 L 24.421875 -30.421875 C 24.234375 -31.960938 23.425781 -33.316406 22 -34.484375 C 20.570312 -35.660156 18.6875 -36.25 16.34375 -36.25 C 14.144531 -36.25 12.351562 -35.679688 10.96875 -34.546875 C 9.582031 -33.410156 8.890625 -31.828125 8.890625 -29.796875 C 8.890625 -28.328125 9.300781 -27.128906 10.125 -26.203125 C 10.957031 -25.285156 11.976562 -24.582031 13.1875 -24.09375 C 14.40625 -23.613281 16.109375 -23.066406 18.296875 -22.453125 C 20.953125 -21.722656 23.085938 -21 24.703125 -20.28125 C 26.328125 -19.570312 27.710938 -18.476562 28.859375 -17 C 30.015625 -15.519531 30.59375 -13.507812 30.59375 -10.96875 C 30.59375 -9.007812 30.070312 -7.160156 29.03125 -5.421875 C 28 -3.691406 26.460938 -2.285156 24.421875 -1.203125 C 22.378906 -0.128906 19.972656 0.40625 17.203125 0.40625 Z M 17.203125 0.40625 " />
          </g>
        </g>
      </g>
    </g>
  </g>
</svg>