<svg xmlns="http://www.w3.org/2000/svg" xmlns:xlink="http://www.w3.org/1999/xlink" width="500" zoomAndPan="magnify" viewBox="0 0 375 374.999991" height="500" preserveAspectRatio="xMidYMid meet" version="1.0"><defs><g/><clipPath id="267d9845a3"><path d="M 150 94.929688 L 222 94.929688 L 222 166 L 150 166 Z M 150 94.929688 " clip-rule="nonzero"/></clipPath><clipPath id="1493990cf1"><path d="M 151 139 L 174 139 L 174 209.679688 L 151 209.679688 Z M 151 139 " clip-rule="nonzero"/></clipPath><clipPath id="8e1ebba77a"><path d="M 114.164062 145 L 133 145 L 133 164 L 114.164062 164 Z M 114.164062 145 " clip-rule="nonzero"/></clipPath><clipPath id="4ec61c516d"><path d="M 236 141 L 254.414062 141 L 254.414062 160 L 236 160 Z M 236 141 " clip-rule="nonzero"/></clipPath><clipPath id="fbf385cb78"><rect x="0" width="196" y="0" height="72"/></clipPath><clipPath id="97a0911fb1"><rect x="0" width="272" y="0" height="26"/></clipPath></defs><rect x="-37.5" width="450" fill="#ffffff" y="-37.499999" height="449.999989" fill-opacity="1"/><rect x="-37.5" width="450" fill="#0e2944" y="-37.499999" height="449.999989" fill-opacity="1"/><path fill="#3daf36" d="M 191.519531 140.660156 C 197.519531 140.660156 202.351562 135.828125 202.351562 129.878906 C 202.351562 123.878906 197.519531 119.050781 191.519531 119.050781 C 187.222656 119.050781 183.503906 121.597656 181.804688 125.207031 L 151.542969 125.207031 C 149.683594 122.074219 146.230469 119.953125 142.304688 119.953125 C 136.355469 119.953125 131.523438 124.78125 131.523438 130.730469 C 131.523438 135.667969 134.765625 139.808594 139.277344 141.082031 L 139.222656 168.53125 C 134.710938 169.859375 131.417969 174 131.417969 178.9375 C 131.417969 184.886719 136.25 189.71875 142.25 189.71875 C 148.195312 189.71875 153.027344 184.886719 153.027344 178.9375 C 153.027344 174.480469 150.320312 170.65625 146.496094 169.011719 L 146.605469 140.660156 C 149.894531 139.226562 152.339844 136.199219 152.921875 132.535156 L 181.0625 132.535156 C 182.28125 137.207031 186.476562 140.660156 191.519531 140.660156 Z M 191.519531 140.660156 " fill-opacity="1" fill-rule="evenodd"/><path fill="#3daf36" d="M 180.054688 166.089844 C 174.105469 166.089844 169.273438 170.921875 169.273438 176.921875 C 169.273438 182.867188 174.105469 187.699219 180.054688 187.699219 C 184.355469 187.699219 188.070312 185.152344 189.824219 181.539062 L 220.03125 181.539062 C 221.890625 184.671875 225.34375 186.796875 229.324219 186.796875 C 235.269531 186.796875 240.101562 181.964844 240.101562 176.019531 C 240.101562 171.082031 236.8125 166.941406 232.296875 165.664062 L 232.402344 138.214844 C 236.863281 136.886719 240.15625 132.746094 240.15625 127.863281 C 240.15625 121.863281 235.324219 117.03125 229.378906 117.03125 C 223.378906 117.03125 218.546875 121.863281 218.546875 127.863281 C 218.546875 132.269531 221.253906 136.09375 225.078125 137.738281 L 225.023438 166.089844 C 221.730469 167.523438 219.289062 170.550781 218.652344 174.214844 L 190.511719 174.214844 C 189.34375 169.542969 185.097656 166.089844 180.054688 166.089844 Z M 180.054688 166.089844 " fill-opacity="1" fill-rule="evenodd"/><g clip-path="url(#267d9845a3)"><path fill="#ffffff" d="M 161.3125 116.5 C 155.363281 116.5 150.53125 111.667969 150.53125 105.722656 C 150.53125 99.777344 155.363281 94.945312 161.3125 94.945312 C 165.613281 94.945312 169.328125 97.441406 171.082031 101.101562 L 201.289062 101.101562 C 203.203125 97.972656 206.601562 95.847656 210.582031 95.847656 C 216.527344 95.847656 221.359375 100.679688 221.359375 106.625 C 221.359375 111.507812 218.070312 115.703125 213.609375 116.976562 L 213.660156 144.429688 C 218.121094 145.753906 221.414062 149.898438 221.414062 154.78125 C 221.414062 160.726562 216.582031 165.558594 210.636719 165.558594 C 204.6875 165.558594 199.855469 160.726562 199.855469 154.78125 C 199.855469 150.375 202.511719 146.550781 206.335938 144.90625 L 206.28125 116.5 C 202.988281 115.121094 200.546875 112.039062 199.910156 108.429688 L 171.769531 108.429688 C 170.601562 113.050781 166.355469 116.5 161.3125 116.5 Z M 161.3125 116.5 " fill-opacity="1" fill-rule="evenodd"/></g><g clip-path="url(#1493990cf1)"><path fill="#ffffff" d="M 162.585938 139.96875 C 168.53125 139.96875 173.363281 144.800781 173.363281 150.746094 C 173.363281 155.628906 170.125 159.773438 165.613281 161.097656 L 165.664062 188.550781 C 170.175781 189.875 173.46875 194.019531 173.46875 198.902344 C 173.46875 204.847656 168.636719 209.679688 162.636719 209.679688 C 156.691406 209.679688 151.859375 204.847656 151.859375 198.902344 C 151.859375 194.496094 154.566406 190.671875 158.390625 189.027344 L 158.285156 160.621094 C 155.628906 159.507812 153.558594 157.277344 152.496094 154.570312 C 149.894531 147.71875 154.460938 139.96875 162.585938 139.96875 Z M 162.585938 139.96875 " fill-opacity="1" fill-rule="evenodd"/></g><g clip-path="url(#8e1ebba77a)"><path fill="#3daf36" d="M 132.320312 154.621094 C 132.320312 155.21875 132.261719 155.808594 132.148438 156.394531 C 132.03125 156.976562 131.859375 157.546875 131.628906 158.097656 C 131.402344 158.648438 131.121094 159.171875 130.792969 159.664062 C 130.460938 160.160156 130.085938 160.621094 129.664062 161.042969 C 129.242188 161.464844 128.78125 161.839844 128.285156 162.171875 C 127.792969 162.503906 127.269531 162.78125 126.71875 163.011719 C 126.167969 163.238281 125.597656 163.410156 125.015625 163.527344 C 124.429688 163.644531 123.839844 163.699219 123.242188 163.699219 C 122.648438 163.699219 122.054688 163.644531 121.472656 163.527344 C 120.886719 163.410156 120.320312 163.238281 119.769531 163.011719 C 119.21875 162.78125 118.695312 162.503906 118.199219 162.171875 C 117.703125 161.839844 117.246094 161.464844 116.824219 161.042969 C 116.402344 160.621094 116.023438 160.160156 115.695312 159.664062 C 115.363281 159.171875 115.082031 158.648438 114.855469 158.097656 C 114.625 157.546875 114.453125 156.976562 114.339844 156.394531 C 114.222656 155.808594 114.164062 155.21875 114.164062 154.621094 C 114.164062 154.027344 114.222656 153.433594 114.339844 152.851562 C 114.453125 152.265625 114.625 151.699219 114.855469 151.148438 C 115.082031 150.597656 115.363281 150.074219 115.695312 149.578125 C 116.023438 149.082031 116.402344 148.625 116.824219 148.203125 C 117.246094 147.78125 117.703125 147.402344 118.199219 147.074219 C 118.695312 146.742188 119.21875 146.460938 119.769531 146.234375 C 120.320312 146.007812 120.886719 145.832031 121.472656 145.71875 C 122.054688 145.601562 122.648438 145.542969 123.242188 145.542969 C 123.839844 145.542969 124.429688 145.601562 125.015625 145.71875 C 125.597656 145.832031 126.167969 146.007812 126.71875 146.234375 C 127.269531 146.460938 127.792969 146.742188 128.285156 147.074219 C 128.78125 147.402344 129.242188 147.78125 129.664062 148.203125 C 130.085938 148.625 130.460938 149.082031 130.792969 149.578125 C 131.121094 150.074219 131.402344 150.597656 131.628906 151.148438 C 131.859375 151.699219 132.03125 152.265625 132.148438 152.851562 C 132.261719 153.433594 132.320312 154.027344 132.320312 154.621094 Z M 132.320312 154.621094 " fill-opacity="1" fill-rule="nonzero"/></g><g clip-path="url(#4ec61c516d)"><path fill="#3daf36" d="M 254.332031 150.109375 C 254.332031 150.707031 254.273438 151.296875 254.15625 151.878906 C 254.039062 152.464844 253.867188 153.03125 253.640625 153.582031 C 253.414062 154.132812 253.132812 154.65625 252.800781 155.152344 C 252.46875 155.648438 252.09375 156.105469 251.671875 156.527344 C 251.25 156.949219 250.792969 157.328125 250.296875 157.65625 C 249.800781 157.988281 249.277344 158.269531 248.726562 158.496094 C 248.175781 158.726562 247.609375 158.898438 247.023438 159.011719 C 246.4375 159.128906 245.847656 159.1875 245.253906 159.1875 C 244.65625 159.1875 244.066406 159.128906 243.480469 159.011719 C 242.898438 158.898438 242.328125 158.726562 241.777344 158.496094 C 241.226562 158.269531 240.703125 157.988281 240.207031 157.65625 C 239.710938 157.328125 239.253906 156.949219 238.832031 156.527344 C 238.410156 156.105469 238.035156 155.648438 237.703125 155.152344 C 237.371094 154.65625 237.09375 154.132812 236.863281 153.582031 C 236.636719 153.03125 236.464844 152.464844 236.347656 151.878906 C 236.230469 151.296875 236.171875 150.707031 236.171875 150.109375 C 236.171875 149.511719 236.230469 148.921875 236.347656 148.335938 C 236.464844 147.753906 236.636719 147.183594 236.863281 146.632812 C 237.09375 146.082031 237.371094 145.5625 237.703125 145.066406 C 238.035156 144.570312 238.410156 144.109375 238.832031 143.6875 C 239.253906 143.265625 239.710938 142.890625 240.207031 142.558594 C 240.703125 142.230469 241.226562 141.949219 241.777344 141.722656 C 242.328125 141.492188 242.898438 141.320312 243.480469 141.203125 C 244.066406 141.089844 244.65625 141.03125 245.253906 141.03125 C 245.847656 141.03125 246.4375 141.089844 247.023438 141.203125 C 247.609375 141.320312 248.175781 141.492188 248.726562 141.722656 C 249.277344 141.949219 249.800781 142.230469 250.296875 142.558594 C 250.792969 142.890625 251.25 143.265625 251.671875 143.6875 C 252.09375 144.109375 252.46875 144.570312 252.800781 145.066406 C 253.132812 145.5625 253.414062 146.082031 253.640625 146.632812 C 253.867188 147.183594 254.039062 147.753906 254.15625 148.335938 C 254.273438 148.921875 254.332031 149.511719 254.332031 150.109375 Z M 254.332031 150.109375 " fill-opacity="1" fill-rule="nonzero"/></g><g transform="matrix(1, 0, 0, 1, 89, 203)"><g clip-path="url(#fbf385cb78)"><g fill="#ffffff" fill-opacity="1"><g transform="translate(1.645905, 52.516899)"><g><path d="M 25.359375 -5.8125 L 12.734375 -5.8125 L 10.8125 0 L 0.40625 0 L 13.390625 -35.625 L 24.8125 -35.625 L 37.75 0 L 27.28125 0 Z M 22.890625 -13.390625 L 19.046875 -24.90625 L 15.265625 -13.390625 Z M 22.890625 -13.390625 "/></g></g></g><g fill="#ffffff" fill-opacity="1"><g transform="translate(39.799558, 52.516899)"><g><path d="M 12.734375 -7.578125 L 23.796875 -7.578125 L 23.796875 0 L 2.828125 0 L 2.828125 -35.625 L 12.734375 -35.625 Z M 12.734375 -7.578125 "/></g></g></g><g fill="#ffffff" fill-opacity="1"><g transform="translate(64.612063, 52.516899)"><g><path d="M 23.90625 0 L 12.734375 -15.609375 L 12.734375 0 L 2.828125 0 L 2.828125 -35.625 L 12.734375 -35.625 L 12.734375 -20.265625 L 23.796875 -35.625 L 35.21875 -35.625 L 22.125 -18.34375 L 35.875 0 Z M 23.90625 0 "/></g></g></g><g fill="#ffffff" fill-opacity="1"><g transform="translate(101.300222, 52.516899)"><g><path d="M 12.734375 -35.625 L 12.734375 0 L 2.828125 0 L 2.828125 -35.625 Z M 12.734375 -35.625 "/></g></g></g><g fill="#ffffff" fill-opacity="1"><g transform="translate(116.864889, 52.516899)"><g><path d="M 19.90625 0.359375 C 16.570312 0.359375 13.503906 -0.421875 10.703125 -1.984375 C 7.910156 -3.554688 5.695312 -5.734375 4.0625 -8.515625 C 2.425781 -11.296875 1.609375 -14.4375 1.609375 -17.9375 C 1.609375 -21.4375 2.425781 -24.578125 4.0625 -27.359375 C 5.695312 -30.140625 7.910156 -32.304688 10.703125 -33.859375 C 13.503906 -35.410156 16.570312 -36.1875 19.90625 -36.1875 C 23.28125 -36.1875 26.351562 -35.410156 29.125 -33.859375 C 31.90625 -32.304688 34.101562 -30.140625 35.71875 -27.359375 C 37.34375 -24.578125 38.15625 -21.4375 38.15625 -17.9375 C 38.15625 -14.4375 37.34375 -11.296875 35.71875 -8.515625 C 34.101562 -5.734375 31.894531 -3.554688 29.09375 -1.984375 C 26.300781 -0.421875 23.238281 0.359375 19.90625 0.359375 Z M 19.90625 -8.84375 C 22.4375 -8.84375 24.429688 -9.664062 25.890625 -11.3125 C 27.359375 -12.96875 28.09375 -15.175781 28.09375 -17.9375 C 28.09375 -20.769531 27.359375 -23 25.890625 -24.625 C 24.429688 -26.257812 22.4375 -27.078125 19.90625 -27.078125 C 17.34375 -27.078125 15.335938 -26.257812 13.890625 -24.625 C 12.441406 -23 11.71875 -20.769531 11.71875 -17.9375 C 11.71875 -15.144531 12.441406 -12.929688 13.890625 -11.296875 C 15.335938 -9.660156 17.34375 -8.84375 19.90625 -8.84375 Z M 19.90625 -8.84375 "/></g></g></g><g fill="#ffffff" fill-opacity="1"><g transform="translate(156.635661, 52.516899)"><g><path d="M 35.828125 0 L 25.921875 0 L 12.734375 -19.90625 L 12.734375 0 L 2.828125 0 L 2.828125 -35.625 L 12.734375 -35.625 L 25.921875 -15.46875 L 25.921875 -35.625 L 35.828125 -35.625 Z M 35.828125 0 "/></g></g></g></g></g><g transform="matrix(1, 0, 0, 1, 57, 256)"><g clip-path="url(#97a0911fb1)"><g fill="#3daf36" fill-opacity="1"><g transform="translate(1.457954, 18.665866)"><g><path d="M 9.5 -13.09375 L 9.5 -11.703125 L 5.9375 -11.703125 L 5.9375 0 L 4.21875 0 L 4.21875 -11.703125 L 0.640625 -11.703125 L 0.640625 -13.09375 Z M 9.5 -13.09375 "/></g></g></g><g fill="#3daf36" fill-opacity="1"><g transform="translate(22.532427, 18.665866)"><g><path d="M 3.15625 -11.703125 L 3.15625 -7.328125 L 7.921875 -7.328125 L 7.921875 -5.921875 L 3.15625 -5.921875 L 3.15625 -1.40625 L 8.484375 -1.40625 L 8.484375 0 L 1.453125 0 L 1.453125 -13.109375 L 8.484375 -13.109375 L 8.484375 -11.703125 Z M 3.15625 -11.703125 "/></g></g></g><g fill="#3daf36" fill-opacity="1"><g transform="translate(43.081252, 18.665866)"><g><path d="M 0.8125 -6.546875 C 0.8125 -7.828125 1.097656 -8.976562 1.671875 -10 C 2.242188 -11.019531 3.023438 -11.816406 4.015625 -12.390625 C 5.015625 -12.972656 6.125 -13.265625 7.34375 -13.265625 C 8.769531 -13.265625 10.015625 -12.914062 11.078125 -12.21875 C 12.140625 -11.53125 12.914062 -10.554688 13.40625 -9.296875 L 11.359375 -9.296875 C 10.992188 -10.085938 10.46875 -10.691406 9.78125 -11.109375 C 9.101562 -11.535156 8.289062 -11.75 7.34375 -11.75 C 6.425781 -11.75 5.601562 -11.535156 4.875 -11.109375 C 4.15625 -10.691406 3.585938 -10.085938 3.171875 -9.296875 C 2.753906 -8.515625 2.546875 -7.597656 2.546875 -6.546875 C 2.546875 -5.515625 2.753906 -4.601562 3.171875 -3.8125 C 3.585938 -3.03125 4.15625 -2.425781 4.875 -2 C 5.601562 -1.582031 6.425781 -1.375 7.34375 -1.375 C 8.289062 -1.375 9.101562 -1.582031 9.78125 -2 C 10.46875 -2.414062 10.992188 -3.019531 11.359375 -3.8125 L 13.40625 -3.8125 C 12.914062 -2.5625 12.140625 -1.59375 11.078125 -0.90625 C 10.015625 -0.226562 8.769531 0.109375 7.34375 0.109375 C 6.125 0.109375 5.015625 -0.171875 4.015625 -0.734375 C 3.023438 -1.304688 2.242188 -2.097656 1.671875 -3.109375 C 1.097656 -4.128906 0.8125 -5.273438 0.8125 -6.546875 Z M 0.8125 -6.546875 "/></g></g></g><g fill="#3daf36" fill-opacity="1"><g transform="translate(68.49239, 18.665866)"><g><path d="M 11.53125 -13.09375 L 11.53125 0 L 9.828125 0 L 9.828125 -5.9375 L 3.15625 -5.9375 L 3.15625 0 L 1.453125 0 L 1.453125 -13.09375 L 3.15625 -13.09375 L 3.15625 -7.34375 L 9.828125 -7.34375 L 9.828125 -13.09375 Z M 11.53125 -13.09375 "/></g></g></g><g fill="#3daf36" fill-opacity="1"><g transform="translate(92.401659, 18.665866)"><g><path d="M 11.734375 0 L 10.03125 0 L 3.15625 -10.421875 L 3.15625 0 L 1.453125 0 L 1.453125 -13.109375 L 3.15625 -13.109375 L 10.03125 -2.703125 L 10.03125 -13.109375 L 11.734375 -13.109375 Z M 11.734375 0 "/></g></g></g><g fill="#3daf36" fill-opacity="1"><g transform="translate(116.517427, 18.665866)"><g><path d="M 7.375 0.125 C 6.164062 0.125 5.054688 -0.15625 4.046875 -0.71875 C 3.046875 -1.289062 2.253906 -2.085938 1.671875 -3.109375 C 1.097656 -4.128906 0.8125 -5.273438 0.8125 -6.546875 C 0.8125 -7.828125 1.097656 -8.976562 1.671875 -10 C 2.253906 -11.019531 3.046875 -11.8125 4.046875 -12.375 C 5.054688 -12.945312 6.164062 -13.234375 7.375 -13.234375 C 8.601562 -13.234375 9.71875 -12.945312 10.71875 -12.375 C 11.71875 -11.8125 12.503906 -11.019531 13.078125 -10 C 13.660156 -8.988281 13.953125 -7.835938 13.953125 -6.546875 C 13.953125 -5.265625 13.660156 -4.113281 13.078125 -3.09375 C 12.503906 -2.082031 11.71875 -1.289062 10.71875 -0.71875 C 9.71875 -0.15625 8.601562 0.125 7.375 0.125 Z M 7.375 -1.359375 C 8.289062 -1.359375 9.113281 -1.566406 9.84375 -1.984375 C 10.582031 -2.410156 11.160156 -3.019531 11.578125 -3.8125 C 11.992188 -4.601562 12.203125 -5.515625 12.203125 -6.546875 C 12.203125 -7.597656 11.992188 -8.515625 11.578125 -9.296875 C 11.160156 -10.085938 10.585938 -10.691406 9.859375 -11.109375 C 9.128906 -11.535156 8.300781 -11.75 7.375 -11.75 C 6.445312 -11.75 5.617188 -11.535156 4.890625 -11.109375 C 4.171875 -10.691406 3.597656 -10.085938 3.171875 -9.296875 C 2.753906 -8.515625 2.546875 -7.597656 2.546875 -6.546875 C 2.546875 -5.515625 2.753906 -4.601562 3.171875 -3.8125 C 3.597656 -3.019531 4.175781 -2.410156 4.90625 -1.984375 C 5.644531 -1.566406 6.46875 -1.359375 7.375 -1.359375 Z M 7.375 -1.359375 "/></g></g></g><g fill="#3daf36" fill-opacity="1"><g transform="translate(142.191398, 18.665866)"><g><path d="M 3.15625 -1.390625 L 7.734375 -1.390625 L 7.734375 0 L 1.453125 0 L 1.453125 -13.09375 L 3.15625 -13.09375 Z M 3.15625 -1.390625 "/></g></g></g><g fill="#3daf36" fill-opacity="1"><g transform="translate(161.219576, 18.665866)"><g><path d="M 7.375 0.125 C 6.164062 0.125 5.054688 -0.15625 4.046875 -0.71875 C 3.046875 -1.289062 2.253906 -2.085938 1.671875 -3.109375 C 1.097656 -4.128906 0.8125 -5.273438 0.8125 -6.546875 C 0.8125 -7.828125 1.097656 -8.976562 1.671875 -10 C 2.253906 -11.019531 3.046875 -11.8125 4.046875 -12.375 C 5.054688 -12.945312 6.164062 -13.234375 7.375 -13.234375 C 8.601562 -13.234375 9.71875 -12.945312 10.71875 -12.375 C 11.71875 -11.8125 12.503906 -11.019531 13.078125 -10 C 13.660156 -8.988281 13.953125 -7.835938 13.953125 -6.546875 C 13.953125 -5.265625 13.660156 -4.113281 13.078125 -3.09375 C 12.503906 -2.082031 11.71875 -1.289062 10.71875 -0.71875 C 9.71875 -0.15625 8.601562 0.125 7.375 0.125 Z M 7.375 -1.359375 C 8.289062 -1.359375 9.113281 -1.566406 9.84375 -1.984375 C 10.582031 -2.410156 11.160156 -3.019531 11.578125 -3.8125 C 11.992188 -4.601562 12.203125 -5.515625 12.203125 -6.546875 C 12.203125 -7.597656 11.992188 -8.515625 11.578125 -9.296875 C 11.160156 -10.085938 10.585938 -10.691406 9.859375 -11.109375 C 9.128906 -11.535156 8.300781 -11.75 7.375 -11.75 C 6.445312 -11.75 5.617188 -11.535156 4.890625 -11.109375 C 4.171875 -10.691406 3.597656 -10.085938 3.171875 -9.296875 C 2.753906 -8.515625 2.546875 -7.597656 2.546875 -6.546875 C 2.546875 -5.515625 2.753906 -4.601562 3.171875 -3.8125 C 3.597656 -3.019531 4.175781 -2.410156 4.90625 -1.984375 C 5.644531 -1.566406 6.46875 -1.359375 7.375 -1.359375 Z M 7.375 -1.359375 "/></g></g></g><g fill="#3daf36" fill-opacity="1"><g transform="translate(186.893547, 18.665866)"><g><path d="M 11.359375 -9.296875 C 10.992188 -10.054688 10.46875 -10.644531 9.78125 -11.0625 C 9.09375 -11.488281 8.289062 -11.703125 7.375 -11.703125 C 6.46875 -11.703125 5.644531 -11.488281 4.90625 -11.0625 C 4.175781 -10.644531 3.597656 -10.046875 3.171875 -9.265625 C 2.753906 -8.484375 2.546875 -7.578125 2.546875 -6.546875 C 2.546875 -5.523438 2.753906 -4.625 3.171875 -3.84375 C 3.597656 -3.070312 4.175781 -2.472656 4.90625 -2.046875 C 5.644531 -1.628906 6.46875 -1.421875 7.375 -1.421875 C 8.65625 -1.421875 9.707031 -1.800781 10.53125 -2.5625 C 11.363281 -3.332031 11.847656 -4.367188 11.984375 -5.671875 L 6.765625 -5.671875 L 6.765625 -7.0625 L 13.796875 -7.0625 L 13.796875 -5.75 C 13.703125 -4.664062 13.363281 -3.675781 12.78125 -2.78125 C 12.207031 -1.894531 11.453125 -1.191406 10.515625 -0.671875 C 9.578125 -0.148438 8.53125 0.109375 7.375 0.109375 C 6.164062 0.109375 5.054688 -0.171875 4.046875 -0.734375 C 3.046875 -1.304688 2.253906 -2.097656 1.671875 -3.109375 C 1.097656 -4.128906 0.8125 -5.273438 0.8125 -6.546875 C 0.8125 -7.828125 1.097656 -8.976562 1.671875 -10 C 2.253906 -11.019531 3.046875 -11.8125 4.046875 -12.375 C 5.054688 -12.945312 6.164062 -13.234375 7.375 -13.234375 C 8.769531 -13.234375 10 -12.890625 11.0625 -12.203125 C 12.132812 -11.515625 12.914062 -10.546875 13.40625 -9.296875 Z M 11.359375 -9.296875 "/></g></g></g><g fill="#3daf36" fill-opacity="1"><g transform="translate(212.417333, 18.665866)"><g><path d="M 3.15625 -13.09375 L 3.15625 0 L 1.453125 0 L 1.453125 -13.09375 Z M 3.15625 -13.09375 "/></g></g></g><g fill="#3daf36" fill-opacity="1"><g transform="translate(227.953641, 18.665866)"><g><path d="M 3.15625 -11.703125 L 3.15625 -7.328125 L 7.921875 -7.328125 L 7.921875 -5.921875 L 3.15625 -5.921875 L 3.15625 -1.40625 L 8.484375 -1.40625 L 8.484375 0 L 1.453125 0 L 1.453125 -13.109375 L 8.484375 -13.109375 L 8.484375 -11.703125 Z M 3.15625 -11.703125 "/></g></g></g><g fill="#3daf36" fill-opacity="1"><g transform="translate(248.502467, 18.665866)"><g><path d="M 5.59375 0.125 C 4.726562 0.125 3.953125 -0.0234375 3.265625 -0.328125 C 2.585938 -0.628906 2.054688 -1.050781 1.671875 -1.59375 C 1.285156 -2.144531 1.085938 -2.78125 1.078125 -3.5 L 2.890625 -3.5 C 2.953125 -2.882812 3.203125 -2.363281 3.640625 -1.9375 C 4.085938 -1.519531 4.738281 -1.3125 5.59375 -1.3125 C 6.40625 -1.3125 7.046875 -1.515625 7.515625 -1.921875 C 7.984375 -2.328125 8.21875 -2.851562 8.21875 -3.5 C 8.21875 -4 8.082031 -4.40625 7.8125 -4.71875 C 7.539062 -5.03125 7.195312 -5.265625 6.78125 -5.421875 C 6.363281 -5.585938 5.804688 -5.765625 5.109375 -5.953125 C 4.242188 -6.179688 3.550781 -6.40625 3.03125 -6.625 C 2.507812 -6.851562 2.0625 -7.207031 1.6875 -7.6875 C 1.320312 -8.164062 1.140625 -8.816406 1.140625 -9.640625 C 1.140625 -10.347656 1.320312 -10.976562 1.6875 -11.53125 C 2.050781 -12.082031 2.5625 -12.507812 3.21875 -12.8125 C 3.875 -13.113281 4.628906 -13.265625 5.484375 -13.265625 C 6.710938 -13.265625 7.71875 -12.957031 8.5 -12.34375 C 9.28125 -11.726562 9.722656 -10.910156 9.828125 -9.890625 L 7.9375 -9.890625 C 7.875 -10.398438 7.609375 -10.84375 7.140625 -11.21875 C 6.679688 -11.601562 6.070312 -11.796875 5.3125 -11.796875 C 4.601562 -11.796875 4.019531 -11.609375 3.5625 -11.234375 C 3.113281 -10.867188 2.890625 -10.351562 2.890625 -9.6875 C 2.890625 -9.21875 3.023438 -8.832031 3.296875 -8.53125 C 3.566406 -8.226562 3.898438 -8 4.296875 -7.84375 C 4.691406 -7.6875 5.242188 -7.507812 5.953125 -7.3125 C 6.816406 -7.070312 7.507812 -6.832031 8.03125 -6.59375 C 8.5625 -6.363281 9.015625 -6.007812 9.390625 -5.53125 C 9.765625 -5.050781 9.953125 -4.394531 9.953125 -3.5625 C 9.953125 -2.925781 9.78125 -2.328125 9.4375 -1.765625 C 9.101562 -1.203125 8.601562 -0.742188 7.9375 -0.390625 C 7.28125 -0.046875 6.5 0.125 5.59375 0.125 Z M 5.59375 0.125 "/></g></g></g></g></g></svg>