<svg xmlns="http://www.w3.org/2000/svg" xmlns:xlink="http://www.w3.org/1999/xlink" zoomAndPan="magnify" preserveAspectRatio="xMidYMid meet" version="1.0" viewBox="5.77 155.97 353.45 78.11"><defs><g/><clipPath id="7eb691bbf2"><path d="M 0.28125 24 L 52 24 L 52 74 L 0.28125 74 Z M 0.28125 24 " clip-rule="nonzero"/></clipPath><clipPath id="04b0e1f408"><rect x="0" width="265" y="0" height="98"/></clipPath><clipPath id="cd6522557a"><rect x="0" width="280" y="0" height="29"/></clipPath><clipPath id="8259a4cb0f"><path d="M 13.1875 163.210938 L 77.089844 163.210938 L 77.089844 227.113281 L 13.1875 227.113281 Z M 13.1875 163.210938 " clip-rule="nonzero"/></clipPath><clipPath id="288fa71b50"><path d="M 45.140625 163.210938 C 27.492188 163.210938 13.1875 177.515625 13.1875 195.164062 C 13.1875 212.808594 27.492188 227.113281 45.140625 227.113281 C 62.785156 227.113281 77.089844 212.808594 77.089844 195.164062 C 77.089844 177.515625 62.785156 163.210938 45.140625 163.210938 Z M 45.140625 163.210938 " clip-rule="nonzero"/></clipPath><clipPath id="7713531d15"><path d="M 0.1875 0.210938 L 64.089844 0.210938 L 64.089844 64.113281 L 0.1875 64.113281 Z M 0.1875 0.210938 " clip-rule="nonzero"/></clipPath><clipPath id="fbd1664e12"><path d="M 32.140625 0.210938 C 14.492188 0.210938 0.1875 14.515625 0.1875 32.164062 C 0.1875 49.808594 14.492188 64.113281 32.140625 64.113281 C 49.785156 64.113281 64.089844 49.808594 64.089844 32.164062 C 64.089844 14.515625 49.785156 0.210938 32.140625 0.210938 Z M 32.140625 0.210938 " clip-rule="nonzero"/></clipPath><clipPath id="2a88dd40dc"><rect x="0" width="65" y="0" height="65"/></clipPath><clipPath id="71630ed339"><path d="M 5.765625 164 L 22 164 L 22 194 L 5.765625 194 Z M 5.765625 164 " clip-rule="nonzero"/></clipPath><clipPath id="96bce0c789"><path d="M 26 156.230469 L 43 156.230469 L 43 162 L 26 162 Z M 26 156.230469 " clip-rule="nonzero"/></clipPath><clipPath id="8ad684144f"><path d="M 44 230 L 58 230 L 58 234.230469 L 44 234.230469 Z M 44 230 " clip-rule="nonzero"/></clipPath><clipPath id="88c3a0d653"><path d="M 29.464844 179.488281 L 60.964844 179.488281 L 60.964844 210.988281 L 29.464844 210.988281 Z M 29.464844 179.488281 " clip-rule="nonzero"/></clipPath></defs><g transform="matrix(1, 0, 0, 1, 95, 132)"><g clip-path="url(#04b0e1f408)"><g clip-path="url(#7eb691bbf2)"><g fill="#0e2944" fill-opacity="1"><g transform="translate(0.380548, 73.111864)"><g><path d="M 34.453125 -7.890625 L 17.296875 -7.890625 L 14.6875 0 L 0.546875 0 L 18.1875 -48.375 L 33.6875 -48.375 L 51.265625 0 L 37.0625 0 Z M 31.09375 -18.1875 L 25.875 -33.828125 L 20.71875 -18.1875 Z M 31.09375 -18.1875 "/></g></g></g></g><g fill="#0e2944" fill-opacity="1"><g transform="translate(52.191881, 73.111864)"><g><path d="M 17.296875 -10.296875 L 32.328125 -10.296875 L 32.328125 0 L 3.84375 0 L 3.84375 -48.375 L 17.296875 -48.375 Z M 17.296875 -10.296875 "/></g></g></g><g fill="#0e2944" fill-opacity="1"><g transform="translate(85.886397, 73.111864)"><g><path d="M 32.453125 0 L 17.296875 -21.203125 L 17.296875 0 L 3.84375 0 L 3.84375 -48.375 L 17.296875 -48.375 L 17.296875 -27.515625 L 32.328125 -48.375 L 47.828125 -48.375 L 30.0625 -24.90625 L 48.71875 0 Z M 32.453125 0 "/></g></g></g><g fill="#0e2944" fill-opacity="1"><g transform="translate(135.707627, 73.111864)"><g><path d="M 17.296875 -48.375 L 17.296875 0 L 3.84375 0 L 3.84375 -48.375 Z M 17.296875 -48.375 "/></g></g></g><g fill="#0e2944" fill-opacity="1"><g transform="translate(156.843906, 73.111864)"><g><path d="M 27.03125 0.484375 C 22.507812 0.484375 18.347656 -0.578125 14.546875 -2.703125 C 10.753906 -4.835938 7.75 -7.789062 5.53125 -11.5625 C 3.3125 -15.332031 2.203125 -19.597656 2.203125 -24.359375 C 2.203125 -29.117188 3.3125 -33.382812 5.53125 -37.15625 C 7.75 -40.9375 10.753906 -43.878906 14.546875 -45.984375 C 18.347656 -48.085938 22.507812 -49.140625 27.03125 -49.140625 C 31.613281 -49.140625 35.789062 -48.085938 39.5625 -45.984375 C 43.332031 -43.878906 46.316406 -40.9375 48.515625 -37.15625 C 50.710938 -33.382812 51.8125 -29.117188 51.8125 -24.359375 C 51.8125 -19.597656 50.710938 -15.332031 48.515625 -11.5625 C 46.316406 -7.789062 43.316406 -4.835938 39.515625 -2.703125 C 35.722656 -0.578125 31.5625 0.484375 27.03125 0.484375 Z M 27.03125 -12.015625 C 30.46875 -12.015625 33.179688 -13.132812 35.171875 -15.375 C 37.160156 -17.613281 38.15625 -20.609375 38.15625 -24.359375 C 38.15625 -28.203125 37.160156 -31.234375 35.171875 -33.453125 C 33.179688 -35.671875 30.46875 -36.78125 27.03125 -36.78125 C 23.5625 -36.78125 20.84375 -35.671875 18.875 -33.453125 C 16.90625 -31.234375 15.921875 -28.203125 15.921875 -24.359375 C 15.921875 -20.566406 16.90625 -17.5625 18.875 -15.34375 C 20.84375 -13.125 23.5625 -12.015625 27.03125 -12.015625 Z M 27.03125 -12.015625 "/></g></g></g><g fill="#0e2944" fill-opacity="1"><g transform="translate(210.851209, 73.111864)"><g><path d="M 48.65625 0 L 35.203125 0 L 17.296875 -27.03125 L 17.296875 0 L 3.84375 0 L 3.84375 -48.375 L 17.296875 -48.375 L 35.203125 -21 L 35.203125 -48.375 L 48.65625 -48.375 Z M 48.65625 0 "/></g></g></g></g></g><g transform="matrix(1, 0, 0, 1, 92, 208)"><g clip-path="url(#cd6522557a)"><g fill="#3daf36" fill-opacity="1"><g transform="translate(1.397405, 21.191212)"><g><path d="M 9.828125 -13.53125 L 9.828125 -12.09375 L 6.140625 -12.09375 L 6.140625 0 L 4.375 0 L 4.375 -12.09375 L 0.65625 -12.09375 L 0.65625 -13.53125 Z M 9.828125 -13.53125 "/></g></g></g><g fill="#3daf36" fill-opacity="1"><g transform="translate(23.195086, 21.191212)"><g><path d="M 3.265625 -12.09375 L 3.265625 -7.578125 L 8.203125 -7.578125 L 8.203125 -6.125 L 3.265625 -6.125 L 3.265625 -1.453125 L 8.78125 -1.453125 L 8.78125 0 L 1.5 0 L 1.5 -13.5625 L 8.78125 -13.5625 L 8.78125 -12.09375 Z M 3.265625 -12.09375 "/></g></g></g><g fill="#3daf36" fill-opacity="1"><g transform="translate(44.449064, 21.191212)"><g><path d="M 0.828125 -6.78125 C 0.828125 -8.101562 1.125 -9.289062 1.71875 -10.34375 C 2.320312 -11.394531 3.132812 -12.21875 4.15625 -12.8125 C 5.1875 -13.414062 6.332031 -13.71875 7.59375 -13.71875 C 9.070312 -13.71875 10.359375 -13.359375 11.453125 -12.640625 C 12.554688 -11.929688 13.359375 -10.921875 13.859375 -9.609375 L 11.75 -9.609375 C 11.375 -10.429688 10.832031 -11.0625 10.125 -11.5 C 9.414062 -11.9375 8.570312 -12.15625 7.59375 -12.15625 C 6.644531 -12.15625 5.796875 -11.9375 5.046875 -11.5 C 4.296875 -11.0625 3.707031 -10.4375 3.28125 -9.625 C 2.851562 -8.8125 2.640625 -7.863281 2.640625 -6.78125 C 2.640625 -5.707031 2.851562 -4.765625 3.28125 -3.953125 C 3.707031 -3.140625 4.296875 -2.515625 5.046875 -2.078125 C 5.796875 -1.640625 6.644531 -1.421875 7.59375 -1.421875 C 8.570312 -1.421875 9.414062 -1.632812 10.125 -2.0625 C 10.832031 -2.5 11.375 -3.125 11.75 -3.9375 L 13.859375 -3.9375 C 13.359375 -2.644531 12.554688 -1.644531 11.453125 -0.9375 C 10.359375 -0.238281 9.070312 0.109375 7.59375 0.109375 C 6.332031 0.109375 5.1875 -0.179688 4.15625 -0.765625 C 3.132812 -1.359375 2.320312 -2.175781 1.71875 -3.21875 C 1.125 -4.269531 0.828125 -5.457031 0.828125 -6.78125 Z M 0.828125 -6.78125 "/></g></g></g><g fill="#3daf36" fill-opacity="1"><g transform="translate(70.732371, 21.191212)"><g><path d="M 11.921875 -13.53125 L 11.921875 0 L 10.15625 0 L 10.15625 -6.140625 L 3.265625 -6.140625 L 3.265625 0 L 1.5 0 L 1.5 -13.53125 L 3.265625 -13.53125 L 3.265625 -7.59375 L 10.15625 -7.59375 L 10.15625 -13.53125 Z M 11.921875 -13.53125 "/></g></g></g><g fill="#3daf36" fill-opacity="1"><g transform="translate(95.462222, 21.191212)"><g><path d="M 12.140625 0 L 10.375 0 L 3.265625 -10.78125 L 3.265625 0 L 1.5 0 L 1.5 -13.5625 L 3.265625 -13.5625 L 10.375 -2.796875 L 10.375 -13.5625 L 12.140625 -13.5625 Z M 12.140625 0 "/></g></g></g><g fill="#3daf36" fill-opacity="1"><g transform="translate(120.40567, 21.191212)"><g><path d="M 7.625 0.140625 C 6.375 0.140625 5.226562 -0.148438 4.1875 -0.734375 C 3.15625 -1.328125 2.335938 -2.148438 1.734375 -3.203125 C 1.128906 -4.265625 0.828125 -5.457031 0.828125 -6.78125 C 0.828125 -8.101562 1.128906 -9.289062 1.734375 -10.34375 C 2.335938 -11.394531 3.15625 -12.210938 4.1875 -12.796875 C 5.226562 -13.390625 6.375 -13.6875 7.625 -13.6875 C 8.894531 -13.6875 10.046875 -13.390625 11.078125 -12.796875 C 12.117188 -12.210938 12.9375 -11.394531 13.53125 -10.34375 C 14.132812 -9.300781 14.4375 -8.113281 14.4375 -6.78125 C 14.4375 -5.445312 14.132812 -4.253906 13.53125 -3.203125 C 12.9375 -2.148438 12.117188 -1.328125 11.078125 -0.734375 C 10.046875 -0.148438 8.894531 0.140625 7.625 0.140625 Z M 7.625 -1.390625 C 8.570312 -1.390625 9.425781 -1.609375 10.1875 -2.046875 C 10.945312 -2.492188 11.539062 -3.125 11.96875 -3.9375 C 12.40625 -4.757812 12.625 -5.707031 12.625 -6.78125 C 12.625 -7.863281 12.40625 -8.8125 11.96875 -9.625 C 11.539062 -10.4375 10.945312 -11.0625 10.1875 -11.5 C 9.4375 -11.9375 8.582031 -12.15625 7.625 -12.15625 C 6.675781 -12.15625 5.820312 -11.9375 5.0625 -11.5 C 4.3125 -11.0625 3.71875 -10.4375 3.28125 -9.625 C 2.851562 -8.8125 2.640625 -7.863281 2.640625 -6.78125 C 2.640625 -5.707031 2.851562 -4.757812 3.28125 -3.9375 C 3.71875 -3.125 4.316406 -2.492188 5.078125 -2.046875 C 5.835938 -1.609375 6.6875 -1.390625 7.625 -1.390625 Z M 7.625 -1.390625 "/></g></g></g><g fill="#3daf36" fill-opacity="1"><g transform="translate(146.960836, 21.191212)"><g><path d="M 3.265625 -1.4375 L 8 -1.4375 L 8 0 L 1.5 0 L 1.5 -13.53125 L 3.265625 -13.53125 Z M 3.265625 -1.4375 "/></g></g></g><g fill="#3daf36" fill-opacity="1"><g transform="translate(166.641937, 21.191212)"><g><path d="M 7.625 0.140625 C 6.375 0.140625 5.226562 -0.148438 4.1875 -0.734375 C 3.15625 -1.328125 2.335938 -2.148438 1.734375 -3.203125 C 1.128906 -4.265625 0.828125 -5.457031 0.828125 -6.78125 C 0.828125 -8.101562 1.128906 -9.289062 1.734375 -10.34375 C 2.335938 -11.394531 3.15625 -12.210938 4.1875 -12.796875 C 5.226562 -13.390625 6.375 -13.6875 7.625 -13.6875 C 8.894531 -13.6875 10.046875 -13.390625 11.078125 -12.796875 C 12.117188 -12.210938 12.9375 -11.394531 13.53125 -10.34375 C 14.132812 -9.300781 14.4375 -8.113281 14.4375 -6.78125 C 14.4375 -5.445312 14.132812 -4.253906 13.53125 -3.203125 C 12.9375 -2.148438 12.117188 -1.328125 11.078125 -0.734375 C 10.046875 -0.148438 8.894531 0.140625 7.625 0.140625 Z M 7.625 -1.390625 C 8.570312 -1.390625 9.425781 -1.609375 10.1875 -2.046875 C 10.945312 -2.492188 11.539062 -3.125 11.96875 -3.9375 C 12.40625 -4.757812 12.625 -5.707031 12.625 -6.78125 C 12.625 -7.863281 12.40625 -8.8125 11.96875 -9.625 C 11.539062 -10.4375 10.945312 -11.0625 10.1875 -11.5 C 9.4375 -11.9375 8.582031 -12.15625 7.625 -12.15625 C 6.675781 -12.15625 5.820312 -11.9375 5.0625 -11.5 C 4.3125 -11.0625 3.71875 -10.4375 3.28125 -9.625 C 2.851562 -8.8125 2.640625 -7.863281 2.640625 -6.78125 C 2.640625 -5.707031 2.851562 -4.757812 3.28125 -3.9375 C 3.71875 -3.125 4.316406 -2.492188 5.078125 -2.046875 C 5.835938 -1.609375 6.6875 -1.390625 7.625 -1.390625 Z M 7.625 -1.390625 "/></g></g></g><g fill="#3daf36" fill-opacity="1"><g transform="translate(193.197103, 21.191212)"><g><path d="M 11.75 -9.609375 C 11.375 -10.398438 10.828125 -11.007812 10.109375 -11.4375 C 9.398438 -11.875 8.570312 -12.09375 7.625 -12.09375 C 6.6875 -12.09375 5.835938 -11.875 5.078125 -11.4375 C 4.316406 -11.007812 3.71875 -10.390625 3.28125 -9.578125 C 2.851562 -8.773438 2.640625 -7.84375 2.640625 -6.78125 C 2.640625 -5.71875 2.851562 -4.785156 3.28125 -3.984375 C 3.71875 -3.179688 4.316406 -2.5625 5.078125 -2.125 C 5.835938 -1.6875 6.6875 -1.46875 7.625 -1.46875 C 8.945312 -1.46875 10.035156 -1.863281 10.890625 -2.65625 C 11.742188 -3.445312 12.242188 -4.515625 12.390625 -5.859375 L 6.984375 -5.859375 L 6.984375 -7.296875 L 14.28125 -7.296875 L 14.28125 -5.9375 C 14.175781 -4.820312 13.820312 -3.800781 13.21875 -2.875 C 12.625 -1.957031 11.84375 -1.226562 10.875 -0.6875 C 9.90625 -0.15625 8.820312 0.109375 7.625 0.109375 C 6.375 0.109375 5.226562 -0.179688 4.1875 -0.765625 C 3.15625 -1.359375 2.335938 -2.175781 1.734375 -3.21875 C 1.128906 -4.269531 0.828125 -5.457031 0.828125 -6.78125 C 0.828125 -8.101562 1.128906 -9.289062 1.734375 -10.34375 C 2.335938 -11.394531 3.15625 -12.210938 4.1875 -12.796875 C 5.226562 -13.390625 6.375 -13.6875 7.625 -13.6875 C 9.0625 -13.6875 10.332031 -13.332031 11.4375 -12.625 C 12.550781 -11.914062 13.359375 -10.910156 13.859375 -9.609375 Z M 11.75 -9.609375 "/></g></g></g><g fill="#3daf36" fill-opacity="1"><g transform="translate(219.596919, 21.191212)"><g><path d="M 3.265625 -13.53125 L 3.265625 0 L 1.5 0 L 1.5 -13.53125 Z M 3.265625 -13.53125 "/></g></g></g><g fill="#3daf36" fill-opacity="1"><g transform="translate(235.666217, 21.191212)"><g><path d="M 3.265625 -12.09375 L 3.265625 -7.578125 L 8.203125 -7.578125 L 8.203125 -6.125 L 3.265625 -6.125 L 3.265625 -1.453125 L 8.78125 -1.453125 L 8.78125 0 L 1.5 0 L 1.5 -13.5625 L 8.78125 -13.5625 L 8.78125 -12.09375 Z M 3.265625 -12.09375 "/></g></g></g><g fill="#3daf36" fill-opacity="1"><g transform="translate(256.920208, 21.191212)"><g><path d="M 5.78125 0.140625 C 4.894531 0.140625 4.097656 -0.015625 3.390625 -0.328125 C 2.679688 -0.648438 2.125 -1.09375 1.71875 -1.65625 C 1.320312 -2.21875 1.117188 -2.867188 1.109375 -3.609375 L 2.984375 -3.609375 C 3.054688 -2.972656 3.320312 -2.4375 3.78125 -2 C 4.238281 -1.570312 4.90625 -1.359375 5.78125 -1.359375 C 6.625 -1.359375 7.285156 -1.566406 7.765625 -1.984375 C 8.253906 -2.410156 8.5 -2.953125 8.5 -3.609375 C 8.5 -4.128906 8.359375 -4.550781 8.078125 -4.875 C 7.796875 -5.195312 7.441406 -5.441406 7.015625 -5.609375 C 6.585938 -5.773438 6.007812 -5.957031 5.28125 -6.15625 C 4.382812 -6.382812 3.664062 -6.613281 3.125 -6.84375 C 2.59375 -7.082031 2.132812 -7.453125 1.75 -7.953125 C 1.375 -8.453125 1.1875 -9.125 1.1875 -9.96875 C 1.1875 -10.707031 1.375 -11.359375 1.75 -11.921875 C 2.125 -12.492188 2.648438 -12.9375 3.328125 -13.25 C 4.003906 -13.5625 4.785156 -13.71875 5.671875 -13.71875 C 6.941406 -13.71875 7.976562 -13.398438 8.78125 -12.765625 C 9.59375 -12.128906 10.050781 -11.285156 10.15625 -10.234375 L 8.21875 -10.234375 C 8.15625 -10.753906 7.882812 -11.210938 7.40625 -11.609375 C 6.925781 -12.003906 6.289062 -12.203125 5.5 -12.203125 C 4.757812 -12.203125 4.15625 -12.007812 3.6875 -11.625 C 3.21875 -11.238281 2.984375 -10.703125 2.984375 -10.015625 C 2.984375 -9.523438 3.125 -9.125 3.40625 -8.8125 C 3.6875 -8.5 4.03125 -8.257812 4.4375 -8.09375 C 4.84375 -7.9375 5.414062 -7.757812 6.15625 -7.5625 C 7.050781 -7.3125 7.769531 -7.066406 8.3125 -6.828125 C 8.851562 -6.585938 9.316406 -6.21875 9.703125 -5.71875 C 10.097656 -5.21875 10.296875 -4.539062 10.296875 -3.6875 C 10.296875 -3.03125 10.117188 -2.410156 9.765625 -1.828125 C 9.421875 -1.242188 8.90625 -0.769531 8.21875 -0.40625 C 7.53125 -0.0390625 6.71875 0.140625 5.78125 0.140625 Z M 5.78125 0.140625 "/></g></g></g></g></g><g clip-path="url(#8259a4cb0f)"><g clip-path="url(#288fa71b50)"><g transform="matrix(1, 0, 0, 1, 13, 163)"><g clip-path="url(#2a88dd40dc)"><g clip-path="url(#7713531d15)"><g clip-path="url(#fbd1664e12)"><path fill="#0e2944" d="M 0.1875 0.210938 L 64.089844 0.210938 L 64.089844 64.113281 L 0.1875 64.113281 Z M 0.1875 0.210938 " fill-opacity="1" fill-rule="nonzero"/></g></g></g></g></g></g><path fill="#3daf36" d="M 44.976562 231.121094 C 40.113281 231.121094 35.390625 230.167969 30.949219 228.289062 C 26.65625 226.472656 22.800781 223.875 19.492188 220.5625 C 16.179688 217.253906 13.582031 213.398438 11.765625 209.105469 C 9.886719 204.664062 8.933594 199.941406 8.933594 195.078125 C 8.933594 190.210938 9.886719 185.492188 11.765625 181.046875 C 13.582031 176.753906 16.179688 172.898438 19.492188 169.589844 C 22.800781 166.277344 26.65625 163.679688 30.949219 161.863281 C 35.390625 159.984375 40.113281 159.03125 44.976562 159.03125 C 49.84375 159.03125 54.5625 159.984375 59.007812 161.863281 C 63.300781 163.679688 67.15625 166.277344 70.464844 169.589844 C 73.777344 172.898438 76.375 176.753906 78.191406 181.046875 C 80.070312 185.492188 81.023438 190.210938 81.023438 195.078125 C 81.023438 199.941406 80.070312 204.664062 78.191406 209.105469 C 76.375 213.398438 73.777344 217.253906 70.464844 220.5625 C 67.15625 223.875 63.300781 226.472656 59.007812 228.289062 C 54.566406 230.167969 49.84375 231.121094 44.976562 231.121094 Z M 44.976562 160.644531 C 25.992188 160.644531 10.546875 176.089844 10.546875 195.078125 C 10.546875 214.0625 25.992188 229.507812 44.976562 229.507812 C 63.964844 229.507812 79.410156 214.0625 79.410156 195.078125 C 79.410156 176.089844 63.964844 160.644531 44.976562 160.644531 Z M 44.976562 160.644531 " fill-opacity="1" fill-rule="nonzero"/><g clip-path="url(#71630ed339)"><path fill="#0e2944" d="M 7.378906 193.992188 L 5.765625 193.964844 C 5.859375 188.089844 7.347656 182.234375 10.066406 177.039062 C 12.6875 172.03125 16.46875 167.601562 21.011719 164.226562 L 21.972656 165.519531 C 17.625 168.753906 14.003906 172.992188 11.496094 177.785156 C 8.894531 182.761719 7.46875 188.367188 7.378906 193.992188 Z M 7.378906 193.992188 " fill-opacity="1" fill-rule="nonzero"/></g><path fill="#0e2944" d="M 22.28125 226.570312 C 20.574219 225.4375 18.953125 224.152344 17.460938 222.746094 C 15.375 220.78125 13.523438 218.570312 11.960938 216.179688 C 8.957031 211.582031 7.007812 206.253906 6.324219 200.777344 L 7.925781 200.578125 C 8.578125 205.8125 10.441406 210.90625 13.3125 215.296875 C 15.898438 219.257812 19.214844 222.597656 23.171875 225.226562 Z M 22.28125 226.570312 " fill-opacity="1" fill-rule="nonzero"/><g clip-path="url(#96bce0c789)"><path fill="#0e2944" d="M 27.449219 161.796875 L 26.65625 160.394531 C 29.046875 159.039062 31.605469 157.996094 34.261719 157.296875 C 36.808594 156.625 39.441406 156.269531 42.078125 156.238281 L 42.09375 157.851562 C 39.589844 157.878906 37.09375 158.214844 34.671875 158.855469 C 32.148438 159.519531 29.71875 160.511719 27.449219 161.796875 Z M 27.449219 161.796875 " fill-opacity="1" fill-rule="nonzero"/></g><path fill="#0e2944" d="M 60.253906 231.351562 L 59.613281 229.917969 C 63.136719 228.339844 75.023438 222.085938 80.113281 207.914062 C 84.503906 195.6875 81.210938 184.886719 79.589844 180.8125 L 81.050781 180.234375 C 82.292969 183.351562 83.167969 186.847656 83.589844 190.34375 C 84.339844 196.578125 83.664062 202.667969 81.589844 208.445312 C 80.304688 212.027344 78.503906 215.394531 76.234375 218.445312 C 74.371094 220.953125 72.183594 223.269531 69.726562 225.335938 C 66.820312 227.78125 63.457031 229.917969 60.253906 231.351562 Z M 60.253906 231.351562 " fill-opacity="1" fill-rule="nonzero"/><g clip-path="url(#8ad684144f)"><path fill="#0e2944" d="M 47.304688 234.078125 C 46.21875 234.078125 45.132812 234.015625 44.054688 233.886719 L 44.238281 232.328125 C 46.273438 232.566406 48.335938 232.566406 50.367188 232.328125 C 52.507812 232.074219 54.617188 231.558594 56.632812 230.792969 L 57.191406 232.261719 C 55.054688 233.074219 52.820312 233.621094 50.550781 233.886719 C 49.472656 234.015625 48.390625 234.078125 47.304688 234.078125 Z M 47.304688 234.078125 " fill-opacity="1" fill-rule="nonzero"/></g><path fill="#0e2944" d="M 72.367188 169.902344 C 70.691406 167.851562 68.757812 166.023438 66.621094 164.464844 C 64.382812 162.828125 61.9375 161.496094 59.34375 160.503906 L 59.90625 159.039062 C 62.625 160.078125 65.199219 161.476562 67.550781 163.195312 C 69.792969 164.832031 71.824219 166.753906 73.585938 168.90625 Z M 72.367188 169.902344 " fill-opacity="1" fill-rule="nonzero"/><g clip-path="url(#88c3a0d653)"><path fill="#3daf36" d="M 58.339844 192.6875 L 47.613281 192.6875 L 47.613281 181.960938 C 47.613281 180.609375 46.523438 179.488281 45.140625 179.488281 C 43.785156 179.488281 42.664062 180.578125 42.664062 181.960938 L 42.664062 192.6875 L 31.9375 192.6875 C 30.585938 192.6875 29.464844 193.777344 29.464844 195.160156 C 29.464844 195.855469 29.730469 196.449219 30.191406 196.914062 C 30.652344 197.371094 31.246094 197.636719 31.9375 197.636719 L 42.664062 197.636719 L 42.664062 208.363281 C 42.664062 209.054688 42.929688 209.648438 43.390625 210.109375 C 43.851562 210.570312 44.445312 210.835938 45.140625 210.835938 C 46.492188 210.835938 47.613281 209.746094 47.613281 208.363281 L 47.613281 197.636719 L 58.339844 197.636719 C 59.691406 197.636719 60.8125 196.546875 60.8125 195.160156 C 60.8125 193.808594 59.726562 192.6875 58.339844 192.6875 " fill-opacity="1" fill-rule="nonzero"/></g></svg>