<svg xmlns="http://www.w3.org/2000/svg" xmlns:xlink="http://www.w3.org/1999/xlink" zoomAndPan="magnify" preserveAspectRatio="xMidYMid meet" version="1.0" viewBox="36.94 62.8 300.58 244"><defs><g/><clipPath id="e0a21f8551"><rect x="0" width="300" y="0" height="110"/></clipPath><clipPath id="a06c1863db"><rect x="0" width="317" y="0" height="32"/></clipPath><clipPath id="4eae14cee6"><path d="M 125.199219 76.40625 L 249.800781 76.40625 L 249.800781 201.011719 L 125.199219 201.011719 Z M 125.199219 76.40625 " clip-rule="nonzero"/></clipPath><clipPath id="6a047961fc"><path d="M 187.5 76.40625 C 153.089844 76.40625 125.199219 104.300781 125.199219 138.707031 C 125.199219 173.117188 153.089844 201.011719 187.5 201.011719 C 221.910156 201.011719 249.800781 173.117188 249.800781 138.707031 C 249.800781 104.300781 221.910156 76.40625 187.5 76.40625 Z M 187.5 76.40625 " clip-rule="nonzero"/></clipPath><clipPath id="ca7da56f35"><path d="M 0.199219 0.40625 L 124.800781 0.40625 L 124.800781 125.011719 L 0.199219 125.011719 Z M 0.199219 0.40625 " clip-rule="nonzero"/></clipPath><clipPath id="b8a18977e8"><path d="M 62.5 0.40625 C 28.089844 0.40625 0.199219 28.300781 0.199219 62.707031 C 0.199219 97.117188 28.089844 125.011719 62.5 125.011719 C 96.910156 125.011719 124.800781 97.117188 124.800781 62.707031 C 124.800781 28.300781 96.910156 0.40625 62.5 0.40625 Z M 62.5 0.40625 " clip-rule="nonzero"/></clipPath><clipPath id="d7339b9dce"><rect x="0" width="125" y="0" height="126"/></clipPath><clipPath id="bc198adc12"><path d="M 110.722656 78 L 143 78 L 143 137 L 110.722656 137 Z M 110.722656 78 " clip-rule="nonzero"/></clipPath><clipPath id="ef2c24c4c1"><path d="M 151 62.796875 L 182 62.796875 L 182 74 L 151 74 Z M 151 62.796875 " clip-rule="nonzero"/></clipPath><clipPath id="d9607c81a8"><path d="M 185 208 L 212 208 L 212 214.296875 L 185 214.296875 Z M 185 208 " clip-rule="nonzero"/></clipPath><clipPath id="62aa88fb00"><path d="M 156.9375 108.144531 L 218.4375 108.144531 L 218.4375 169.644531 L 156.9375 169.644531 Z M 156.9375 108.144531 " clip-rule="nonzero"/></clipPath></defs><g transform="matrix(1, 0, 0, 1, 38, 197)"><g clip-path="url(#e0a21f8551)"><g fill="#0e2944" fill-opacity="1"><g transform="translate(0.437969, 82.349271)"><g><path d="M 39.046875 -8.953125 L 19.609375 -8.953125 L 16.65625 0 L 0.625 0 L 20.609375 -54.84375 L 38.203125 -54.84375 L 58.109375 0 L 42.015625 0 Z M 35.234375 -20.609375 L 29.328125 -38.359375 L 23.5 -20.609375 Z M 35.234375 -20.609375 "/></g></g></g><g fill="#0e2944" fill-opacity="1"><g transform="translate(59.171311, 82.349271)"><g><path d="M 19.609375 -11.671875 L 36.640625 -11.671875 L 36.640625 0 L 4.359375 0 L 4.359375 -54.84375 L 19.609375 -54.84375 Z M 19.609375 -11.671875 "/></g></g></g><g fill="#0e2944" fill-opacity="1"><g transform="translate(97.367422, 82.349271)"><g><path d="M 36.796875 0 L 19.609375 -24.046875 L 19.609375 0 L 4.359375 0 L 4.359375 -54.84375 L 19.609375 -54.84375 L 19.609375 -31.203125 L 36.640625 -54.84375 L 54.21875 -54.84375 L 34.078125 -28.234375 L 55.234375 0 Z M 36.796875 0 "/></g></g></g><g fill="#0e2944" fill-opacity="1"><g transform="translate(153.844781, 82.349271)"><g><path d="M 19.609375 -54.84375 L 19.609375 0 L 4.359375 0 L 4.359375 -54.84375 Z M 19.609375 -54.84375 "/></g></g></g><g fill="#0e2944" fill-opacity="1"><g transform="translate(177.804872, 82.349271)"><g><path d="M 30.65625 0.546875 C 25.519531 0.546875 20.796875 -0.65625 16.484375 -3.0625 C 12.179688 -5.476562 8.769531 -8.828125 6.25 -13.109375 C 3.738281 -17.390625 2.484375 -22.226562 2.484375 -27.625 C 2.484375 -33.007812 3.738281 -37.84375 6.25 -42.125 C 8.769531 -46.40625 12.179688 -49.738281 16.484375 -52.125 C 20.796875 -54.507812 25.519531 -55.703125 30.65625 -55.703125 C 35.84375 -55.703125 40.570312 -54.507812 44.84375 -52.125 C 49.125 -49.738281 52.507812 -46.40625 55 -42.125 C 57.488281 -37.84375 58.734375 -33.007812 58.734375 -27.625 C 58.734375 -22.226562 57.488281 -17.390625 55 -13.109375 C 52.507812 -8.828125 49.113281 -5.476562 44.8125 -3.0625 C 40.507812 -0.65625 35.789062 0.546875 30.65625 0.546875 Z M 30.65625 -13.609375 C 34.539062 -13.609375 37.609375 -14.878906 39.859375 -17.421875 C 42.117188 -19.960938 43.25 -23.363281 43.25 -27.625 C 43.25 -31.976562 42.117188 -35.410156 39.859375 -37.921875 C 37.609375 -40.441406 34.539062 -41.703125 30.65625 -41.703125 C 26.707031 -41.703125 23.617188 -40.441406 21.390625 -37.921875 C 19.160156 -35.410156 18.046875 -31.976562 18.046875 -27.625 C 18.046875 -23.3125 19.160156 -19.894531 21.390625 -17.375 C 23.617188 -14.863281 26.707031 -13.609375 30.65625 -13.609375 Z M 30.65625 -13.609375 "/></g></g></g><g fill="#0e2944" fill-opacity="1"><g transform="translate(239.027565, 82.349271)"><g><path d="M 55.15625 0 L 39.90625 0 L 19.609375 -30.65625 L 19.609375 0 L 4.359375 0 L 4.359375 -54.84375 L 19.609375 -54.84375 L 39.90625 -23.8125 L 39.90625 -54.84375 L 55.15625 -54.84375 Z M 55.15625 0 "/></g></g></g></g></g><g transform="matrix(1, 0, 0, 1, 35, 283)"><g clip-path="url(#a06c1863db)"><g fill="#3daf36" fill-opacity="1"><g transform="translate(1.189875, 23.645603)"><g><path d="M 11.140625 -15.359375 L 11.140625 -13.71875 L 6.96875 -13.71875 L 6.96875 0 L 4.953125 0 L 4.953125 -13.71875 L 0.75 -13.71875 L 0.75 -15.359375 Z M 11.140625 -15.359375 "/></g></g></g><g fill="#3daf36" fill-opacity="1"><g transform="translate(25.899733, 23.645603)"><g><path d="M 3.703125 -13.71875 L 3.703125 -8.59375 L 9.296875 -8.59375 L 9.296875 -6.9375 L 3.703125 -6.9375 L 3.703125 -1.65625 L 9.953125 -1.65625 L 9.953125 0 L 1.703125 0 L 1.703125 -15.375 L 9.953125 -15.375 L 9.953125 -13.71875 Z M 3.703125 -13.71875 "/></g></g></g><g fill="#3daf36" fill-opacity="1"><g transform="translate(49.993248, 23.645603)"><g><path d="M 0.953125 -7.6875 C 0.953125 -9.1875 1.285156 -10.535156 1.953125 -11.734375 C 2.628906 -12.929688 3.550781 -13.863281 4.71875 -14.53125 C 5.894531 -15.207031 7.191406 -15.546875 8.609375 -15.546875 C 10.285156 -15.546875 11.75 -15.140625 13 -14.328125 C 14.25 -13.523438 15.160156 -12.382812 15.734375 -10.90625 L 13.328125 -10.90625 C 12.898438 -11.832031 12.285156 -12.546875 11.484375 -13.046875 C 10.679688 -13.546875 9.722656 -13.796875 8.609375 -13.796875 C 7.535156 -13.796875 6.570312 -13.546875 5.71875 -13.046875 C 4.875 -12.546875 4.207031 -11.835938 3.71875 -10.921875 C 3.238281 -10.003906 3 -8.925781 3 -7.6875 C 3 -6.46875 3.238281 -5.398438 3.71875 -4.484375 C 4.207031 -3.566406 4.875 -2.859375 5.71875 -2.359375 C 6.570312 -1.859375 7.535156 -1.609375 8.609375 -1.609375 C 9.722656 -1.609375 10.679688 -1.851562 11.484375 -2.34375 C 12.285156 -2.832031 12.898438 -3.539062 13.328125 -4.46875 L 15.734375 -4.46875 C 15.160156 -3 14.25 -1.863281 13 -1.0625 C 11.75 -0.269531 10.285156 0.125 8.609375 0.125 C 7.191406 0.125 5.894531 -0.207031 4.71875 -0.875 C 3.550781 -1.539062 2.628906 -2.46875 1.953125 -3.65625 C 1.285156 -4.84375 0.953125 -6.1875 0.953125 -7.6875 Z M 0.953125 -7.6875 "/></g></g></g><g fill="#3daf36" fill-opacity="1"><g transform="translate(79.788013, 23.645603)"><g><path d="M 13.53125 -15.359375 L 13.53125 0 L 11.515625 0 L 11.515625 -6.96875 L 3.703125 -6.96875 L 3.703125 0 L 1.703125 0 L 1.703125 -15.359375 L 3.703125 -15.359375 L 3.703125 -8.609375 L 11.515625 -8.609375 L 11.515625 -15.359375 Z M 13.53125 -15.359375 "/></g></g></g><g fill="#3daf36" fill-opacity="1"><g transform="translate(107.82178, 23.645603)"><g><path d="M 13.765625 0 L 11.765625 0 L 3.703125 -12.234375 L 3.703125 0 L 1.703125 0 L 1.703125 -15.375 L 3.703125 -15.375 L 11.765625 -3.171875 L 11.765625 -15.375 L 13.765625 -15.375 Z M 13.765625 0 "/></g></g></g><g fill="#3daf36" fill-opacity="1"><g transform="translate(136.09768, 23.645603)"><g><path d="M 8.65625 0.15625 C 7.226562 0.15625 5.925781 -0.175781 4.75 -0.84375 C 3.582031 -1.507812 2.65625 -2.441406 1.96875 -3.640625 C 1.289062 -4.835938 0.953125 -6.1875 0.953125 -7.6875 C 0.953125 -9.1875 1.289062 -10.535156 1.96875 -11.734375 C 2.65625 -12.929688 3.582031 -13.863281 4.75 -14.53125 C 5.925781 -15.195312 7.226562 -15.53125 8.65625 -15.53125 C 10.09375 -15.53125 11.398438 -15.195312 12.578125 -14.53125 C 13.753906 -13.863281 14.679688 -12.929688 15.359375 -11.734375 C 16.035156 -10.546875 16.375 -9.195312 16.375 -7.6875 C 16.375 -6.175781 16.035156 -4.820312 15.359375 -3.625 C 14.679688 -2.4375 13.753906 -1.507812 12.578125 -0.84375 C 11.398438 -0.175781 10.09375 0.15625 8.65625 0.15625 Z M 8.65625 -1.59375 C 9.726562 -1.59375 10.691406 -1.835938 11.546875 -2.328125 C 12.410156 -2.828125 13.085938 -3.539062 13.578125 -4.46875 C 14.078125 -5.394531 14.328125 -6.46875 14.328125 -7.6875 C 14.328125 -8.925781 14.078125 -10.003906 13.578125 -10.921875 C 13.085938 -11.835938 12.414062 -12.546875 11.5625 -13.046875 C 10.707031 -13.546875 9.738281 -13.796875 8.65625 -13.796875 C 7.570312 -13.796875 6.601562 -13.546875 5.75 -13.046875 C 4.894531 -12.546875 4.222656 -11.835938 3.734375 -10.921875 C 3.242188 -10.003906 3 -8.925781 3 -7.6875 C 3 -6.46875 3.242188 -5.394531 3.734375 -4.46875 C 4.222656 -3.539062 4.894531 -2.828125 5.75 -2.328125 C 6.613281 -1.835938 7.582031 -1.59375 8.65625 -1.59375 Z M 8.65625 -1.59375 "/></g></g></g><g fill="#3daf36" fill-opacity="1"><g transform="translate(166.200624, 23.645603)"><g><path d="M 3.703125 -1.625 L 9.078125 -1.625 L 9.078125 0 L 1.703125 0 L 1.703125 -15.359375 L 3.703125 -15.359375 Z M 3.703125 -1.625 "/></g></g></g><g fill="#3daf36" fill-opacity="1"><g transform="translate(188.511126, 23.645603)"><g><path d="M 8.65625 0.15625 C 7.226562 0.15625 5.925781 -0.175781 4.75 -0.84375 C 3.582031 -1.507812 2.65625 -2.441406 1.96875 -3.640625 C 1.289062 -4.835938 0.953125 -6.1875 0.953125 -7.6875 C 0.953125 -9.1875 1.289062 -10.535156 1.96875 -11.734375 C 2.65625 -12.929688 3.582031 -13.863281 4.75 -14.53125 C 5.925781 -15.195312 7.226562 -15.53125 8.65625 -15.53125 C 10.09375 -15.53125 11.398438 -15.195312 12.578125 -14.53125 C 13.753906 -13.863281 14.679688 -12.929688 15.359375 -11.734375 C 16.035156 -10.546875 16.375 -9.195312 16.375 -7.6875 C 16.375 -6.175781 16.035156 -4.820312 15.359375 -3.625 C 14.679688 -2.4375 13.753906 -1.507812 12.578125 -0.84375 C 11.398438 -0.175781 10.09375 0.15625 8.65625 0.15625 Z M 8.65625 -1.59375 C 9.726562 -1.59375 10.691406 -1.835938 11.546875 -2.328125 C 12.410156 -2.828125 13.085938 -3.539062 13.578125 -4.46875 C 14.078125 -5.394531 14.328125 -6.46875 14.328125 -7.6875 C 14.328125 -8.925781 14.078125 -10.003906 13.578125 -10.921875 C 13.085938 -11.835938 12.414062 -12.546875 11.5625 -13.046875 C 10.707031 -13.546875 9.738281 -13.796875 8.65625 -13.796875 C 7.570312 -13.796875 6.601562 -13.546875 5.75 -13.046875 C 4.894531 -12.546875 4.222656 -11.835938 3.734375 -10.921875 C 3.242188 -10.003906 3 -8.925781 3 -7.6875 C 3 -6.46875 3.242188 -5.394531 3.734375 -4.46875 C 4.222656 -3.539062 4.894531 -2.828125 5.75 -2.328125 C 6.613281 -1.835938 7.582031 -1.59375 8.65625 -1.59375 Z M 8.65625 -1.59375 "/></g></g></g><g fill="#3daf36" fill-opacity="1"><g transform="translate(218.61407, 23.645603)"><g><path d="M 13.328125 -10.90625 C 12.898438 -11.800781 12.28125 -12.492188 11.46875 -12.984375 C 10.664062 -13.472656 9.726562 -13.71875 8.65625 -13.71875 C 7.582031 -13.71875 6.613281 -13.472656 5.75 -12.984375 C 4.894531 -12.492188 4.222656 -11.789062 3.734375 -10.875 C 3.242188 -9.957031 3 -8.894531 3 -7.6875 C 3 -6.476562 3.242188 -5.421875 3.734375 -4.515625 C 4.222656 -3.609375 4.894531 -2.90625 5.75 -2.40625 C 6.613281 -1.914062 7.582031 -1.671875 8.65625 -1.671875 C 10.15625 -1.671875 11.390625 -2.117188 12.359375 -3.015625 C 13.328125 -3.910156 13.894531 -5.125 14.0625 -6.65625 L 7.9375 -6.65625 L 7.9375 -8.28125 L 16.1875 -8.28125 L 16.1875 -6.734375 C 16.070312 -5.472656 15.675781 -4.316406 15 -3.265625 C 14.320312 -2.222656 13.429688 -1.394531 12.328125 -0.78125 C 11.234375 -0.175781 10.007812 0.125 8.65625 0.125 C 7.226562 0.125 5.925781 -0.207031 4.75 -0.875 C 3.582031 -1.539062 2.65625 -2.46875 1.96875 -3.65625 C 1.289062 -4.84375 0.953125 -6.1875 0.953125 -7.6875 C 0.953125 -9.1875 1.289062 -10.535156 1.96875 -11.734375 C 2.65625 -12.929688 3.582031 -13.863281 4.75 -14.53125 C 5.925781 -15.195312 7.226562 -15.53125 8.65625 -15.53125 C 10.289062 -15.53125 11.734375 -15.125 12.984375 -14.3125 C 14.242188 -13.507812 15.160156 -12.375 15.734375 -10.90625 Z M 13.328125 -10.90625 "/></g></g></g><g fill="#3daf36" fill-opacity="1"><g transform="translate(248.54091, 23.645603)"><g><path d="M 3.703125 -15.359375 L 3.703125 0 L 1.703125 0 L 1.703125 -15.359375 Z M 3.703125 -15.359375 "/></g></g></g><g fill="#3daf36" fill-opacity="1"><g transform="translate(266.757071, 23.645603)"><g><path d="M 3.703125 -13.71875 L 3.703125 -8.59375 L 9.296875 -8.59375 L 9.296875 -6.9375 L 3.703125 -6.9375 L 3.703125 -1.65625 L 9.953125 -1.65625 L 9.953125 0 L 1.703125 0 L 1.703125 -15.375 L 9.953125 -15.375 L 9.953125 -13.71875 Z M 3.703125 -13.71875 "/></g></g></g><g fill="#3daf36" fill-opacity="1"><g transform="translate(290.850601, 23.645603)"><g><path d="M 6.5625 0.15625 C 5.550781 0.15625 4.644531 -0.0195312 3.84375 -0.375 C 3.039062 -0.738281 2.410156 -1.238281 1.953125 -1.875 C 1.503906 -2.519531 1.269531 -3.257812 1.25 -4.09375 L 3.390625 -4.09375 C 3.460938 -3.375 3.757812 -2.769531 4.28125 -2.28125 C 4.800781 -1.789062 5.5625 -1.546875 6.5625 -1.546875 C 7.519531 -1.546875 8.273438 -1.78125 8.828125 -2.25 C 9.378906 -2.726562 9.65625 -3.34375 9.65625 -4.09375 C 9.65625 -4.6875 9.492188 -5.164062 9.171875 -5.53125 C 8.847656 -5.894531 8.441406 -6.171875 7.953125 -6.359375 C 7.460938 -6.554688 6.8125 -6.765625 6 -6.984375 C 4.976562 -7.242188 4.160156 -7.503906 3.546875 -7.765625 C 2.941406 -8.035156 2.421875 -8.453125 1.984375 -9.015625 C 1.554688 -9.585938 1.34375 -10.347656 1.34375 -11.296875 C 1.34375 -12.140625 1.554688 -12.882812 1.984375 -13.53125 C 2.410156 -14.175781 3.007812 -14.671875 3.78125 -15.015625 C 4.550781 -15.367188 5.4375 -15.546875 6.4375 -15.546875 C 7.875 -15.546875 9.050781 -15.1875 9.96875 -14.46875 C 10.882812 -13.75 11.398438 -12.796875 11.515625 -11.609375 L 9.3125 -11.609375 C 9.238281 -12.191406 8.929688 -12.707031 8.390625 -13.15625 C 7.847656 -13.601562 7.128906 -13.828125 6.234375 -13.828125 C 5.398438 -13.828125 4.71875 -13.609375 4.1875 -13.171875 C 3.65625 -12.742188 3.390625 -12.144531 3.390625 -11.375 C 3.390625 -10.8125 3.546875 -10.351562 3.859375 -10 C 4.179688 -9.644531 4.570312 -9.375 5.03125 -9.1875 C 5.5 -9.007812 6.148438 -8.800781 6.984375 -8.5625 C 7.992188 -8.289062 8.804688 -8.019531 9.421875 -7.75 C 10.046875 -7.476562 10.578125 -7.054688 11.015625 -6.484375 C 11.453125 -5.921875 11.671875 -5.15625 11.671875 -4.1875 C 11.671875 -3.4375 11.472656 -2.726562 11.078125 -2.0625 C 10.679688 -1.40625 10.09375 -0.867188 9.3125 -0.453125 C 8.539062 -0.046875 7.625 0.15625 6.5625 0.15625 Z M 6.5625 0.15625 "/></g></g></g></g></g><g clip-path="url(#4eae14cee6)"><g clip-path="url(#6a047961fc)"><g transform="matrix(1, 0, 0, 1, 125, 76)"><g clip-path="url(#d7339b9dce)"><g clip-path="url(#ca7da56f35)"><g clip-path="url(#b8a18977e8)"><path fill="#0e2944" d="M 0.199219 0.40625 L 124.800781 0.40625 L 124.800781 125.011719 L 0.199219 125.011719 Z M 0.199219 0.40625 " fill-opacity="1" fill-rule="nonzero"/></g></g></g></g></g></g><path fill="#3daf36" d="M 187.195312 208.832031 C 177.707031 208.832031 168.5 206.972656 159.832031 203.308594 C 151.460938 199.769531 143.945312 194.699219 137.488281 188.246094 C 131.035156 181.789062 125.964844 174.273438 122.425781 165.902344 C 118.761719 157.234375 116.902344 148.027344 116.902344 138.539062 C 116.902344 129.050781 118.761719 119.84375 122.425781 111.179688 C 125.964844 102.808594 131.035156 95.289062 137.488281 88.835938 C 143.945312 82.382812 151.460938 77.3125 159.832031 73.773438 C 168.5 70.105469 177.707031 68.246094 187.195312 68.246094 C 196.683594 68.246094 205.890625 70.105469 214.554688 73.773438 C 222.925781 77.3125 230.445312 82.378906 236.898438 88.835938 C 243.351562 95.289062 248.421875 102.808594 251.960938 111.179688 C 255.628906 119.84375 257.488281 129.050781 257.488281 138.539062 C 257.488281 148.027344 255.628906 157.234375 251.960938 165.902344 C 248.421875 174.273438 243.355469 181.789062 236.898438 188.246094 C 230.445312 194.699219 222.925781 199.765625 214.554688 203.308594 C 205.890625 206.972656 196.683594 208.832031 187.195312 208.832031 Z M 187.195312 71.390625 C 150.167969 71.390625 120.046875 101.515625 120.046875 138.539062 C 120.046875 175.566406 150.167969 205.6875 187.195312 205.6875 C 224.21875 205.6875 254.34375 175.566406 254.34375 138.539062 C 254.34375 101.515625 224.21875 71.390625 187.195312 71.390625 Z M 187.195312 71.390625 " fill-opacity="1" fill-rule="nonzero"/><g clip-path="url(#bc198adc12)"><path fill="#0e2944" d="M 113.871094 136.421875 L 110.726562 136.375 C 110.910156 124.914062 113.8125 113.5 119.117188 103.363281 C 124.222656 93.601562 131.601562 84.960938 140.453125 78.375 L 142.332031 80.898438 C 133.855469 87.203125 126.789062 95.476562 121.902344 104.820312 C 116.824219 114.523438 114.046875 125.453125 113.871094 136.421875 Z M 113.871094 136.421875 " fill-opacity="1" fill-rule="nonzero"/></g><path fill="#0e2944" d="M 142.933594 199.957031 C 139.605469 197.75 136.445312 195.238281 133.53125 192.496094 C 129.460938 188.664062 125.851562 184.359375 122.808594 179.695312 C 116.949219 170.726562 113.148438 160.339844 111.816406 149.652344 L 114.9375 149.265625 C 116.207031 159.480469 119.839844 169.40625 125.441406 177.976562 C 130.484375 185.695312 136.957031 192.210938 144.671875 197.339844 Z M 142.933594 199.957031 " fill-opacity="1" fill-rule="nonzero"/><g clip-path="url(#ef2c24c4c1)"><path fill="#0e2944" d="M 153.011719 73.640625 L 151.460938 70.90625 C 156.125 68.261719 161.113281 66.230469 166.292969 64.863281 C 171.265625 63.550781 176.394531 62.855469 181.535156 62.800781 L 181.570312 65.945312 C 176.6875 66 171.816406 66.65625 167.09375 67.902344 C 162.175781 69.203125 157.4375 71.132812 153.011719 73.640625 Z M 153.011719 73.640625 " fill-opacity="1" fill-rule="nonzero"/></g><path fill="#0e2944" d="M 216.988281 209.285156 L 215.734375 206.488281 C 222.601562 203.40625 245.789062 191.210938 255.710938 163.578125 C 264.273438 139.730469 257.855469 118.671875 254.695312 110.722656 L 257.542969 109.59375 C 259.960938 115.675781 261.671875 122.496094 262.492188 129.308594 C 263.953125 141.46875 262.640625 153.347656 258.59375 164.613281 C 256.085938 171.597656 252.570312 178.160156 248.148438 184.117188 C 244.519531 189 240.25 193.519531 235.457031 197.550781 C 229.789062 202.316406 223.230469 206.484375 216.988281 209.285156 Z M 216.988281 209.285156 " fill-opacity="1" fill-rule="nonzero"/><g clip-path="url(#d9607c81a8)"><path fill="#0e2944" d="M 191.730469 214.597656 C 189.613281 214.597656 187.496094 214.472656 185.390625 214.226562 L 185.75 211.183594 C 189.71875 211.648438 193.742188 211.648438 197.707031 211.183594 C 201.882812 210.691406 205.992188 209.6875 209.925781 208.195312 L 211.015625 211.058594 C 206.847656 212.640625 202.488281 213.707031 198.066406 214.226562 C 195.964844 214.472656 193.847656 214.597656 191.730469 214.597656 Z M 191.730469 214.597656 " fill-opacity="1" fill-rule="nonzero"/></g><path fill="#0e2944" d="M 240.609375 89.445312 C 237.339844 85.449219 233.570312 81.882812 229.402344 78.839844 C 225.039062 75.652344 220.265625 73.054688 215.210938 71.121094 L 216.304688 68.257812 C 221.613281 70.289062 226.628906 73.015625 231.210938 76.367188 C 235.585938 79.5625 239.546875 83.308594 242.980469 87.5 Z M 240.609375 89.445312 " fill-opacity="1" fill-rule="nonzero"/><g clip-path="url(#62aa88fb00)"><path fill="#3daf36" d="M 213.238281 133.882812 L 192.324219 133.882812 L 192.324219 112.96875 C 192.324219 110.332031 190.199219 108.144531 187.5 108.144531 C 184.859375 108.144531 182.675781 110.265625 182.675781 112.96875 L 182.675781 133.882812 L 161.761719 133.882812 C 159.121094 133.882812 156.9375 136.003906 156.9375 138.707031 C 156.9375 140.058594 157.453125 141.214844 158.351562 142.121094 C 159.253906 143.015625 160.410156 143.53125 161.761719 143.53125 L 182.675781 143.53125 L 182.675781 164.445312 C 182.675781 165.796875 183.191406 166.953125 184.089844 167.851562 C 184.992188 168.753906 186.148438 169.269531 187.5 169.269531 C 190.136719 169.269531 192.324219 167.148438 192.324219 164.445312 L 192.324219 143.53125 L 213.238281 143.53125 C 215.875 143.53125 218.0625 141.410156 218.0625 138.707031 C 218.0625 136.070312 215.9375 133.882812 213.238281 133.882812 " fill-opacity="1" fill-rule="nonzero"/></g></svg>