<svg xmlns="http://www.w3.org/2000/svg" xmlns:xlink="http://www.w3.org/1999/xlink" zoomAndPan="magnify" preserveAspectRatio="xMidYMid meet" version="1.0" viewBox="12.57 145.98 349.23 96.61"><defs><g/><clipPath id="b169805519"><rect x="0" width="348" y="0" height="128"/></clipPath><clipPath id="1018d6d53d"><rect x="0" width="365" y="0" height="37"/></clipPath></defs><g transform="matrix(1, 0, 0, 1, 14, 115)"><g clip-path="url(#b169805519)"><g fill="#0e2944" fill-opacity="1"><g transform="translate(0.311078, 95.696263)"><g><path d="M 45.375 -10.390625 L 22.78125 -10.390625 L 19.34375 0 L 0.71875 0 L 23.953125 -63.71875 L 44.375 -63.71875 L 67.515625 0 L 48.8125 0 Z M 40.953125 -23.953125 L 34.078125 -44.5625 L 27.296875 -23.953125 Z M 40.953125 -23.953125 "/></g></g></g><g fill="#0e2944" fill-opacity="1"><g transform="translate(68.550887, 95.696263)"><g><path d="M 22.78125 -13.5625 L 42.578125 -13.5625 L 42.578125 0 L 5.0625 0 L 5.0625 -63.71875 L 22.78125 -63.71875 Z M 22.78125 -13.5625 "/></g></g></g><g fill="#0e2944" fill-opacity="1"><g transform="translate(112.929349, 95.696263)"><g><path d="M 42.75 0 L 22.78125 -27.9375 L 22.78125 0 L 5.0625 0 L 5.0625 -63.71875 L 22.78125 -63.71875 L 22.78125 -36.25 L 42.578125 -63.71875 L 63 -63.71875 L 39.59375 -32.8125 L 64.171875 0 Z M 42.75 0 "/></g></g></g><g fill="#0e2944" fill-opacity="1"><g transform="translate(178.548027, 95.696263)"><g><path d="M 22.78125 -63.71875 L 22.78125 0 L 5.0625 0 L 5.0625 -63.71875 Z M 22.78125 -63.71875 "/></g></g></g><g fill="#0e2944" fill-opacity="1"><g transform="translate(206.386253, 95.696263)"><g><path d="M 35.609375 0.625 C 29.648438 0.625 24.164062 -0.773438 19.15625 -3.578125 C 14.15625 -6.378906 10.191406 -10.265625 7.265625 -15.234375 C 4.347656 -20.203125 2.890625 -25.820312 2.890625 -32.09375 C 2.890625 -38.351562 4.347656 -43.96875 7.265625 -48.9375 C 10.191406 -53.914062 14.15625 -57.789062 19.15625 -60.5625 C 24.164062 -63.332031 29.648438 -64.71875 35.609375 -64.71875 C 41.640625 -64.71875 47.140625 -63.332031 52.109375 -60.5625 C 57.078125 -57.789062 61.007812 -53.914062 63.90625 -48.9375 C 66.800781 -43.96875 68.25 -38.351562 68.25 -32.09375 C 68.25 -25.820312 66.800781 -20.203125 63.90625 -15.234375 C 61.007812 -10.265625 57.0625 -6.378906 52.0625 -3.578125 C 47.0625 -0.773438 41.578125 0.625 35.609375 0.625 Z M 35.609375 -15.8125 C 40.128906 -15.8125 43.695312 -17.285156 46.3125 -20.234375 C 48.9375 -23.191406 50.25 -27.144531 50.25 -32.09375 C 50.25 -37.15625 48.9375 -41.144531 46.3125 -44.0625 C 43.695312 -46.988281 40.128906 -48.453125 35.609375 -48.453125 C 31.035156 -48.453125 27.453125 -46.988281 24.859375 -44.0625 C 22.265625 -41.144531 20.96875 -37.15625 20.96875 -32.09375 C 20.96875 -27.09375 22.265625 -23.128906 24.859375 -20.203125 C 27.453125 -17.273438 31.035156 -15.8125 35.609375 -15.8125 Z M 35.609375 -15.8125 "/></g></g></g><g fill="#0e2944" fill-opacity="1"><g transform="translate(277.518335, 95.696263)"><g><path d="M 64.09375 0 L 46.375 0 L 22.78125 -35.609375 L 22.78125 0 L 5.0625 0 L 5.0625 -63.71875 L 22.78125 -63.71875 L 46.375 -27.65625 L 46.375 -63.71875 L 64.09375 -63.71875 Z M 64.09375 0 "/></g></g></g></g></g><g transform="matrix(1, 0, 0, 1, 10, 215)"><g clip-path="url(#1018d6d53d)"><g fill="#3daf36" fill-opacity="1"><g transform="translate(1.699111, 27.410701)"><g><path d="M 12.953125 -17.84375 L 12.953125 -15.9375 L 8.09375 -15.9375 L 8.09375 0 L 5.765625 0 L 5.765625 -15.9375 L 0.875 -15.9375 L 0.875 -17.84375 Z M 12.953125 -17.84375 "/></g></g></g><g fill="#3daf36" fill-opacity="1"><g transform="translate(30.408457, 27.410701)"><g><path d="M 4.296875 -15.9375 L 4.296875 -9.984375 L 10.796875 -9.984375 L 10.796875 -8.0625 L 4.296875 -8.0625 L 4.296875 -1.921875 L 11.5625 -1.921875 L 11.5625 0 L 1.96875 0 L 1.96875 -17.859375 L 11.5625 -17.859375 L 11.5625 -15.9375 Z M 4.296875 -15.9375 "/></g></g></g><g fill="#3daf36" fill-opacity="1"><g transform="translate(58.401701, 27.410701)"><g><path d="M 1.09375 -8.9375 C 1.09375 -10.675781 1.484375 -12.238281 2.265625 -13.625 C 3.054688 -15.019531 4.128906 -16.109375 5.484375 -16.890625 C 6.847656 -17.671875 8.351562 -18.0625 10 -18.0625 C 11.945312 -18.0625 13.644531 -17.59375 15.09375 -16.65625 C 16.550781 -15.71875 17.613281 -14.390625 18.28125 -12.671875 L 15.484375 -12.671875 C 14.984375 -13.742188 14.269531 -14.566406 13.34375 -15.140625 C 12.414062 -15.722656 11.300781 -16.015625 10 -16.015625 C 8.757812 -16.015625 7.644531 -15.722656 6.65625 -15.140625 C 5.664062 -14.566406 4.890625 -13.742188 4.328125 -12.671875 C 3.765625 -11.609375 3.484375 -10.363281 3.484375 -8.9375 C 3.484375 -7.519531 3.765625 -6.273438 4.328125 -5.203125 C 4.890625 -4.140625 5.664062 -3.316406 6.65625 -2.734375 C 7.644531 -2.160156 8.757812 -1.875 10 -1.875 C 11.300781 -1.875 12.414062 -2.15625 13.34375 -2.71875 C 14.269531 -3.289062 14.984375 -4.117188 15.484375 -5.203125 L 18.28125 -5.203125 C 17.613281 -3.492188 16.550781 -2.171875 15.09375 -1.234375 C 13.644531 -0.304688 11.945312 0.15625 10 0.15625 C 8.351562 0.15625 6.847656 -0.226562 5.484375 -1 C 4.128906 -1.78125 3.054688 -2.863281 2.265625 -4.25 C 1.484375 -5.632812 1.09375 -7.195312 1.09375 -8.9375 Z M 1.09375 -8.9375 "/></g></g></g><g fill="#3daf36" fill-opacity="1"><g transform="translate(93.018987, 27.410701)"><g><path d="M 15.71875 -17.84375 L 15.71875 0 L 13.390625 0 L 13.390625 -8.09375 L 4.296875 -8.09375 L 4.296875 0 L 1.96875 0 L 1.96875 -17.84375 L 4.296875 -17.84375 L 4.296875 -10 L 13.390625 -10 L 13.390625 -17.84375 Z M 15.71875 -17.84375 "/></g></g></g><g fill="#3daf36" fill-opacity="1"><g transform="translate(125.590242, 27.410701)"><g><path d="M 16 0 L 13.671875 0 L 4.296875 -14.203125 L 4.296875 0 L 1.96875 0 L 1.96875 -17.859375 L 4.296875 -17.859375 L 13.671875 -3.6875 L 13.671875 -17.859375 L 16 -17.859375 Z M 16 0 "/></g></g></g><g fill="#3daf36" fill-opacity="1"><g transform="translate(158.442823, 27.410701)"><g><path d="M 10.0625 0.171875 C 8.40625 0.171875 6.894531 -0.210938 5.53125 -0.984375 C 4.164062 -1.765625 3.082031 -2.847656 2.28125 -4.234375 C 1.488281 -5.628906 1.09375 -7.195312 1.09375 -8.9375 C 1.09375 -10.675781 1.488281 -12.238281 2.28125 -13.625 C 3.082031 -15.019531 4.164062 -16.101562 5.53125 -16.875 C 6.894531 -17.65625 8.40625 -18.046875 10.0625 -18.046875 C 11.726562 -18.046875 13.242188 -17.65625 14.609375 -16.875 C 15.972656 -16.101562 17.046875 -15.023438 17.828125 -13.640625 C 18.617188 -12.253906 19.015625 -10.6875 19.015625 -8.9375 C 19.015625 -7.175781 18.617188 -5.601562 17.828125 -4.21875 C 17.046875 -2.84375 15.972656 -1.765625 14.609375 -0.984375 C 13.242188 -0.210938 11.726562 0.171875 10.0625 0.171875 Z M 10.0625 -1.84375 C 11.300781 -1.84375 12.421875 -2.128906 13.421875 -2.703125 C 14.421875 -3.285156 15.207031 -4.113281 15.78125 -5.1875 C 16.351562 -6.269531 16.640625 -7.519531 16.640625 -8.9375 C 16.640625 -10.363281 16.351562 -11.609375 15.78125 -12.671875 C 15.207031 -13.742188 14.425781 -14.566406 13.4375 -15.140625 C 12.445312 -15.722656 11.320312 -16.015625 10.0625 -16.015625 C 8.800781 -16.015625 7.675781 -15.722656 6.6875 -15.140625 C 5.695312 -14.566406 4.914062 -13.742188 4.34375 -12.671875 C 3.769531 -11.609375 3.484375 -10.363281 3.484375 -8.9375 C 3.484375 -7.519531 3.769531 -6.269531 4.34375 -5.1875 C 4.914062 -4.113281 5.695312 -3.285156 6.6875 -2.703125 C 7.6875 -2.128906 8.8125 -1.84375 10.0625 -1.84375 Z M 10.0625 -1.84375 "/></g></g></g><g fill="#3daf36" fill-opacity="1"><g transform="translate(193.418169, 27.410701)"><g><path d="M 4.296875 -1.890625 L 10.546875 -1.890625 L 10.546875 0 L 1.96875 0 L 1.96875 -17.84375 L 4.296875 -17.84375 Z M 4.296875 -1.890625 "/></g></g></g><g fill="#3daf36" fill-opacity="1"><g transform="translate(219.339803, 27.410701)"><g><path d="M 10.0625 0.171875 C 8.40625 0.171875 6.894531 -0.210938 5.53125 -0.984375 C 4.164062 -1.765625 3.082031 -2.847656 2.28125 -4.234375 C 1.488281 -5.628906 1.09375 -7.195312 1.09375 -8.9375 C 1.09375 -10.675781 1.488281 -12.238281 2.28125 -13.625 C 3.082031 -15.019531 4.164062 -16.101562 5.53125 -16.875 C 6.894531 -17.65625 8.40625 -18.046875 10.0625 -18.046875 C 11.726562 -18.046875 13.242188 -17.65625 14.609375 -16.875 C 15.972656 -16.101562 17.046875 -15.023438 17.828125 -13.640625 C 18.617188 -12.253906 19.015625 -10.6875 19.015625 -8.9375 C 19.015625 -7.175781 18.617188 -5.601562 17.828125 -4.21875 C 17.046875 -2.84375 15.972656 -1.765625 14.609375 -0.984375 C 13.242188 -0.210938 11.726562 0.171875 10.0625 0.171875 Z M 10.0625 -1.84375 C 11.300781 -1.84375 12.421875 -2.128906 13.421875 -2.703125 C 14.421875 -3.285156 15.207031 -4.113281 15.78125 -5.1875 C 16.351562 -6.269531 16.640625 -7.519531 16.640625 -8.9375 C 16.640625 -10.363281 16.351562 -11.609375 15.78125 -12.671875 C 15.207031 -13.742188 14.425781 -14.566406 13.4375 -15.140625 C 12.445312 -15.722656 11.320312 -16.015625 10.0625 -16.015625 C 8.800781 -16.015625 7.675781 -15.722656 6.6875 -15.140625 C 5.695312 -14.566406 4.914062 -13.742188 4.34375 -12.671875 C 3.769531 -11.609375 3.484375 -10.363281 3.484375 -8.9375 C 3.484375 -7.519531 3.769531 -6.269531 4.34375 -5.1875 C 4.914062 -4.113281 5.695312 -3.285156 6.6875 -2.703125 C 7.6875 -2.128906 8.8125 -1.84375 10.0625 -1.84375 Z M 10.0625 -1.84375 "/></g></g></g><g fill="#3daf36" fill-opacity="1"><g transform="translate(254.315149, 27.410701)"><g><path d="M 15.484375 -12.671875 C 14.984375 -13.710938 14.265625 -14.515625 13.328125 -15.078125 C 12.390625 -15.648438 11.300781 -15.9375 10.0625 -15.9375 C 8.8125 -15.9375 7.6875 -15.648438 6.6875 -15.078125 C 5.695312 -14.515625 4.914062 -13.695312 4.34375 -12.625 C 3.769531 -11.5625 3.484375 -10.332031 3.484375 -8.9375 C 3.484375 -7.53125 3.769531 -6.296875 4.34375 -5.234375 C 4.914062 -4.179688 5.695312 -3.367188 6.6875 -2.796875 C 7.6875 -2.222656 8.8125 -1.9375 10.0625 -1.9375 C 11.800781 -1.9375 13.234375 -2.457031 14.359375 -3.5 C 15.484375 -4.539062 16.140625 -5.953125 16.328125 -7.734375 L 9.21875 -7.734375 L 9.21875 -9.625 L 18.8125 -9.625 L 18.8125 -7.828125 C 18.675781 -6.359375 18.210938 -5.015625 17.421875 -3.796875 C 16.640625 -2.578125 15.609375 -1.613281 14.328125 -0.90625 C 13.046875 -0.195312 11.625 0.15625 10.0625 0.15625 C 8.40625 0.15625 6.894531 -0.226562 5.53125 -1 C 4.164062 -1.78125 3.082031 -2.863281 2.28125 -4.25 C 1.488281 -5.632812 1.09375 -7.195312 1.09375 -8.9375 C 1.09375 -10.675781 1.488281 -12.238281 2.28125 -13.625 C 3.082031 -15.019531 4.164062 -16.101562 5.53125 -16.875 C 6.894531 -17.65625 8.40625 -18.046875 10.0625 -18.046875 C 11.957031 -18.046875 13.632812 -17.578125 15.09375 -16.640625 C 16.550781 -15.703125 17.613281 -14.378906 18.28125 -12.671875 Z M 15.484375 -12.671875 "/></g></g></g><g fill="#3daf36" fill-opacity="1"><g transform="translate(289.085888, 27.410701)"><g><path d="M 4.296875 -17.84375 L 4.296875 0 L 1.96875 0 L 1.96875 -17.84375 Z M 4.296875 -17.84375 "/></g></g></g><g fill="#3daf36" fill-opacity="1"><g transform="translate(310.25048, 27.410701)"><g><path d="M 4.296875 -15.9375 L 4.296875 -9.984375 L 10.796875 -9.984375 L 10.796875 -8.0625 L 4.296875 -8.0625 L 4.296875 -1.921875 L 11.5625 -1.921875 L 11.5625 0 L 1.96875 0 L 1.96875 -17.859375 L 11.5625 -17.859375 L 11.5625 -15.9375 Z M 4.296875 -15.9375 "/></g></g></g><g fill="#3daf36" fill-opacity="1"><g transform="translate(338.243741, 27.410701)"><g><path d="M 7.625 0.171875 C 6.445312 0.171875 5.394531 -0.0351562 4.46875 -0.453125 C 3.539062 -0.867188 2.8125 -1.445312 2.28125 -2.1875 C 1.75 -2.925781 1.472656 -3.785156 1.453125 -4.765625 L 3.9375 -4.765625 C 4.019531 -3.921875 4.363281 -3.210938 4.96875 -2.640625 C 5.582031 -2.078125 6.46875 -1.796875 7.625 -1.796875 C 8.738281 -1.796875 9.613281 -2.070312 10.25 -2.625 C 10.882812 -3.175781 11.203125 -3.890625 11.203125 -4.765625 C 11.203125 -5.441406 11.015625 -5.992188 10.640625 -6.421875 C 10.265625 -6.847656 9.796875 -7.171875 9.234375 -7.390625 C 8.671875 -7.617188 7.914062 -7.859375 6.96875 -8.109375 C 5.789062 -8.421875 4.847656 -8.726562 4.140625 -9.03125 C 3.429688 -9.34375 2.820312 -9.828125 2.3125 -10.484375 C 1.8125 -11.140625 1.5625 -12.019531 1.5625 -13.125 C 1.5625 -14.101562 1.804688 -14.96875 2.296875 -15.71875 C 2.796875 -16.46875 3.492188 -17.046875 4.390625 -17.453125 C 5.285156 -17.859375 6.3125 -18.0625 7.46875 -18.0625 C 9.144531 -18.0625 10.515625 -17.644531 11.578125 -16.8125 C 12.648438 -15.976562 13.253906 -14.867188 13.390625 -13.484375 L 10.828125 -13.484375 C 10.742188 -14.171875 10.382812 -14.773438 9.75 -15.296875 C 9.113281 -15.816406 8.28125 -16.078125 7.25 -16.078125 C 6.269531 -16.078125 5.472656 -15.820312 4.859375 -15.3125 C 4.242188 -14.8125 3.9375 -14.109375 3.9375 -13.203125 C 3.9375 -12.554688 4.117188 -12.023438 4.484375 -11.609375 C 4.859375 -11.203125 5.3125 -10.890625 5.84375 -10.671875 C 6.382812 -10.460938 7.140625 -10.222656 8.109375 -9.953125 C 9.285156 -9.628906 10.234375 -9.304688 10.953125 -8.984375 C 11.671875 -8.671875 12.285156 -8.1875 12.796875 -7.53125 C 13.304688 -6.875 13.5625 -5.984375 13.5625 -4.859375 C 13.5625 -3.992188 13.332031 -3.175781 12.875 -2.40625 C 12.414062 -1.632812 11.734375 -1.007812 10.828125 -0.53125 C 9.921875 -0.0625 8.851562 0.171875 7.625 0.171875 Z M 7.625 0.171875 "/></g></g></g></g></g></svg>