<svg xmlns="http://www.w3.org/2000/svg" xmlns:xlink="http://www.w3.org/1999/xlink" zoomAndPan="magnify" preserveAspectRatio="xMidYMid meet" version="1.0" viewBox="25.91 146.63 322.6 91.76"><defs><g/><clipPath id="41484e23f3"><rect x="0" width="321" y="0" height="118"/></clipPath><clipPath id="8071db35fb"><rect x="0" width="340" y="0" height="34"/></clipPath><clipPath id="fa9e1a6f5d"><path d="M 223.753906 152.695312 L 279.300781 152.695312 L 279.300781 208.242188 L 223.753906 208.242188 Z M 223.753906 152.695312 " clip-rule="nonzero"/></clipPath><clipPath id="f34e75d9f4"><path d="M 251.527344 152.695312 C 236.191406 152.695312 223.753906 165.132812 223.753906 180.46875 C 223.753906 195.808594 236.191406 208.242188 251.527344 208.242188 C 266.867188 208.242188 279.300781 195.808594 279.300781 180.46875 C 279.300781 165.132812 266.867188 152.695312 251.527344 152.695312 Z M 251.527344 152.695312 " clip-rule="nonzero"/></clipPath><clipPath id="4005cc4cbd"><path d="M 0.753906 0.695312 L 56.300781 0.695312 L 56.300781 56.242188 L 0.753906 56.242188 Z M 0.753906 0.695312 " clip-rule="nonzero"/></clipPath><clipPath id="d2339ef0bf"><path d="M 28.527344 0.695312 C 13.191406 0.695312 0.753906 13.132812 0.753906 28.46875 C 0.753906 43.808594 13.191406 56.242188 28.527344 56.242188 C 43.867188 56.242188 56.300781 43.808594 56.300781 28.46875 C 56.300781 13.132812 43.867188 0.695312 28.527344 0.695312 Z M 28.527344 0.695312 " clip-rule="nonzero"/></clipPath><clipPath id="6dabe24aa6"><rect x="0" width="57" y="0" height="57"/></clipPath><clipPath id="fd1b7f7c44"><path d="M 217.304688 153 L 232 153 L 232 180 L 217.304688 180 Z M 217.304688 153 " clip-rule="nonzero"/></clipPath><clipPath id="c570e9f0e9"><path d="M 217.304688 185 L 233 185 L 233 208 L 217.304688 208 Z M 217.304688 185 " clip-rule="nonzero"/></clipPath><clipPath id="5a4595776b"><path d="M 235 146.628906 L 249 146.628906 L 249 152 L 235 152 Z M 235 146.628906 " clip-rule="nonzero"/></clipPath><clipPath id="9e04322ed0"><path d="M 264 167 L 285.554688 167 L 285.554688 212 L 264 212 Z M 264 167 " clip-rule="nonzero"/></clipPath><clipPath id="9cfbb171a0"><path d="M 250 211 L 263 211 L 263 214.128906 L 250 214.128906 Z M 250 211 " clip-rule="nonzero"/></clipPath><clipPath id="0c04f04b3f"><path d="M 237.902344 166.84375 L 264.902344 166.84375 L 264.902344 193.84375 L 237.902344 193.84375 Z M 237.902344 166.84375 " clip-rule="nonzero"/></clipPath></defs><g transform="matrix(1, 0, 0, 1, 27, 121)"><g clip-path="url(#41484e23f3)"><g fill="#0e2944" fill-opacity="1"><g transform="translate(1.483225, 87.926366)"><g><path d="M 41.921875 -9.609375 L 21.046875 -9.609375 L 17.875 0 L 0.671875 0 L 22.125 -58.875 L 41 -58.875 L 62.375 0 L 45.09375 0 Z M 37.828125 -22.125 L 31.484375 -41.171875 L 25.21875 -22.125 Z M 37.828125 -22.125 "/></g></g></g><g fill="#0e2944" fill-opacity="1"><g transform="translate(64.516269, 87.926366)"><g><path d="M 21.046875 -12.53125 L 39.328125 -12.53125 L 39.328125 0 L 4.671875 0 L 4.671875 -58.875 L 21.046875 -58.875 Z M 21.046875 -12.53125 "/></g></g></g><g fill="#0e2944" fill-opacity="1"><g transform="translate(105.50861, 87.926366)"><g><path d="M 39.5 0 L 21.046875 -25.796875 L 21.046875 0 L 4.671875 0 L 4.671875 -58.875 L 21.046875 -58.875 L 21.046875 -33.484375 L 39.328125 -58.875 L 58.203125 -58.875 L 36.578125 -30.3125 L 59.28125 0 Z M 39.5 0 "/></g></g></g><g fill="#0e2944" fill-opacity="1"><g transform="translate(166.120517, 87.926366)"><g><path d="M 21.046875 -58.875 L 21.046875 0 L 4.671875 0 L 4.671875 -58.875 Z M 21.046875 -58.875 "/></g></g></g><g fill="#0e2944" fill-opacity="1"><g transform="translate(191.835192, 87.926366)"><g/></g></g><g fill="#0e2944" fill-opacity="1"><g transform="translate(207.781302, 87.926366)"><g/></g></g><g fill="#0e2944" fill-opacity="1"><g transform="translate(223.727411, 87.926366)"><g/></g></g><g fill="#0e2944" fill-opacity="1"><g transform="translate(239.673521, 87.926366)"><g/></g></g><g fill="#0e2944" fill-opacity="1"><g transform="translate(255.622169, 87.926366)"><g><path d="M 59.203125 0 L 42.828125 0 L 21.046875 -32.90625 L 21.046875 0 L 4.671875 0 L 4.671875 -58.875 L 21.046875 -58.875 L 42.828125 -25.546875 L 42.828125 -58.875 L 59.203125 -58.875 Z M 59.203125 0 "/></g></g></g></g></g><g transform="matrix(1, 0, 0, 1, 24, 213)"><g clip-path="url(#8071db35fb)"><g fill="#3daf36" fill-opacity="1"><g transform="translate(1.112895, 25.220965)"><g><path d="M 11.96875 -16.484375 L 11.96875 -14.734375 L 7.46875 -14.734375 L 7.46875 0 L 5.3125 0 L 5.3125 -14.734375 L 0.796875 -14.734375 L 0.796875 -16.484375 Z M 11.96875 -16.484375 "/></g></g></g><g fill="#3daf36" fill-opacity="1"><g transform="translate(27.631689, 25.220965)"><g><path d="M 3.96875 -14.734375 L 3.96875 -9.21875 L 9.96875 -9.21875 L 9.96875 -7.453125 L 3.96875 -7.453125 L 3.96875 -1.765625 L 10.6875 -1.765625 L 10.6875 0 L 1.828125 0 L 1.828125 -16.5 L 10.6875 -16.5 L 10.6875 -14.734375 Z M 3.96875 -14.734375 "/></g></g></g><g fill="#3daf36" fill-opacity="1"><g transform="translate(53.489021, 25.220965)"><g><path d="M 1.015625 -8.25 C 1.015625 -9.851562 1.375 -11.296875 2.09375 -12.578125 C 2.820312 -13.867188 3.8125 -14.875 5.0625 -15.59375 C 6.320312 -16.320312 7.71875 -16.6875 9.25 -16.6875 C 11.039062 -16.6875 12.601562 -16.253906 13.9375 -15.390625 C 15.28125 -14.523438 16.257812 -13.296875 16.875 -11.703125 L 14.296875 -11.703125 C 13.835938 -12.691406 13.179688 -13.453125 12.328125 -13.984375 C 11.472656 -14.523438 10.445312 -14.796875 9.25 -14.796875 C 8.09375 -14.796875 7.054688 -14.523438 6.140625 -13.984375 C 5.234375 -13.453125 4.519531 -12.691406 4 -11.703125 C 3.476562 -10.722656 3.21875 -9.570312 3.21875 -8.25 C 3.21875 -6.9375 3.476562 -5.785156 4 -4.796875 C 4.519531 -3.816406 5.234375 -3.054688 6.140625 -2.515625 C 7.054688 -1.984375 8.09375 -1.71875 9.25 -1.71875 C 10.445312 -1.71875 11.472656 -1.984375 12.328125 -2.515625 C 13.179688 -3.046875 13.835938 -3.804688 14.296875 -4.796875 L 16.875 -4.796875 C 16.257812 -3.222656 15.28125 -2.003906 13.9375 -1.140625 C 12.601562 -0.285156 11.039062 0.140625 9.25 0.140625 C 7.71875 0.140625 6.320312 -0.21875 5.0625 -0.9375 C 3.8125 -1.65625 2.820312 -2.648438 2.09375 -3.921875 C 1.375 -5.203125 1.015625 -6.644531 1.015625 -8.25 Z M 1.015625 -8.25 "/></g></g></g><g fill="#3daf36" fill-opacity="1"><g transform="translate(85.464974, 25.220965)"><g><path d="M 14.515625 -16.484375 L 14.515625 0 L 12.359375 0 L 12.359375 -7.46875 L 3.96875 -7.46875 L 3.96875 0 L 1.828125 0 L 1.828125 -16.484375 L 3.96875 -16.484375 L 3.96875 -9.25 L 12.359375 -9.25 L 12.359375 -16.484375 Z M 14.515625 -16.484375 "/></g></g></g><g fill="#3daf36" fill-opacity="1"><g transform="translate(115.551011, 25.220965)"><g><path d="M 14.78125 0 L 12.625 0 L 3.96875 -13.125 L 3.96875 0 L 1.828125 0 L 1.828125 -16.5 L 3.96875 -16.5 L 12.625 -3.40625 L 12.625 -16.5 L 14.78125 -16.5 Z M 14.78125 0 "/></g></g></g><g fill="#3daf36" fill-opacity="1"><g transform="translate(145.896908, 25.220965)"><g><path d="M 9.296875 0.171875 C 7.765625 0.171875 6.367188 -0.1875 5.109375 -0.90625 C 3.847656 -1.625 2.847656 -2.625 2.109375 -3.90625 C 1.378906 -5.195312 1.015625 -6.644531 1.015625 -8.25 C 1.015625 -9.851562 1.378906 -11.296875 2.109375 -12.578125 C 2.847656 -13.867188 3.847656 -14.875 5.109375 -15.59375 C 6.367188 -16.3125 7.765625 -16.671875 9.296875 -16.671875 C 10.835938 -16.671875 12.238281 -16.3125 13.5 -15.59375 C 14.757812 -14.875 15.75 -13.875 16.46875 -12.59375 C 17.195312 -11.320312 17.5625 -9.875 17.5625 -8.25 C 17.5625 -6.625 17.195312 -5.171875 16.46875 -3.890625 C 15.75 -2.617188 14.757812 -1.625 13.5 -0.90625 C 12.238281 -0.1875 10.835938 0.171875 9.296875 0.171875 Z M 9.296875 -1.703125 C 10.441406 -1.703125 11.472656 -1.96875 12.390625 -2.5 C 13.316406 -3.039062 14.039062 -3.804688 14.5625 -4.796875 C 15.09375 -5.785156 15.359375 -6.9375 15.359375 -8.25 C 15.359375 -9.570312 15.09375 -10.722656 14.5625 -11.703125 C 14.039062 -12.691406 13.320312 -13.453125 12.40625 -13.984375 C 11.5 -14.523438 10.460938 -14.796875 9.296875 -14.796875 C 8.128906 -14.796875 7.085938 -14.523438 6.171875 -13.984375 C 5.253906 -13.453125 4.53125 -12.691406 4 -11.703125 C 3.476562 -10.722656 3.21875 -9.570312 3.21875 -8.25 C 3.21875 -6.9375 3.476562 -5.785156 4 -4.796875 C 4.53125 -3.804688 5.253906 -3.039062 6.171875 -2.5 C 7.097656 -1.96875 8.140625 -1.703125 9.296875 -1.703125 Z M 9.296875 -1.703125 "/></g></g></g><g fill="#3daf36" fill-opacity="1"><g transform="translate(178.203601, 25.220965)"><g><path d="M 3.96875 -1.75 L 9.734375 -1.75 L 9.734375 0 L 1.828125 0 L 1.828125 -16.484375 L 3.96875 -16.484375 Z M 3.96875 -1.75 "/></g></g></g><g fill="#3daf36" fill-opacity="1"><g transform="translate(202.147389, 25.220965)"><g><path d="M 9.296875 0.171875 C 7.765625 0.171875 6.367188 -0.1875 5.109375 -0.90625 C 3.847656 -1.625 2.847656 -2.625 2.109375 -3.90625 C 1.378906 -5.195312 1.015625 -6.644531 1.015625 -8.25 C 1.015625 -9.851562 1.378906 -11.296875 2.109375 -12.578125 C 2.847656 -13.867188 3.847656 -14.875 5.109375 -15.59375 C 6.367188 -16.3125 7.765625 -16.671875 9.296875 -16.671875 C 10.835938 -16.671875 12.238281 -16.3125 13.5 -15.59375 C 14.757812 -14.875 15.75 -13.875 16.46875 -12.59375 C 17.195312 -11.320312 17.5625 -9.875 17.5625 -8.25 C 17.5625 -6.625 17.195312 -5.171875 16.46875 -3.890625 C 15.75 -2.617188 14.757812 -1.625 13.5 -0.90625 C 12.238281 -0.1875 10.835938 0.171875 9.296875 0.171875 Z M 9.296875 -1.703125 C 10.441406 -1.703125 11.472656 -1.96875 12.390625 -2.5 C 13.316406 -3.039062 14.039062 -3.804688 14.5625 -4.796875 C 15.09375 -5.785156 15.359375 -6.9375 15.359375 -8.25 C 15.359375 -9.570312 15.09375 -10.722656 14.5625 -11.703125 C 14.039062 -12.691406 13.320312 -13.453125 12.40625 -13.984375 C 11.5 -14.523438 10.460938 -14.796875 9.296875 -14.796875 C 8.128906 -14.796875 7.085938 -14.523438 6.171875 -13.984375 C 5.253906 -13.453125 4.53125 -12.691406 4 -11.703125 C 3.476562 -10.722656 3.21875 -9.570312 3.21875 -8.25 C 3.21875 -6.9375 3.476562 -5.785156 4 -4.796875 C 4.53125 -3.804688 5.253906 -3.039062 6.171875 -2.5 C 7.097656 -1.96875 8.140625 -1.703125 9.296875 -1.703125 Z M 9.296875 -1.703125 "/></g></g></g><g fill="#3daf36" fill-opacity="1"><g transform="translate(234.454082, 25.220965)"><g><path d="M 14.296875 -11.703125 C 13.835938 -12.660156 13.175781 -13.40625 12.3125 -13.9375 C 11.445312 -14.46875 10.441406 -14.734375 9.296875 -14.734375 C 8.140625 -14.734375 7.097656 -14.46875 6.171875 -13.9375 C 5.253906 -13.40625 4.53125 -12.644531 4 -11.65625 C 3.476562 -10.675781 3.21875 -9.539062 3.21875 -8.25 C 3.21875 -6.957031 3.476562 -5.820312 4 -4.84375 C 4.53125 -3.863281 5.253906 -3.109375 6.171875 -2.578125 C 7.097656 -2.054688 8.140625 -1.796875 9.296875 -1.796875 C 10.898438 -1.796875 12.222656 -2.273438 13.265625 -3.234375 C 14.304688 -4.203125 14.910156 -5.503906 15.078125 -7.140625 L 8.515625 -7.140625 L 8.515625 -8.890625 L 17.375 -8.890625 L 17.375 -7.234375 C 17.25 -5.878906 16.820312 -4.640625 16.09375 -3.515625 C 15.375 -2.390625 14.421875 -1.5 13.234375 -0.84375 C 12.054688 -0.1875 10.742188 0.140625 9.296875 0.140625 C 7.765625 0.140625 6.367188 -0.21875 5.109375 -0.9375 C 3.847656 -1.65625 2.847656 -2.648438 2.109375 -3.921875 C 1.378906 -5.203125 1.015625 -6.644531 1.015625 -8.25 C 1.015625 -9.851562 1.378906 -11.296875 2.109375 -12.578125 C 2.847656 -13.867188 3.847656 -14.875 5.109375 -15.59375 C 6.367188 -16.3125 7.765625 -16.671875 9.296875 -16.671875 C 11.046875 -16.671875 12.59375 -16.234375 13.9375 -15.359375 C 15.28125 -14.492188 16.257812 -13.273438 16.875 -11.703125 Z M 14.296875 -11.703125 "/></g></g></g><g fill="#3daf36" fill-opacity="1"><g transform="translate(266.571779, 25.220965)"><g><path d="M 3.96875 -16.484375 L 3.96875 0 L 1.828125 0 L 1.828125 -16.484375 Z M 3.96875 -16.484375 "/></g></g></g><g fill="#3daf36" fill-opacity="1"><g transform="translate(286.121492, 25.220965)"><g><path d="M 3.96875 -14.734375 L 3.96875 -9.21875 L 9.96875 -9.21875 L 9.96875 -7.453125 L 3.96875 -7.453125 L 3.96875 -1.765625 L 10.6875 -1.765625 L 10.6875 0 L 1.828125 0 L 1.828125 -16.5 L 10.6875 -16.5 L 10.6875 -14.734375 Z M 3.96875 -14.734375 "/></g></g></g><g fill="#3daf36" fill-opacity="1"><g transform="translate(311.97884, 25.220965)"><g><path d="M 7.046875 0.171875 C 5.953125 0.171875 4.976562 -0.0195312 4.125 -0.40625 C 3.269531 -0.800781 2.597656 -1.335938 2.109375 -2.015625 C 1.617188 -2.703125 1.363281 -3.492188 1.34375 -4.390625 L 3.640625 -4.390625 C 3.722656 -3.617188 4.039062 -2.96875 4.59375 -2.4375 C 5.15625 -1.914062 5.972656 -1.65625 7.046875 -1.65625 C 8.066406 -1.65625 8.875 -1.910156 9.46875 -2.421875 C 10.0625 -2.929688 10.359375 -3.585938 10.359375 -4.390625 C 10.359375 -5.023438 10.179688 -5.539062 9.828125 -5.9375 C 9.484375 -6.332031 9.050781 -6.628906 8.53125 -6.828125 C 8.007812 -7.035156 7.3125 -7.257812 6.4375 -7.5 C 5.34375 -7.78125 4.46875 -8.0625 3.8125 -8.34375 C 3.164062 -8.625 2.609375 -9.066406 2.140625 -9.671875 C 1.671875 -10.285156 1.4375 -11.101562 1.4375 -12.125 C 1.4375 -13.019531 1.664062 -13.816406 2.125 -14.515625 C 2.582031 -15.210938 3.222656 -15.75 4.046875 -16.125 C 4.878906 -16.5 5.832031 -16.6875 6.90625 -16.6875 C 8.445312 -16.6875 9.707031 -16.300781 10.6875 -15.53125 C 11.675781 -14.757812 12.234375 -13.734375 12.359375 -12.453125 L 10 -12.453125 C 9.914062 -13.085938 9.582031 -13.644531 9 -14.125 C 8.414062 -14.601562 7.644531 -14.84375 6.6875 -14.84375 C 5.789062 -14.84375 5.054688 -14.609375 4.484375 -14.140625 C 3.921875 -13.679688 3.640625 -13.035156 3.640625 -12.203125 C 3.640625 -11.597656 3.804688 -11.109375 4.140625 -10.734375 C 4.484375 -10.359375 4.898438 -10.070312 5.390625 -9.875 C 5.890625 -9.675781 6.59375 -9.453125 7.5 -9.203125 C 8.582031 -8.898438 9.453125 -8.601562 10.109375 -8.3125 C 10.773438 -8.019531 11.34375 -7.566406 11.8125 -6.953125 C 12.289062 -6.347656 12.53125 -5.523438 12.53125 -4.484375 C 12.53125 -3.679688 12.316406 -2.925781 11.890625 -2.21875 C 11.460938 -1.507812 10.832031 -0.929688 10 -0.484375 C 9.164062 -0.046875 8.179688 0.171875 7.046875 0.171875 Z M 7.046875 0.171875 "/></g></g></g></g></g><g clip-path="url(#fa9e1a6f5d)"><g clip-path="url(#f34e75d9f4)"><g transform="matrix(1, 0, 0, 1, 223, 152)"><g clip-path="url(#6dabe24aa6)"><g clip-path="url(#4005cc4cbd)"><g clip-path="url(#d2339ef0bf)"><path fill="#0e2944" d="M 0.753906 0.695312 L 56.300781 0.695312 L 56.300781 56.242188 L 0.753906 56.242188 Z M 0.753906 0.695312 " fill-opacity="1" fill-rule="nonzero"/></g></g></g></g></g></g><path fill="#3daf36" d="M 251.390625 211.730469 C 247.164062 211.730469 243.058594 210.902344 239.195312 209.265625 C 235.464844 207.6875 232.113281 205.429688 229.234375 202.550781 C 226.359375 199.675781 224.097656 196.324219 222.519531 192.589844 C 220.886719 188.726562 220.058594 184.625 220.058594 180.394531 C 220.058594 176.164062 220.886719 172.0625 222.519531 168.199219 C 224.097656 164.464844 226.359375 161.113281 229.234375 158.238281 C 232.113281 155.359375 235.464844 153.101562 239.195312 151.523438 C 243.058594 149.886719 247.164062 149.058594 251.390625 149.058594 C 255.621094 149.058594 259.726562 149.886719 263.589844 151.523438 C 267.320312 153.101562 270.671875 155.359375 273.550781 158.238281 C 276.425781 161.113281 278.6875 164.464844 280.265625 168.199219 C 281.898438 172.0625 282.726562 176.164062 282.726562 180.394531 C 282.726562 184.625 281.898438 188.726562 280.265625 192.589844 C 278.6875 196.324219 276.425781 199.675781 273.550781 202.550781 C 270.671875 205.429688 267.320312 207.6875 263.589844 209.265625 C 259.726562 210.902344 255.621094 211.730469 251.390625 211.730469 Z M 251.390625 150.460938 C 234.886719 150.460938 221.460938 163.890625 221.460938 180.394531 C 221.460938 196.898438 234.886719 210.328125 251.390625 210.328125 C 267.898438 210.328125 281.324219 196.898438 281.324219 180.394531 C 281.324219 163.890625 267.898438 150.460938 251.390625 150.460938 Z M 251.390625 150.460938 " fill-opacity="1" fill-rule="nonzero"/><g clip-path="url(#fd1b7f7c44)"><path fill="#0e2944" d="M 218.707031 179.453125 L 217.304688 179.429688 C 217.386719 174.320312 218.679688 169.230469 221.042969 164.714844 C 223.320312 160.363281 226.609375 156.511719 230.554688 153.574219 L 231.394531 154.699219 C 227.613281 157.511719 224.464844 161.199219 222.285156 165.363281 C 220.023438 169.6875 218.785156 174.558594 218.707031 179.453125 Z M 218.707031 179.453125 " fill-opacity="1" fill-rule="nonzero"/></g><g clip-path="url(#c570e9f0e9)"><path fill="#0e2944" d="M 231.660156 207.773438 C 230.179688 206.789062 228.769531 205.667969 227.472656 204.449219 C 225.65625 202.738281 224.046875 200.820312 222.691406 198.742188 C 220.078125 194.742188 218.382812 190.113281 217.789062 185.347656 L 219.179688 185.175781 C 219.75 189.730469 221.367188 194.15625 223.863281 197.972656 C 226.113281 201.414062 228.996094 204.320312 232.4375 206.605469 Z M 231.660156 207.773438 " fill-opacity="1" fill-rule="nonzero"/></g><g clip-path="url(#5a4595776b)"><path fill="#0e2944" d="M 236.152344 151.464844 L 235.464844 150.246094 C 237.542969 149.066406 239.765625 148.160156 242.074219 147.550781 C 244.292969 146.964844 246.578125 146.65625 248.871094 146.632812 L 248.886719 148.035156 C 246.707031 148.058594 244.535156 148.351562 242.433594 148.90625 C 240.242188 149.484375 238.128906 150.347656 236.152344 151.464844 Z M 236.152344 151.464844 " fill-opacity="1" fill-rule="nonzero"/></g><g clip-path="url(#9e04322ed0)"><path fill="#0e2944" d="M 264.671875 211.929688 L 264.113281 210.683594 C 267.175781 209.308594 277.511719 203.875 281.933594 191.554688 C 285.753906 180.925781 282.890625 171.539062 281.484375 167.996094 L 282.753906 167.492188 C 283.832031 170.203125 284.59375 173.242188 284.957031 176.28125 C 285.609375 181.699219 285.023438 186.996094 283.222656 192.019531 C 282.101562 195.132812 280.535156 198.054688 278.5625 200.710938 C 276.945312 202.890625 275.042969 204.902344 272.90625 206.699219 C 270.378906 208.824219 267.457031 210.683594 264.671875 211.929688 Z M 264.671875 211.929688 " fill-opacity="1" fill-rule="nonzero"/></g><g clip-path="url(#9cfbb171a0)"><path fill="#0e2944" d="M 253.414062 214.300781 C 252.46875 214.300781 251.527344 214.242188 250.589844 214.132812 L 250.746094 212.777344 C 252.515625 212.984375 254.3125 212.984375 256.078125 212.777344 C 257.941406 212.558594 259.773438 212.109375 261.523438 211.445312 L 262.011719 212.722656 C 260.152344 213.425781 258.210938 213.902344 256.238281 214.132812 C 255.300781 214.242188 254.355469 214.300781 253.414062 214.300781 Z M 253.414062 214.300781 " fill-opacity="1" fill-rule="nonzero"/></g><path fill="#0e2944" d="M 275.203125 158.507812 C 273.746094 156.730469 272.066406 155.136719 270.207031 153.78125 C 268.261719 152.359375 266.132812 151.203125 263.882812 150.339844 L 264.367188 149.066406 C 266.734375 149.96875 268.96875 151.1875 271.015625 152.679688 C 272.964844 154.105469 274.730469 155.773438 276.261719 157.644531 Z M 275.203125 158.507812 " fill-opacity="1" fill-rule="nonzero"/><g clip-path="url(#0c04f04b3f)"><path fill="#3daf36" d="M 263 178.316406 L 253.675781 178.316406 L 253.675781 168.996094 C 253.675781 167.820312 252.730469 166.84375 251.527344 166.84375 C 250.351562 166.84375 249.375 167.792969 249.375 168.996094 L 249.375 178.316406 L 240.054688 178.316406 C 238.878906 178.316406 237.902344 179.265625 237.902344 180.46875 C 237.902344 181.070312 238.132812 181.585938 238.535156 181.988281 C 238.9375 182.390625 239.453125 182.617188 240.054688 182.617188 L 249.375 182.617188 L 249.375 191.941406 C 249.375 192.542969 249.605469 193.058594 250.007812 193.460938 C 250.410156 193.863281 250.925781 194.089844 251.527344 194.089844 C 252.703125 194.089844 253.675781 193.144531 253.675781 191.941406 L 253.675781 182.617188 L 263 182.617188 C 264.175781 182.617188 265.148438 181.671875 265.148438 180.46875 C 265.148438 179.292969 264.203125 178.316406 263 178.316406 " fill-opacity="1" fill-rule="nonzero"/></g></svg>