<svg xmlns="http://www.w3.org/2000/svg" xmlns:xlink="http://www.w3.org/1999/xlink" width="500" zoomAndPan="magnify" viewBox="0 0 375 374.999991" height="500" preserveAspectRatio="xMidYMid meet" version="1.0"><defs><clipPath id="0feadb0510"><path d="M 106 49.460938 L 277 49.460938 L 277 220 L 106 220 Z M 106 49.460938 " clip-rule="nonzero"/></clipPath><clipPath id="3514e518a1"><path d="M 109 157 L 162 157 L 162 325.460938 L 109 325.460938 Z M 109 157 " clip-rule="nonzero"/></clipPath><clipPath id="97d65a94cd"><path d="M 18.898438 171 L 63 171 L 63 215 L 18.898438 215 Z M 18.898438 171 " clip-rule="nonzero"/></clipPath><clipPath id="d8603cfcd1"><path d="M 312 160 L 356.398438 160 L 356.398438 205 L 312 205 Z M 312 160 " clip-rule="nonzero"/></clipPath></defs><rect x="-37.5" width="450" fill="#ffffff" y="-37.499999" height="449.999989" fill-opacity="1"/><rect x="-37.5" width="450" fill="#0e2944" y="-37.499999" height="449.999989" fill-opacity="1"/><path fill="#3daf36" d="M 204.996094 159.457031 C 219.429688 159.457031 231.050781 147.835938 231.050781 133.53125 C 231.050781 119.097656 219.429688 107.472656 204.996094 107.472656 C 194.652344 107.472656 185.710938 113.605469 181.621094 122.289062 L 108.820312 122.289062 C 104.347656 114.753906 96.046875 109.644531 86.59375 109.644531 C 72.289062 109.644531 60.667969 121.269531 60.667969 135.574219 C 60.667969 147.453125 68.457031 157.414062 79.316406 160.480469 L 79.1875 226.515625 C 68.332031 229.707031 60.410156 239.671875 60.410156 251.546875 C 60.410156 265.855469 72.035156 277.476562 86.46875 277.476562 C 100.773438 277.476562 112.394531 265.855469 112.394531 251.546875 C 112.394531 240.820312 105.882812 231.625 96.683594 227.664062 L 96.941406 159.457031 C 104.859375 156.011719 110.734375 148.730469 112.140625 139.917969 L 179.835938 139.917969 C 182.773438 151.15625 192.863281 159.457031 204.996094 159.457031 Z M 204.996094 159.457031 " fill-opacity="1" fill-rule="evenodd"/><path fill="#3daf36" d="M 177.40625 220.640625 C 163.101562 220.640625 151.480469 232.261719 151.480469 246.695312 C 151.480469 261 163.101562 272.625 177.40625 272.625 C 187.753906 272.625 196.695312 266.492188 200.910156 257.808594 L 273.585938 257.808594 C 278.054688 265.34375 286.359375 270.453125 295.9375 270.453125 C 310.242188 270.453125 321.867188 258.828125 321.867188 244.523438 C 321.867188 232.644531 313.945312 222.683594 303.089844 219.617188 L 303.34375 153.582031 C 314.074219 150.390625 321.992188 140.425781 321.992188 128.675781 C 321.992188 114.242188 310.371094 102.621094 296.066406 102.621094 C 281.632812 102.621094 270.007812 114.242188 270.007812 128.675781 C 270.007812 139.277344 276.523438 148.472656 285.71875 152.433594 L 285.589844 220.640625 C 277.671875 224.085938 271.796875 231.367188 270.265625 240.179688 L 202.570312 240.179688 C 199.757812 228.941406 189.542969 220.640625 177.40625 220.640625 Z M 177.40625 220.640625 " fill-opacity="1" fill-rule="evenodd"/><g clip-path="url(#0feadb0510)"><path fill="#ffffff" d="M 132.320312 101.34375 C 118.015625 101.34375 106.390625 89.71875 106.390625 75.414062 C 106.390625 61.109375 118.015625 49.488281 132.320312 49.488281 C 142.667969 49.488281 151.605469 55.488281 155.820312 64.304688 L 228.496094 64.304688 C 233.097656 56.765625 241.269531 51.65625 250.851562 51.65625 C 265.15625 51.65625 276.777344 63.28125 276.777344 77.585938 C 276.777344 89.335938 268.859375 99.425781 258.128906 102.492188 L 258.257812 168.527344 C 268.988281 171.71875 276.90625 181.683594 276.90625 193.433594 C 276.90625 207.738281 265.28125 219.363281 250.976562 219.363281 C 236.671875 219.363281 225.050781 207.738281 225.050781 193.433594 C 225.050781 182.832031 231.4375 173.636719 240.632812 169.675781 L 240.503906 101.34375 C 232.585938 98.023438 226.710938 90.613281 225.175781 81.929688 L 157.484375 81.929688 C 154.671875 93.042969 144.453125 101.34375 132.320312 101.34375 Z M 132.320312 101.34375 " fill-opacity="1" fill-rule="evenodd"/></g><g clip-path="url(#3514e518a1)"><path fill="#ffffff" d="M 135.386719 157.796875 C 149.691406 157.796875 161.3125 169.421875 161.3125 183.726562 C 161.3125 195.476562 153.523438 205.441406 142.667969 208.632812 L 142.792969 274.667969 C 153.652344 277.859375 161.570312 287.824219 161.570312 299.574219 C 161.570312 313.878906 149.945312 325.5 135.515625 325.5 C 121.207031 325.5 109.585938 313.878906 109.585938 299.574219 C 109.585938 288.972656 116.097656 279.777344 125.296875 275.816406 L 125.039062 207.484375 C 118.652344 204.800781 113.671875 199.4375 111.117188 192.921875 C 104.859375 176.445312 115.84375 157.796875 135.386719 157.796875 Z M 135.386719 157.796875 " fill-opacity="1" fill-rule="evenodd"/></g><g clip-path="url(#97d65a94cd)"><path fill="#3daf36" d="M 62.582031 193.050781 C 62.582031 193.765625 62.546875 194.480469 62.476562 195.191406 C 62.40625 195.902344 62.300781 196.609375 62.164062 197.3125 C 62.023438 198.011719 61.851562 198.707031 61.640625 199.390625 C 61.433594 200.074219 61.195312 200.746094 60.921875 201.410156 C 60.644531 202.070312 60.339844 202.714844 60.003906 203.347656 C 59.667969 203.976562 59.300781 204.589844 58.902344 205.183594 C 58.503906 205.78125 58.078125 206.351562 57.625 206.90625 C 57.171875 207.460938 56.691406 207.988281 56.183594 208.496094 C 55.679688 209 55.148438 209.480469 54.597656 209.933594 C 54.042969 210.386719 53.46875 210.8125 52.875 211.210938 C 52.28125 211.609375 51.667969 211.976562 51.039062 212.3125 C 50.40625 212.648438 49.761719 212.953125 49.101562 213.230469 C 48.4375 213.503906 47.765625 213.742188 47.082031 213.949219 C 46.398438 214.160156 45.703125 214.332031 45.003906 214.472656 C 44.300781 214.609375 43.59375 214.714844 42.882812 214.785156 C 42.171875 214.855469 41.457031 214.890625 40.742188 214.890625 C 40.027344 214.890625 39.3125 214.855469 38.601562 214.785156 C 37.890625 214.714844 37.183594 214.609375 36.480469 214.472656 C 35.777344 214.332031 35.085938 214.160156 34.402344 213.949219 C 33.71875 213.742188 33.042969 213.503906 32.382812 213.230469 C 31.722656 212.953125 31.078125 212.648438 30.445312 212.3125 C 29.816406 211.976562 29.203125 211.609375 28.605469 211.210938 C 28.011719 210.8125 27.4375 210.386719 26.886719 209.933594 C 26.332031 209.480469 25.804688 209 25.296875 208.496094 C 24.792969 207.988281 24.3125 207.460938 23.859375 206.90625 C 23.402344 206.351562 22.980469 205.78125 22.582031 205.183594 C 22.183594 204.589844 21.816406 203.976562 21.480469 203.347656 C 21.140625 202.714844 20.835938 202.070312 20.5625 201.410156 C 20.289062 200.746094 20.046875 200.074219 19.839844 199.390625 C 19.632812 198.707031 19.460938 198.011719 19.320312 197.3125 C 19.179688 196.609375 19.074219 195.902344 19.003906 195.191406 C 18.933594 194.480469 18.898438 193.765625 18.898438 193.050781 C 18.898438 192.335938 18.933594 191.621094 19.003906 190.910156 C 19.074219 190.199219 19.179688 189.492188 19.320312 188.789062 C 19.460938 188.085938 19.632812 187.394531 19.839844 186.710938 C 20.046875 186.027344 20.289062 185.351562 20.5625 184.691406 C 20.835938 184.03125 21.140625 183.386719 21.480469 182.753906 C 21.816406 182.125 22.183594 181.511719 22.582031 180.917969 C 22.980469 180.320312 23.402344 179.746094 23.859375 179.195312 C 24.3125 178.640625 24.792969 178.113281 25.296875 177.605469 C 25.804688 177.101562 26.332031 176.621094 26.886719 176.167969 C 27.4375 175.714844 28.011719 175.289062 28.605469 174.890625 C 29.203125 174.492188 29.816406 174.125 30.445312 173.789062 C 31.078125 173.449219 31.722656 173.144531 32.382812 172.871094 C 33.042969 172.597656 33.71875 172.355469 34.402344 172.148438 C 35.085938 171.941406 35.777344 171.769531 36.480469 171.628906 C 37.183594 171.488281 37.890625 171.382812 38.601562 171.3125 C 39.3125 171.246094 40.027344 171.210938 40.742188 171.210938 C 41.457031 171.210938 42.171875 171.246094 42.882812 171.3125 C 43.59375 171.382812 44.300781 171.488281 45.003906 171.628906 C 45.703125 171.769531 46.398438 171.941406 47.082031 172.148438 C 47.765625 172.355469 48.4375 172.597656 49.101562 172.871094 C 49.761719 173.144531 50.40625 173.449219 51.039062 173.789062 C 51.667969 174.125 52.28125 174.492188 52.875 174.890625 C 53.46875 175.289062 54.042969 175.714844 54.597656 176.167969 C 55.148438 176.621094 55.679688 177.101562 56.183594 177.605469 C 56.691406 178.113281 57.171875 178.640625 57.625 179.195312 C 58.078125 179.746094 58.503906 180.320312 58.902344 180.917969 C 59.300781 181.511719 59.667969 182.125 60.003906 182.753906 C 60.339844 183.386719 60.644531 184.03125 60.921875 184.691406 C 61.195312 185.351562 61.433594 186.027344 61.640625 186.710938 C 61.851562 187.394531 62.023438 188.085938 62.164062 188.789062 C 62.300781 189.492188 62.40625 190.199219 62.476562 190.910156 C 62.546875 191.621094 62.582031 192.335938 62.582031 193.050781 Z M 62.582031 193.050781 " fill-opacity="1" fill-rule="nonzero"/></g><g clip-path="url(#d8603cfcd1)"><path fill="#3daf36" d="M 356.09375 182.195312 C 356.09375 182.910156 356.0625 183.621094 355.992188 184.335938 C 355.921875 185.046875 355.816406 185.753906 355.675781 186.453125 C 355.535156 187.15625 355.363281 187.847656 355.15625 188.535156 C 354.949219 189.21875 354.707031 189.890625 354.433594 190.550781 C 354.160156 191.210938 353.855469 191.859375 353.515625 192.488281 C 353.179688 193.121094 352.8125 193.734375 352.414062 194.328125 C 352.015625 194.921875 351.59375 195.496094 351.136719 196.050781 C 350.683594 196.601562 350.203125 197.132812 349.699219 197.636719 C 349.191406 198.144531 348.664062 198.625 348.109375 199.078125 C 347.558594 199.53125 346.984375 199.957031 346.390625 200.355469 C 345.792969 200.75 345.179688 201.117188 344.550781 201.457031 C 343.917969 201.792969 343.273438 202.097656 342.613281 202.371094 C 341.953125 202.644531 341.277344 202.886719 340.59375 203.09375 C 339.910156 203.300781 339.21875 203.476562 338.515625 203.613281 C 337.8125 203.753906 337.105469 203.859375 336.394531 203.929688 C 335.683594 204 334.96875 204.035156 334.253906 204.035156 C 333.539062 204.035156 332.824219 204 332.113281 203.929688 C 331.402344 203.859375 330.695312 203.753906 329.992188 203.613281 C 329.292969 203.476562 328.597656 203.300781 327.914062 203.09375 C 327.230469 202.886719 326.558594 202.644531 325.894531 202.371094 C 325.234375 202.097656 324.589844 201.792969 323.957031 201.457031 C 323.328125 201.117188 322.714844 200.75 322.121094 200.355469 C 321.527344 199.957031 320.953125 199.53125 320.398438 199.078125 C 319.847656 198.625 319.316406 198.144531 318.8125 197.636719 C 318.304688 197.132812 317.824219 196.601562 317.371094 196.050781 C 316.917969 195.496094 316.492188 194.921875 316.09375 194.328125 C 315.695312 193.734375 315.328125 193.121094 314.992188 192.488281 C 314.65625 191.859375 314.351562 191.210938 314.074219 190.550781 C 313.800781 189.890625 313.5625 189.21875 313.355469 188.535156 C 313.144531 187.847656 312.972656 187.15625 312.832031 186.453125 C 312.695312 185.753906 312.589844 185.046875 312.519531 184.335938 C 312.449219 183.621094 312.414062 182.910156 312.414062 182.195312 C 312.414062 181.476562 312.449219 180.765625 312.519531 180.054688 C 312.589844 179.339844 312.695312 178.632812 312.832031 177.933594 C 312.972656 177.230469 313.144531 176.539062 313.355469 175.851562 C 313.5625 175.167969 313.800781 174.496094 314.074219 173.835938 C 314.351562 173.175781 314.65625 172.527344 314.992188 171.898438 C 315.328125 171.265625 315.695312 170.652344 316.09375 170.058594 C 316.492188 169.464844 316.917969 168.890625 317.371094 168.335938 C 317.824219 167.785156 318.304688 167.253906 318.8125 166.75 C 319.316406 166.242188 319.847656 165.765625 320.398438 165.308594 C 320.953125 164.855469 321.527344 164.429688 322.121094 164.035156 C 322.714844 163.636719 323.328125 163.269531 323.957031 162.929688 C 324.589844 162.59375 325.234375 162.289062 325.894531 162.015625 C 326.558594 161.742188 327.230469 161.5 327.914062 161.292969 C 328.597656 161.085938 329.292969 160.910156 329.992188 160.773438 C 330.695312 160.632812 331.402344 160.527344 332.113281 160.457031 C 332.824219 160.386719 333.539062 160.351562 334.253906 160.351562 C 334.96875 160.351562 335.683594 160.386719 336.394531 160.457031 C 337.105469 160.527344 337.8125 160.632812 338.515625 160.773438 C 339.21875 160.910156 339.910156 161.085938 340.59375 161.292969 C 341.277344 161.5 341.953125 161.742188 342.613281 162.015625 C 343.273438 162.289062 343.917969 162.59375 344.550781 162.929688 C 345.179688 163.269531 345.792969 163.636719 346.390625 164.035156 C 346.984375 164.429688 347.558594 164.855469 348.109375 165.308594 C 348.664062 165.765625 349.191406 166.242188 349.699219 166.75 C 350.203125 167.253906 350.683594 167.785156 351.136719 168.335938 C 351.59375 168.890625 352.015625 169.464844 352.414062 170.058594 C 352.8125 170.652344 353.179688 171.265625 353.515625 171.898438 C 353.855469 172.527344 354.160156 173.175781 354.433594 173.835938 C 354.707031 174.496094 354.949219 175.167969 355.15625 175.851562 C 355.363281 176.539062 355.535156 177.230469 355.675781 177.933594 C 355.816406 178.632812 355.921875 179.339844 355.992188 180.054688 C 356.0625 180.765625 356.09375 181.476562 356.09375 182.195312 Z M 356.09375 182.195312 " fill-opacity="1" fill-rule="nonzero"/></g></svg>