<svg xmlns="http://www.w3.org/2000/svg" xmlns:xlink="http://www.w3.org/1999/xlink" width="500" zoomAndPan="magnify" viewBox="0 0 375 374.999991" height="500" preserveAspectRatio="xMidYMid meet" version="1.0"><defs><g/><clipPath id="0dd9d90b7f"><path d="M 51 161.214844 L 90 161.214844 L 90 200 L 51 200 Z M 51 161.214844 " clip-rule="nonzero"/></clipPath><clipPath id="459556c074"><path d="M 52 185 L 65 185 L 65 222.714844 L 52 222.714844 Z M 52 185 " clip-rule="nonzero"/></clipPath><clipPath id="25099519a1"><path d="M 32.183594 188 L 42 188 L 42 199 L 32.183594 199 Z M 32.183594 188 " clip-rule="nonzero"/></clipPath><clipPath id="2b9202118d"><path d="M 97 186 L 107.933594 186 L 107.933594 196 L 97 196 Z M 97 186 " clip-rule="nonzero"/></clipPath><clipPath id="b7824de5ce"><rect x="0" width="223" y="0" height="81"/></clipPath><clipPath id="c32a791b89"><rect x="0" width="234" y="0" height="24"/></clipPath></defs><rect x="-37.5" width="450" fill="#ffffff" y="-37.499999" height="449.999989" fill-opacity="1"/><rect x="-37.5" width="450" fill="#0e2944" y="-37.499999" height="449.999989" fill-opacity="1"/><path fill="#3daf36" d="M 73.816406 185.820312 C 77.042969 185.820312 79.644531 183.21875 79.644531 180.019531 C 79.644531 176.789062 77.042969 174.191406 73.816406 174.191406 C 71.5 174.191406 69.5 175.5625 68.585938 177.503906 L 52.300781 177.503906 C 51.300781 175.820312 49.441406 174.675781 47.328125 174.675781 C 44.128906 174.675781 41.527344 177.277344 41.527344 180.476562 C 41.527344 183.132812 43.269531 185.363281 45.699219 186.046875 L 45.671875 200.820312 C 43.242188 201.535156 41.46875 203.765625 41.46875 206.421875 C 41.46875 209.621094 44.070312 212.222656 47.300781 212.222656 C 50.5 212.222656 53.097656 209.621094 53.097656 206.421875 C 53.097656 204.019531 51.640625 201.964844 49.585938 201.078125 L 49.640625 185.820312 C 51.414062 185.046875 52.726562 183.417969 53.042969 181.449219 L 68.1875 181.449219 C 68.84375 183.960938 71.101562 185.820312 73.816406 185.820312 Z M 73.816406 185.820312 " fill-opacity="1" fill-rule="evenodd"/><path fill="#3daf36" d="M 67.644531 199.507812 C 64.441406 199.507812 61.84375 202.105469 61.84375 205.335938 C 61.84375 208.535156 64.441406 211.136719 67.644531 211.136719 C 69.957031 211.136719 71.957031 209.765625 72.902344 207.820312 L 89.160156 207.820312 C 90.160156 209.507812 92.015625 210.648438 94.160156 210.648438 C 97.359375 210.648438 99.960938 208.050781 99.960938 204.851562 C 99.960938 202.191406 98.1875 199.964844 95.757812 199.277344 L 95.816406 184.503906 C 98.214844 183.792969 99.988281 181.5625 99.988281 178.933594 C 99.988281 175.703125 97.386719 173.105469 94.1875 173.105469 C 90.960938 173.105469 88.359375 175.703125 88.359375 178.933594 C 88.359375 181.304688 89.816406 183.363281 91.875 184.25 L 91.84375 199.507812 C 90.074219 200.277344 88.757812 201.90625 88.414062 203.878906 L 73.273438 203.878906 C 72.644531 201.363281 70.359375 199.507812 67.644531 199.507812 Z M 67.644531 199.507812 " fill-opacity="1" fill-rule="evenodd"/><g clip-path="url(#0dd9d90b7f)"><path fill="#ffffff" d="M 57.558594 172.820312 C 54.355469 172.820312 51.757812 170.21875 51.757812 167.019531 C 51.757812 163.820312 54.355469 161.21875 57.558594 161.21875 C 59.871094 161.21875 61.871094 162.5625 62.8125 164.53125 L 79.074219 164.53125 C 80.101562 162.847656 81.929688 161.703125 84.074219 161.703125 C 87.273438 161.703125 89.875 164.304688 89.875 167.503906 C 89.875 170.132812 88.101562 172.390625 85.703125 173.078125 L 85.730469 187.847656 C 88.128906 188.5625 89.902344 190.792969 89.902344 193.421875 C 89.902344 196.621094 87.300781 199.222656 84.101562 199.222656 C 80.902344 199.222656 78.300781 196.621094 78.300781 193.421875 C 78.300781 191.050781 79.730469 188.992188 81.785156 188.105469 L 81.757812 172.820312 C 79.988281 172.078125 78.671875 170.417969 78.328125 168.476562 L 63.1875 168.476562 C 62.558594 170.960938 60.269531 172.820312 57.558594 172.820312 Z M 57.558594 172.820312 " fill-opacity="1" fill-rule="evenodd"/></g><g clip-path="url(#459556c074)"><path fill="#ffffff" d="M 58.242188 185.449219 C 61.441406 185.449219 64.042969 188.046875 64.042969 191.25 C 64.042969 193.878906 62.300781 196.105469 59.871094 196.820312 L 59.898438 211.59375 C 62.328125 212.308594 64.101562 214.535156 64.101562 217.164062 C 64.101562 220.363281 61.5 222.964844 58.269531 222.964844 C 55.070312 222.964844 52.472656 220.363281 52.472656 217.164062 C 52.472656 214.792969 53.929688 212.734375 55.984375 211.851562 L 55.929688 196.5625 C 54.5 195.964844 53.386719 194.761719 52.8125 193.304688 C 51.414062 189.621094 53.871094 185.449219 58.242188 185.449219 Z M 58.242188 185.449219 " fill-opacity="1" fill-rule="evenodd"/></g><g clip-path="url(#25099519a1)"><path fill="#3daf36" d="M 41.957031 193.335938 C 41.957031 193.65625 41.925781 193.972656 41.863281 194.289062 C 41.800781 194.601562 41.707031 194.90625 41.582031 195.203125 C 41.460938 195.5 41.308594 195.78125 41.132812 196.050781 C 40.953125 196.316406 40.75 196.5625 40.523438 196.789062 C 40.296875 197.015625 40.050781 197.21875 39.785156 197.398438 C 39.515625 197.574219 39.234375 197.726562 38.941406 197.847656 C 38.644531 197.972656 38.335938 198.0625 38.023438 198.125 C 37.707031 198.191406 37.390625 198.222656 37.070312 198.222656 C 36.75 198.222656 36.429688 198.191406 36.117188 198.125 C 35.800781 198.0625 35.496094 197.972656 35.199219 197.847656 C 34.902344 197.726562 34.621094 197.574219 34.355469 197.398438 C 34.089844 197.21875 33.839844 197.015625 33.613281 196.789062 C 33.386719 196.5625 33.183594 196.316406 33.007812 196.050781 C 32.828125 195.78125 32.679688 195.5 32.554688 195.203125 C 32.433594 194.90625 32.339844 194.601562 32.277344 194.289062 C 32.214844 193.972656 32.183594 193.65625 32.183594 193.335938 C 32.183594 193.015625 32.214844 192.695312 32.277344 192.382812 C 32.339844 192.066406 32.433594 191.761719 32.554688 191.464844 C 32.679688 191.167969 32.828125 190.886719 33.007812 190.621094 C 33.183594 190.351562 33.386719 190.105469 33.613281 189.878906 C 33.839844 189.652344 34.089844 189.449219 34.355469 189.273438 C 34.621094 189.09375 34.902344 188.945312 35.199219 188.820312 C 35.496094 188.699219 35.800781 188.605469 36.117188 188.542969 C 36.429688 188.480469 36.75 188.449219 37.070312 188.449219 C 37.390625 188.449219 37.707031 188.480469 38.023438 188.542969 C 38.335938 188.605469 38.644531 188.699219 38.941406 188.820312 C 39.234375 188.945312 39.515625 189.09375 39.785156 189.273438 C 40.050781 189.449219 40.296875 189.652344 40.523438 189.878906 C 40.75 190.105469 40.953125 190.351562 41.132812 190.621094 C 41.308594 190.886719 41.460938 191.167969 41.582031 191.464844 C 41.707031 191.761719 41.800781 192.066406 41.863281 192.382812 C 41.925781 192.695312 41.957031 193.015625 41.957031 193.335938 Z M 41.957031 193.335938 " fill-opacity="1" fill-rule="nonzero"/></g><g clip-path="url(#2b9202118d)"><path fill="#3daf36" d="M 107.617188 190.90625 C 107.617188 191.226562 107.585938 191.542969 107.523438 191.859375 C 107.460938 192.175781 107.367188 192.480469 107.246094 192.777344 C 107.121094 193.070312 106.972656 193.355469 106.792969 193.621094 C 106.617188 193.886719 106.414062 194.132812 106.1875 194.359375 C 105.960938 194.585938 105.710938 194.789062 105.445312 194.96875 C 105.179688 195.148438 104.898438 195.296875 104.601562 195.421875 C 104.304688 195.542969 104 195.636719 103.683594 195.699219 C 103.371094 195.761719 103.050781 195.792969 102.730469 195.792969 C 102.410156 195.792969 102.09375 195.761719 101.777344 195.699219 C 101.464844 195.636719 101.15625 195.542969 100.863281 195.421875 C 100.566406 195.296875 100.285156 195.148438 100.015625 194.96875 C 99.75 194.789062 99.503906 194.585938 99.277344 194.359375 C 99.050781 194.132812 98.847656 193.886719 98.667969 193.621094 C 98.492188 193.355469 98.339844 193.070312 98.21875 192.777344 C 98.09375 192.480469 98 192.175781 97.9375 191.859375 C 97.875 191.542969 97.84375 191.226562 97.84375 190.90625 C 97.84375 190.585938 97.875 190.265625 97.9375 189.953125 C 98 189.636719 98.09375 189.332031 98.21875 189.035156 C 98.339844 188.738281 98.492188 188.457031 98.667969 188.191406 C 98.847656 187.925781 99.050781 187.679688 99.277344 187.449219 C 99.503906 187.222656 99.75 187.023438 100.015625 186.84375 C 100.285156 186.664062 100.566406 186.515625 100.863281 186.390625 C 101.15625 186.269531 101.464844 186.175781 101.777344 186.113281 C 102.09375 186.050781 102.410156 186.019531 102.730469 186.019531 C 103.050781 186.019531 103.371094 186.050781 103.683594 186.113281 C 104 186.175781 104.304688 186.269531 104.601562 186.390625 C 104.898438 186.515625 105.179688 186.664062 105.445312 186.84375 C 105.710938 187.023438 105.960938 187.222656 106.1875 187.449219 C 106.414062 187.679688 106.617188 187.925781 106.792969 188.191406 C 106.972656 188.457031 107.121094 188.738281 107.246094 189.035156 C 107.367188 189.332031 107.460938 189.636719 107.523438 189.953125 C 107.585938 190.265625 107.617188 190.585938 107.617188 190.90625 Z M 107.617188 190.90625 " fill-opacity="1" fill-rule="nonzero"/></g><g transform="matrix(1, 0, 0, 1, 112, 141)"><g clip-path="url(#b7824de5ce)"><g fill="#ffffff" fill-opacity="1"><g transform="translate(2.472576, 59.528095)"><g><path d="M 28.71875 -6.578125 L 14.421875 -6.578125 L 12.25 0 L 0.453125 0 L 15.15625 -40.34375 L 28.09375 -40.34375 L 42.75 0 L 30.890625 0 Z M 25.921875 -15.15625 L 21.578125 -28.203125 L 17.28125 -15.15625 Z M 25.921875 -15.15625 "/></g></g></g><g fill="#ffffff" fill-opacity="1"><g transform="translate(45.671004, 59.528095)"><g><path d="M 14.421875 -8.578125 L 26.953125 -8.578125 L 26.953125 0 L 3.203125 0 L 3.203125 -40.34375 L 14.421875 -40.34375 Z M 14.421875 -8.578125 "/></g></g></g><g fill="#ffffff" fill-opacity="1"><g transform="translate(73.764282, 59.528095)"><g><path d="M 27.0625 0 L 14.421875 -17.6875 L 14.421875 0 L 3.203125 0 L 3.203125 -40.34375 L 14.421875 -40.34375 L 14.421875 -22.9375 L 26.953125 -40.34375 L 39.875 -40.34375 L 25.0625 -20.765625 L 40.625 0 Z M 27.0625 0 "/></g></g></g><g fill="#ffffff" fill-opacity="1"><g transform="translate(115.303445, 59.528095)"><g><path d="M 14.421875 -40.34375 L 14.421875 0 L 3.203125 0 L 3.203125 -40.34375 Z M 14.421875 -40.34375 "/></g></g></g><g fill="#ffffff" fill-opacity="1"><g transform="translate(132.926112, 59.528095)"><g><path d="M 22.546875 0.40625 C 18.765625 0.40625 15.289062 -0.476562 12.125 -2.25 C 8.957031 -4.03125 6.445312 -6.492188 4.59375 -9.640625 C 2.75 -12.785156 1.828125 -16.34375 1.828125 -20.3125 C 1.828125 -24.28125 2.75 -27.835938 4.59375 -30.984375 C 6.445312 -34.128906 8.957031 -36.578125 12.125 -38.328125 C 15.289062 -40.085938 18.765625 -40.96875 22.546875 -40.96875 C 26.359375 -40.96875 29.835938 -40.085938 32.984375 -38.328125 C 36.128906 -36.578125 38.617188 -34.128906 40.453125 -30.984375 C 42.285156 -27.835938 43.203125 -24.28125 43.203125 -20.3125 C 43.203125 -16.34375 42.285156 -12.785156 40.453125 -9.640625 C 38.617188 -6.492188 36.117188 -4.03125 32.953125 -2.25 C 29.785156 -0.476562 26.316406 0.40625 22.546875 0.40625 Z M 22.546875 -10.015625 C 25.398438 -10.015625 27.65625 -10.945312 29.3125 -12.8125 C 30.976562 -14.6875 31.8125 -17.1875 31.8125 -20.3125 C 31.8125 -23.519531 30.976562 -26.046875 29.3125 -27.890625 C 27.65625 -29.742188 25.398438 -30.671875 22.546875 -30.671875 C 19.648438 -30.671875 17.378906 -29.742188 15.734375 -27.890625 C 14.097656 -26.046875 13.28125 -23.519531 13.28125 -20.3125 C 13.28125 -17.144531 14.097656 -14.632812 15.734375 -12.78125 C 17.378906 -10.9375 19.648438 -10.015625 22.546875 -10.015625 Z M 22.546875 -10.015625 "/></g></g></g><g fill="#ffffff" fill-opacity="1"><g transform="translate(177.955478, 59.528095)"><g><path d="M 40.5625 0 L 29.359375 0 L 14.421875 -22.546875 L 14.421875 0 L 3.203125 0 L 3.203125 -40.34375 L 14.421875 -40.34375 L 29.359375 -17.515625 L 29.359375 -40.34375 L 40.5625 -40.34375 Z M 40.5625 0 "/></g></g></g></g></g><g transform="matrix(1, 0, 0, 1, 112, 204)"><g clip-path="url(#c32a791b89)"><g fill="#3daf36" fill-opacity="1"><g transform="translate(0.854895, 18.257312)"><g><path d="M 8.203125 -11.296875 L 8.203125 -10.09375 L 5.125 -10.09375 L 5.125 0 L 3.640625 0 L 3.640625 -10.09375 L 0.546875 -10.09375 L 0.546875 -11.296875 Z M 8.203125 -11.296875 "/></g></g></g><g fill="#3daf36" fill-opacity="1"><g transform="translate(19.027279, 18.257312)"><g><path d="M 2.71875 -10.09375 L 2.71875 -6.3125 L 6.84375 -6.3125 L 6.84375 -5.109375 L 2.71875 -5.109375 L 2.71875 -1.21875 L 7.328125 -1.21875 L 7.328125 0 L 1.25 0 L 1.25 -11.3125 L 7.328125 -11.3125 L 7.328125 -10.09375 Z M 2.71875 -10.09375 "/></g></g></g><g fill="#3daf36" fill-opacity="1"><g transform="translate(36.746386, 18.257312)"><g><path d="M 0.703125 -5.65625 C 0.703125 -6.757812 0.945312 -7.75 1.4375 -8.625 C 1.9375 -9.507812 2.613281 -10.195312 3.46875 -10.6875 C 4.332031 -11.1875 5.285156 -11.4375 6.328125 -11.4375 C 7.566406 -11.4375 8.644531 -11.140625 9.5625 -10.546875 C 10.476562 -9.953125 11.144531 -9.109375 11.5625 -8.015625 L 9.796875 -8.015625 C 9.484375 -8.703125 9.03125 -9.226562 8.4375 -9.59375 C 7.851562 -9.957031 7.148438 -10.140625 6.328125 -10.140625 C 5.546875 -10.140625 4.835938 -9.957031 4.203125 -9.59375 C 3.578125 -9.226562 3.085938 -8.707031 2.734375 -8.03125 C 2.378906 -7.351562 2.203125 -6.5625 2.203125 -5.65625 C 2.203125 -4.757812 2.378906 -3.972656 2.734375 -3.296875 C 3.085938 -2.617188 3.578125 -2.097656 4.203125 -1.734375 C 4.835938 -1.367188 5.546875 -1.1875 6.328125 -1.1875 C 7.148438 -1.1875 7.851562 -1.363281 8.4375 -1.71875 C 9.03125 -2.082031 9.484375 -2.609375 9.796875 -3.296875 L 11.5625 -3.296875 C 11.144531 -2.210938 10.476562 -1.375 9.5625 -0.78125 C 8.644531 -0.195312 7.566406 0.09375 6.328125 0.09375 C 5.285156 0.09375 4.332031 -0.148438 3.46875 -0.640625 C 2.613281 -1.128906 1.9375 -1.8125 1.4375 -2.6875 C 0.945312 -3.5625 0.703125 -4.550781 0.703125 -5.65625 Z M 0.703125 -5.65625 "/></g></g></g><g fill="#3daf36" fill-opacity="1"><g transform="translate(58.658366, 18.257312)"><g><path d="M 9.953125 -11.296875 L 9.953125 0 L 8.46875 0 L 8.46875 -5.125 L 2.71875 -5.125 L 2.71875 0 L 1.25 0 L 1.25 -11.296875 L 2.71875 -11.296875 L 2.71875 -6.328125 L 8.46875 -6.328125 L 8.46875 -11.296875 Z M 9.953125 -11.296875 "/></g></g></g><g fill="#3daf36" fill-opacity="1"><g transform="translate(79.275253, 18.257312)"><g><path d="M 10.125 0 L 8.65625 0 L 2.71875 -9 L 2.71875 0 L 1.25 0 L 1.25 -11.3125 L 2.71875 -11.3125 L 8.65625 -2.328125 L 8.65625 -11.3125 L 10.125 -11.3125 Z M 10.125 0 "/></g></g></g><g fill="#3daf36" fill-opacity="1"><g transform="translate(100.070213, 18.257312)"><g><path d="M 6.375 0.109375 C 5.320312 0.109375 4.363281 -0.132812 3.5 -0.625 C 2.632812 -1.113281 1.953125 -1.796875 1.453125 -2.671875 C 0.953125 -3.554688 0.703125 -4.550781 0.703125 -5.65625 C 0.703125 -6.757812 0.953125 -7.75 1.453125 -8.625 C 1.953125 -9.507812 2.632812 -10.195312 3.5 -10.6875 C 4.363281 -11.175781 5.320312 -11.421875 6.375 -11.421875 C 7.425781 -11.421875 8.382812 -11.175781 9.25 -10.6875 C 10.113281 -10.195312 10.789062 -9.515625 11.28125 -8.640625 C 11.78125 -7.765625 12.03125 -6.769531 12.03125 -5.65625 C 12.03125 -4.539062 11.78125 -3.546875 11.28125 -2.671875 C 10.789062 -1.796875 10.113281 -1.113281 9.25 -0.625 C 8.382812 -0.132812 7.425781 0.109375 6.375 0.109375 Z M 6.375 -1.171875 C 7.15625 -1.171875 7.863281 -1.351562 8.5 -1.71875 C 9.132812 -2.082031 9.628906 -2.601562 9.984375 -3.28125 C 10.347656 -3.96875 10.53125 -4.757812 10.53125 -5.65625 C 10.53125 -6.5625 10.347656 -7.351562 9.984375 -8.03125 C 9.628906 -8.707031 9.132812 -9.226562 8.5 -9.59375 C 7.875 -9.957031 7.164062 -10.140625 6.375 -10.140625 C 5.570312 -10.140625 4.859375 -9.957031 4.234375 -9.59375 C 3.609375 -9.226562 3.113281 -8.707031 2.75 -8.03125 C 2.382812 -7.351562 2.203125 -6.5625 2.203125 -5.65625 C 2.203125 -4.757812 2.382812 -3.96875 2.75 -3.28125 C 3.113281 -2.601562 3.609375 -2.082031 4.234375 -1.71875 C 4.867188 -1.351562 5.582031 -1.171875 6.375 -1.171875 Z M 6.375 -1.171875 "/></g></g></g><g fill="#3daf36" fill-opacity="1"><g transform="translate(122.208837, 18.257312)"><g><path d="M 2.71875 -1.203125 L 6.671875 -1.203125 L 6.671875 0 L 1.25 0 L 1.25 -11.296875 L 2.71875 -11.296875 Z M 2.71875 -1.203125 "/></g></g></g><g fill="#3daf36" fill-opacity="1"><g transform="translate(138.616661, 18.257312)"><g><path d="M 6.375 0.109375 C 5.320312 0.109375 4.363281 -0.132812 3.5 -0.625 C 2.632812 -1.113281 1.953125 -1.796875 1.453125 -2.671875 C 0.953125 -3.554688 0.703125 -4.550781 0.703125 -5.65625 C 0.703125 -6.757812 0.953125 -7.75 1.453125 -8.625 C 1.953125 -9.507812 2.632812 -10.195312 3.5 -10.6875 C 4.363281 -11.175781 5.320312 -11.421875 6.375 -11.421875 C 7.425781 -11.421875 8.382812 -11.175781 9.25 -10.6875 C 10.113281 -10.195312 10.789062 -9.515625 11.28125 -8.640625 C 11.78125 -7.765625 12.03125 -6.769531 12.03125 -5.65625 C 12.03125 -4.539062 11.78125 -3.546875 11.28125 -2.671875 C 10.789062 -1.796875 10.113281 -1.113281 9.25 -0.625 C 8.382812 -0.132812 7.425781 0.109375 6.375 0.109375 Z M 6.375 -1.171875 C 7.15625 -1.171875 7.863281 -1.351562 8.5 -1.71875 C 9.132812 -2.082031 9.628906 -2.601562 9.984375 -3.28125 C 10.347656 -3.96875 10.53125 -4.757812 10.53125 -5.65625 C 10.53125 -6.5625 10.347656 -7.351562 9.984375 -8.03125 C 9.628906 -8.707031 9.132812 -9.226562 8.5 -9.59375 C 7.875 -9.957031 7.164062 -10.140625 6.375 -10.140625 C 5.570312 -10.140625 4.859375 -9.957031 4.234375 -9.59375 C 3.609375 -9.226562 3.113281 -8.707031 2.75 -8.03125 C 2.382812 -7.351562 2.203125 -6.5625 2.203125 -5.65625 C 2.203125 -4.757812 2.382812 -3.96875 2.75 -3.28125 C 3.113281 -2.601562 3.609375 -2.082031 4.234375 -1.71875 C 4.867188 -1.351562 5.582031 -1.171875 6.375 -1.171875 Z M 6.375 -1.171875 "/></g></g></g><g fill="#3daf36" fill-opacity="1"><g transform="translate(160.755285, 18.257312)"><g><path d="M 9.796875 -8.015625 C 9.484375 -8.679688 9.03125 -9.191406 8.4375 -9.546875 C 7.84375 -9.910156 7.15625 -10.09375 6.375 -10.09375 C 5.582031 -10.09375 4.867188 -9.910156 4.234375 -9.546875 C 3.609375 -9.191406 3.113281 -8.675781 2.75 -8 C 2.382812 -7.320312 2.203125 -6.539062 2.203125 -5.65625 C 2.203125 -4.769531 2.382812 -3.988281 2.75 -3.3125 C 3.113281 -2.644531 3.609375 -2.128906 4.234375 -1.765625 C 4.867188 -1.410156 5.582031 -1.234375 6.375 -1.234375 C 7.46875 -1.234375 8.367188 -1.5625 9.078125 -2.21875 C 9.796875 -2.875 10.21875 -3.765625 10.34375 -4.890625 L 5.828125 -4.890625 L 5.828125 -6.09375 L 11.90625 -6.09375 L 11.90625 -4.953125 C 11.820312 -4.023438 11.53125 -3.175781 11.03125 -2.40625 C 10.53125 -1.632812 9.875 -1.023438 9.0625 -0.578125 C 8.257812 -0.128906 7.363281 0.09375 6.375 0.09375 C 5.320312 0.09375 4.363281 -0.148438 3.5 -0.640625 C 2.632812 -1.128906 1.953125 -1.8125 1.453125 -2.6875 C 0.953125 -3.5625 0.703125 -4.550781 0.703125 -5.65625 C 0.703125 -6.757812 0.953125 -7.75 1.453125 -8.625 C 1.953125 -9.507812 2.632812 -10.195312 3.5 -10.6875 C 4.363281 -11.175781 5.320312 -11.421875 6.375 -11.421875 C 7.570312 -11.421875 8.628906 -11.125 9.546875 -10.53125 C 10.472656 -9.9375 11.144531 -9.097656 11.5625 -8.015625 Z M 9.796875 -8.015625 "/></g></g></g><g fill="#3daf36" fill-opacity="1"><g transform="translate(182.764397, 18.257312)"><g><path d="M 2.71875 -11.296875 L 2.71875 0 L 1.25 0 L 1.25 -11.296875 Z M 2.71875 -11.296875 "/></g></g></g><g fill="#3daf36" fill-opacity="1"><g transform="translate(196.161118, 18.257312)"><g><path d="M 2.71875 -10.09375 L 2.71875 -6.3125 L 6.84375 -6.3125 L 6.84375 -5.109375 L 2.71875 -5.109375 L 2.71875 -1.21875 L 7.328125 -1.21875 L 7.328125 0 L 1.25 0 L 1.25 -11.3125 L 7.328125 -11.3125 L 7.328125 -10.09375 Z M 2.71875 -10.09375 "/></g></g></g><g fill="#3daf36" fill-opacity="1"><g transform="translate(213.880235, 18.257312)"><g><path d="M 4.828125 0.109375 C 4.078125 0.109375 3.40625 -0.0195312 2.8125 -0.28125 C 2.226562 -0.550781 1.769531 -0.921875 1.4375 -1.390625 C 1.101562 -1.859375 0.929688 -2.398438 0.921875 -3.015625 L 2.5 -3.015625 C 2.550781 -2.484375 2.769531 -2.035156 3.15625 -1.671875 C 3.539062 -1.316406 4.097656 -1.140625 4.828125 -1.140625 C 5.523438 -1.140625 6.078125 -1.3125 6.484375 -1.65625 C 6.890625 -2.007812 7.09375 -2.460938 7.09375 -3.015625 C 7.09375 -3.441406 6.972656 -3.789062 6.734375 -4.0625 C 6.503906 -4.332031 6.207031 -4.535156 5.84375 -4.671875 C 5.488281 -4.816406 5.007812 -4.972656 4.40625 -5.140625 C 3.664062 -5.328125 3.066406 -5.519531 2.609375 -5.71875 C 2.160156 -5.914062 1.773438 -6.222656 1.453125 -6.640625 C 1.140625 -7.054688 0.984375 -7.613281 0.984375 -8.3125 C 0.984375 -8.925781 1.140625 -9.46875 1.453125 -9.9375 C 1.765625 -10.414062 2.203125 -10.785156 2.765625 -11.046875 C 3.335938 -11.304688 3.992188 -11.4375 4.734375 -11.4375 C 5.785156 -11.4375 6.648438 -11.171875 7.328125 -10.640625 C 8.003906 -10.109375 8.382812 -9.410156 8.46875 -8.546875 L 6.859375 -8.546875 C 6.796875 -8.972656 6.566406 -9.347656 6.171875 -9.671875 C 5.773438 -10.003906 5.242188 -10.171875 4.578125 -10.171875 C 3.960938 -10.171875 3.460938 -10.007812 3.078125 -9.6875 C 2.691406 -9.375 2.5 -8.929688 2.5 -8.359375 C 2.5 -7.953125 2.613281 -7.617188 2.84375 -7.359375 C 3.070312 -7.097656 3.359375 -6.898438 3.703125 -6.765625 C 4.046875 -6.628906 4.523438 -6.472656 5.140625 -6.296875 C 5.878906 -6.097656 6.472656 -5.894531 6.921875 -5.6875 C 7.378906 -5.488281 7.769531 -5.179688 8.09375 -4.765625 C 8.425781 -4.347656 8.59375 -3.785156 8.59375 -3.078125 C 8.59375 -2.523438 8.445312 -2.003906 8.15625 -1.515625 C 7.863281 -1.035156 7.429688 -0.644531 6.859375 -0.34375 C 6.285156 -0.0390625 5.609375 0.109375 4.828125 0.109375 Z M 4.828125 0.109375 "/></g></g></g></g></g></svg>